<svg width="216" height="216" viewBox="0 0 216 216" fill="none" xmlns="http://www.w3.org/2000/svg">
<path d="M167.037 94.305L166.151 94.9676L167.037 94.305ZM159.401 89.8883L159.291 90.9925L159.401 89.8883ZM150.992 92.0967L150.328 91.2133L150.992 92.0967ZM143.024 98.0593L142.36 97.1759H142.25L143.024 98.0593ZM143.024 98.0593L143.688 98.9426H143.799L143.91 98.8322L143.024 98.0593ZM130.963 107.003L130.52 107.997L131.073 108.218L131.516 107.886L130.963 107.003ZM122.332 103.58L121.889 102.586L119.455 103.691L121.889 104.684L122.332 103.58ZM67.2248 87.4591V88.5633H69.3273L68.2207 86.7966L67.2248 87.4591ZM49.6304 87.3487V86.2445V87.3487ZM49.5198 87.3487V88.4529V87.3487ZM48.5239 87.5696L48.1919 86.5758L48.5239 87.5696ZM48.1919 87.68L48.6345 88.6737L48.1919 87.68ZM48.0813 87.68L48.5239 88.6737L48.0813 87.68ZM27.6098 97.728L28.0525 98.7218L27.6098 97.728ZM27.6098 97.728L27.1672 96.7342L27.6098 97.728ZM15.5483 103.47L15.9909 104.464L15.5483 103.47ZM15.2163 103.691L15.8803 104.574L15.2163 103.691ZM11.3434 118.155L10.3475 118.707L11.3434 118.155ZM18.0934 123.787L17.7614 124.891L18.0934 123.787ZM26.8353 123.014L26.282 122.02L26.8353 123.014ZM35.6878 118.266L35.1345 117.272L35.6878 118.266ZM49.9624 110.978V109.874H49.7411L49.5198 109.984L49.9624 110.978ZM58.5936 110.868L59.3682 111.641L61.2493 109.764H58.4829L58.5936 110.868ZM24.0688 144.987L23.2942 144.214L24.0688 144.987ZM24.0688 144.987L23.2942 144.214L24.0688 144.987ZM15.5483 153.489L16.3229 154.262L15.5483 153.489ZM15.5483 168.285L14.7737 169.058L15.5483 168.285ZM30.5976 168.285L31.3722 169.058L30.5976 168.285ZM38.8968 160.004L38.2328 159.12H38.1222L38.0115 159.231L38.8968 160.004ZM49.9624 151.833L50.737 151.06L50.0731 150.397L49.2985 150.949L49.9624 151.833ZM55.6059 157.464L56.3805 158.237L57.1551 157.464L56.3805 156.691L55.6059 157.464ZM44.4296 168.506L43.655 167.733L44.4296 168.506ZM44.4296 168.616L43.655 167.843L44.4296 168.616ZM36.0197 177.008L36.7943 177.781L36.0197 177.008ZM36.0197 191.804L35.2451 192.577L36.0197 191.804ZM50.9583 191.804L51.7329 192.577L50.9583 191.804ZM73.0896 169.941L73.8642 170.714L73.0896 169.941ZM73.0896 169.941L72.315 169.168L73.0896 169.941ZM79.5076 163.648L80.2822 164.42L81.0568 163.648L80.2822 162.875L79.5076 163.648ZM79.397 163.648L78.6224 162.875L77.8478 163.648L78.6224 164.42L79.397 163.648ZM79.6183 163.537L80.3929 164.31L79.6183 163.537ZM112.373 127.872L112.483 126.768L111.93 126.658L111.487 127.099L112.373 127.872ZM134.393 130.964L134.504 129.86L134.393 130.964ZM136.053 130.743L135.721 129.749L136.053 130.743ZM136.385 130.633L135.942 129.639L136.385 130.633ZM136.717 130.412L136.053 129.528L136.717 130.412ZM157.188 117.051L157.852 117.934L157.188 117.051ZM157.299 116.83L157.963 117.714L157.299 116.83ZM157.631 116.72L156.856 115.947L157.631 116.72ZM165.598 109.211L166.373 109.984L165.598 109.211ZM23.6262 117.051L23.0729 116.057L23.6262 117.051ZM20.0852 117.382L20.4172 116.278L20.0852 117.382ZM17.4295 115.064L16.4336 115.616L17.4295 115.064ZM18.7573 109.432L18.3147 108.439H18.2041L18.0934 108.549L18.7573 109.432ZM27.0566 105.457L28.0525 105.126L27.6098 103.911L26.5033 104.464L27.0566 105.457ZM29.9336 113.739L30.4869 114.732L31.3722 114.291L31.0402 113.407L29.9336 113.739ZM45.8681 105.568L46.4214 106.561L46.9747 106.23V105.568H45.8681ZM36.0197 110.536L35.0238 110.868L35.4664 112.082L36.573 111.53L36.0197 110.536ZM33.2533 102.476L32.8107 101.482L31.9254 101.924L32.2574 102.807L33.2533 102.476ZM46.0894 96.1822H47.196V94.305L45.6468 95.1884L46.0894 96.1822ZM137.934 79.9507L137.491 80.9445L138.487 81.3861L138.93 80.3924L137.934 79.9507ZM111.377 67.9152L110.27 68.0256V68.6881L110.823 68.9089L111.377 67.9152ZM106.286 59.1921L105.18 58.8609L104.959 59.6338L105.623 60.0755L106.286 59.1921ZM115.582 28.6064L115.914 27.5022L114.807 27.1709L114.475 28.2751L115.582 28.6064ZM109.053 27.1709L110.159 27.5022L110.491 26.2876L109.164 26.1772L109.053 27.1709ZM99.8684 57.0942V58.1984H100.754L100.975 57.4254L99.8684 57.0942ZM109.827 74.6507L110.27 73.6569L109.385 73.2152L108.832 74.0986L109.827 74.6507ZM134.282 85.6925L135.168 86.355L135.942 85.2508L134.725 84.6987L134.282 85.6925ZM25.7287 163.537L26.5033 164.31L25.7287 163.537ZM20.3065 163.537L19.5319 164.31L20.3065 163.537ZM20.3065 158.237L21.0811 159.01L20.3065 158.237ZM26.5033 152.164L27.2779 151.391L26.5033 150.618L25.7287 151.391L26.5033 152.164ZM31.8148 157.464L32.5894 158.237L33.364 157.464L32.5894 156.691L31.8148 157.464ZM46.2001 187.056L46.9747 187.829L46.2001 187.056ZM40.7779 187.056L40.0033 187.829L40.7779 187.056ZM40.7779 181.756L41.5525 182.529L40.7779 181.756ZM46.864 175.683L47.6386 174.91L46.864 174.137L46.0894 174.91L46.864 175.683ZM52.2862 180.983L53.0608 181.756L53.8354 180.983L53.0608 180.21L52.2862 180.983ZM68.2207 165.193L68.9953 165.966L68.2207 165.193ZM68.2207 165.193L68.9953 165.966L68.2207 165.193ZM57.0444 176.235L56.2698 177.008L57.0444 177.781L57.819 177.008L57.0444 176.235ZM51.6223 170.935L50.8477 170.162L50.0731 170.935L50.8477 171.708L51.6223 170.935ZM62.7985 159.893L63.5731 160.666L63.9051 160.335V159.893H62.7985V159.893ZM62.7985 159.893L62.0239 159.12L61.692 159.452V159.893H62.7985ZM62.7985 159.893L63.5731 160.666L62.7985 159.893ZM63.4625 159.01L64.4584 159.562L63.4625 159.01ZM63.5731 158.789L64.569 159.231L63.5731 158.789ZM63.7944 157.906L64.901 158.016L63.7944 157.906ZM63.6838 156.802L62.5772 157.022L63.6838 156.802ZM63.5731 156.25L64.569 155.808L63.5731 156.25ZM63.0198 155.366L63.9051 154.704L63.0198 155.366ZM62.7985 155.145L63.5731 154.372L63.2412 154.041H62.7985V155.145V155.145ZM62.7985 155.145L62.1346 155.918L62.4666 156.25H62.9092V155.145H62.7985ZM62.7985 155.145L63.5731 154.372L62.7985 155.145ZM52.6182 144.987L51.8436 145.76L52.6182 144.987ZM52.2862 144.766L51.6223 145.649L52.2862 144.766ZM51.7329 144.435L52.1755 143.441L51.7329 144.435ZM51.1796 144.214L50.8477 145.318L51.1796 144.214ZM50.5157 144.104L50.6263 142.999L50.5157 144.104ZM49.8518 144.104L49.7411 142.999L49.8518 144.104ZM49.1878 144.214L49.5198 145.318L49.1878 144.214ZM48.6345 144.545L49.1878 145.539L48.6345 144.545ZM48.1919 144.766L47.528 143.883L48.1919 144.766ZM37.0156 153.047L36.241 153.82L36.905 154.483L37.6796 153.931L37.0156 153.047ZM31.2615 147.416L30.4869 146.643L29.7123 147.416L30.4869 148.189L31.2615 147.416ZM46.5321 132.399L47.3067 131.626L46.5321 130.853L45.7575 131.626L46.5321 132.399ZM74.1961 159.452L74.9707 160.225L75.7453 159.452L74.9707 158.679L74.1961 159.452ZM111.598 120.916L111.709 119.812L111.598 120.916ZM111.266 121.026L111.377 119.922L111.266 121.026ZM110.491 121.026L110.27 119.922L110.491 121.026ZM109.938 121.137L110.27 122.13L109.938 121.137ZM109.385 121.468L109.938 122.462L109.385 121.468ZM108.832 121.799L109.606 122.682L108.832 121.799ZM108.61 122.02L107.836 121.247L108.61 122.02ZM78.733 154.483L77.9584 155.256L78.733 156.029L79.5076 155.145L78.733 154.483ZM51.2903 127.651L50.5157 126.878L49.7411 127.651L50.5157 128.424L51.2903 127.651ZM69.2166 109.874L69.9912 110.647L69.2166 109.874ZM69.3273 105.126L70.1018 104.353L69.3273 105.126ZM66.8928 104.132H65.7862V105.236H66.8928V104.132ZM66.8928 104.132H67.9994V103.028H66.8928V104.132ZM52.7288 104.243H51.6223V105.347H52.7288V104.243ZM52.9501 94.0842V92.98H51.8436V94.0842H52.9501ZM72.6469 94.1946L73.4215 93.4217L73.0896 93.0905H72.6469V94.1946ZM112.373 106.672L113.036 105.789L112.594 105.457L112.151 105.568L112.373 106.672ZM113.258 107.224L112.815 108.218L113.258 107.224ZM128.528 113.297L129.635 113.076L129.524 112.524L128.971 112.303L128.528 113.297ZM130.631 123.676L130.52 124.78L132.069 125.001L131.737 123.455L130.631 123.676ZM137.16 122.13L136.053 122.351L136.385 124.007L137.713 123.124L137.16 122.13ZM135.168 112.303L134.504 111.42L133.951 111.862L134.061 112.524L135.168 112.303ZM144.352 105.457L145.237 104.795L144.574 103.911L143.688 104.574L144.352 105.457ZM150.438 113.407L151.102 114.291L152.098 113.628L151.434 112.745L150.438 113.407ZM161.061 104.243L161.836 105.016L161.061 104.243ZM155.75 109.211L154.865 109.874L155.639 110.868L156.524 109.984L155.75 109.211ZM149.774 101.372L149.11 100.488L148.225 101.151L148.889 102.034L149.774 101.372ZM155.086 97.3968L155.75 98.2801L155.086 97.3968ZM158.516 96.5134L158.627 95.4092L158.516 96.5134ZM161.615 98.2801L162.5 97.6176L161.615 98.2801ZM96.438 121.91L95.6634 122.682L96.438 121.91ZM82.8273 108.439L82.0527 109.211L82.8273 108.439ZM78.0691 108.439L78.8437 109.211L78.0691 108.439ZM64.4584 121.91L63.6838 121.137L64.4584 121.91ZM64.4584 126.658L65.233 125.885L64.4584 126.658ZM78.0691 140.129L77.2945 140.901L78.0691 140.129ZM82.8273 140.129L82.0527 139.356L82.8273 140.129ZM96.438 126.658L97.2126 127.43L96.438 126.658ZM80.5035 132.951L79.7289 133.724L80.5035 134.497L81.2781 133.724L80.5035 132.951ZM71.651 124.339L70.8764 123.566L70.1018 124.339L70.8764 125.112L71.651 124.339ZM80.5035 115.616L81.2781 114.843L80.5035 114.07L79.7289 114.843L80.5035 115.616ZM89.2454 124.339L90.02 125.112L90.7946 124.339L90.02 123.566L89.2454 124.339ZM119.123 36.9981L119.344 35.8939L118.237 35.6731L118.016 36.7773L119.123 36.9981ZM117.463 43.5128L116.356 43.292L116.135 44.3961L117.241 44.617L117.463 43.5128ZM128.418 57.0942H127.311V58.1984H128.418V57.0942ZM135.278 57.0942V58.1984H136.385V57.0942H135.278ZM128.418 63.8297V62.7255H127.311V63.8297H128.418ZM135.278 63.8297H136.385V62.7255H135.278V63.8297ZM135.278 70.5652V71.6694H136.385V70.5652H135.278ZM128.418 70.5652H127.311V71.6694H128.418V70.5652ZM167.922 93.6425C165.93 90.9925 162.942 89.2258 159.623 88.7842L159.291 90.9925C162.057 91.3238 164.492 92.7592 166.151 94.9676L167.922 93.6425ZM159.623 88.7842C156.303 88.3425 152.983 89.2258 150.328 91.2133L151.655 92.98C153.869 91.3238 156.524 90.5508 159.291 90.9925L159.623 88.7842ZM150.328 91.2133L142.36 97.2863L143.688 99.053L151.655 92.98L150.328 91.2133ZM142.25 97.2863L143.799 98.8322L142.25 97.2863ZM142.36 97.1759L130.299 106.12L131.627 107.886L143.688 98.9426L142.36 97.1759ZM131.405 106.009L122.774 102.586L122 104.684L130.631 108.107L131.405 106.009ZM122.774 104.684C138.487 97.6176 149.553 81.9382 149.553 63.8297H147.34C147.34 81.0549 136.828 95.9613 121.889 102.697L122.774 104.684ZM149.553 63.8297C149.553 39.0961 129.192 19 104.295 19V21.2084C127.975 21.2084 147.34 40.3107 147.34 63.8297H149.553ZM104.295 19C79.2863 19 58.9256 39.0961 58.9256 63.8297H61.1387C61.1387 40.3107 80.5035 21.2084 104.295 21.2084V19ZM58.9256 63.8297C58.9256 72.7735 61.5813 81.1653 66.2289 88.1216L68.11 86.907C63.7944 80.282 61.1387 72.3319 61.1387 63.8297H58.9256ZM67.2248 86.355L49.6304 86.2445V88.4529L67.2248 88.5633V86.355ZM49.6304 86.2445V88.4529V86.2445ZM49.6304 86.2445C49.5198 86.2445 49.2985 86.2445 49.1878 86.355C49.1878 86.355 49.2985 86.355 49.4091 86.355L49.5198 88.5633C49.6304 88.5633 49.7411 88.5633 49.8518 88.4529C49.7411 88.4529 49.7411 88.4529 49.6304 88.4529V86.2445ZM49.4091 86.2445C48.9665 86.2445 48.5239 86.355 48.0813 86.4654L48.8558 88.5633C49.0772 88.4529 49.2985 88.4529 49.5198 88.4529L49.4091 86.2445ZM48.0813 86.5758C47.9706 86.5758 47.8599 86.5758 47.7493 86.6862L48.7452 88.6737C48.7452 88.6737 48.6345 88.6737 48.7452 88.6737C48.8558 88.6737 48.8558 88.6737 48.9665 88.5633L48.0813 86.5758ZM47.8599 86.5758C47.8599 86.5758 47.9706 86.5758 47.8599 86.5758C47.9706 86.5758 47.7493 86.5758 47.6386 86.6862L48.6345 88.6737C48.5239 88.6737 48.5239 88.6737 48.5239 88.7842C48.6345 88.7842 48.6345 88.7842 48.7452 88.6737L47.8599 86.5758ZM47.6386 86.6862L27.1672 96.7342L28.1631 98.7218L48.6345 88.6737L47.6386 86.6862ZM27.1672 96.7342L28.0525 98.7218L27.1672 96.7342ZM27.0566 96.7342L15.1057 102.476L16.1016 104.464L28.1631 98.7218L27.0566 96.7342ZM15.1057 102.476C14.8844 102.586 14.6631 102.697 14.5524 102.807L15.7696 104.684C15.8803 104.574 15.9909 104.574 15.9909 104.574L15.1057 102.476ZM14.5524 102.807C9.35156 106.23 7.47041 113.076 10.3475 118.707L12.3393 117.714C10.0155 113.187 11.454 107.555 15.7696 104.684L14.5524 102.807ZM10.3475 118.707C11.8967 121.689 14.5524 123.787 17.7614 124.78L18.4254 122.682C15.7696 121.91 13.6672 120.032 12.3393 117.603L10.3475 118.707ZM17.7614 124.78C18.9787 125.112 20.3065 125.333 21.5238 125.333V123.124C20.5278 123.124 19.4213 123.014 18.4254 122.682L17.7614 124.78ZM21.5238 125.443C23.5156 125.443 25.5074 125.001 27.3885 124.007L26.3926 122.02C24.8434 122.793 23.2942 123.235 21.6344 123.235V125.443H21.5238ZM27.3885 123.897L36.241 119.26L35.2451 117.272L26.3926 121.91L27.3885 123.897ZM36.1304 119.26L50.5157 111.862L49.5198 109.874L35.1345 117.272L36.1304 119.26ZM49.9624 112.082H58.5936V109.874H49.9624V112.082ZM57.819 110.095L23.2942 144.214L24.8434 145.76L59.3682 111.641L57.819 110.095ZM23.2942 144.324C23.4049 144.214 23.5156 144.104 23.6262 144.104C23.5156 144.104 23.4049 144.104 23.2942 144.324L24.8434 145.87C24.7328 145.981 24.7328 145.981 24.6221 145.981C24.7328 145.981 24.8434 145.87 24.9541 145.76L23.2942 144.324ZM23.2942 144.214L14.7737 152.606L16.3229 154.152L24.8434 145.76L23.2942 144.214ZM14.7737 152.606C12.5606 154.814 11.3434 157.685 11.3434 160.777H13.5565C13.5565 158.237 14.5524 155.918 16.3229 154.152L14.7737 152.606ZM11.3434 160.887C11.3434 163.979 12.5606 166.96 14.7737 169.058L16.3229 167.512C14.5524 165.745 13.5565 163.427 13.5565 160.887H11.3434ZM14.7737 169.058C17.0975 171.266 20.0852 172.481 23.0729 172.481V170.273C20.6385 170.273 18.2041 169.389 16.3229 167.512L14.7737 169.058ZM23.0729 172.481C26.0607 172.481 29.0484 171.377 31.3722 169.058L29.823 167.512C27.9418 169.389 25.5074 170.273 23.0729 170.273V172.481V172.481ZM31.3722 169.058L39.6714 160.777L38.1222 159.231L29.823 167.512L31.3722 169.058ZM39.5607 160.887L50.6263 152.716L49.2985 150.949L38.2328 159.12L39.5607 160.887ZM49.1878 152.606L54.9419 158.237L56.4911 156.691L50.737 151.06L49.1878 152.606ZM54.8313 156.691L43.655 167.733L45.2042 169.279L56.3805 158.237L54.8313 156.691ZM43.655 167.843C43.7657 167.733 43.7657 167.733 43.8763 167.623C43.987 167.623 43.987 167.512 43.987 167.512C43.987 167.512 43.987 167.512 43.8763 167.512C43.8763 167.623 43.7657 167.623 43.655 167.843L45.2042 169.389C45.0935 169.5 44.9829 169.5 44.9829 169.61C45.0935 169.61 45.2042 169.5 45.3148 169.389L43.655 167.843ZM43.655 167.733L35.1345 176.125L36.6837 177.671L45.2042 169.279L43.655 167.733ZM35.1345 176.235C32.9213 178.444 31.7041 181.314 31.7041 184.406H33.9173C33.9173 181.866 34.9132 179.548 36.6837 177.781L35.1345 176.235ZM31.7041 184.406C31.7041 187.498 32.9213 190.479 35.1345 192.577L36.6837 191.031C34.9132 189.265 33.9173 186.946 33.9173 184.406H31.7041ZM35.1345 192.577C37.4583 194.785 40.446 196 43.4337 196V193.792C40.9993 193.792 38.5648 192.908 36.6837 191.031L35.1345 192.577ZM43.4337 196C46.4214 196 49.4091 194.896 51.7329 192.577L50.1837 191.031C48.3026 192.908 45.8681 193.792 43.4337 193.792V196ZM73.8642 170.714C73.9748 170.604 74.0855 170.493 74.0855 170.383C73.9748 170.493 73.9748 170.604 73.8642 170.714L72.315 169.168C72.2043 169.279 72.2043 169.279 72.0937 169.389C72.0937 169.279 72.2043 169.168 72.315 169.058L73.8642 170.714ZM73.8642 170.714L80.2822 164.42L78.733 162.875L72.315 169.168L73.8642 170.714ZM80.2822 162.875L78.733 164.42L80.2822 162.875ZM80.1716 164.42C80.0609 164.531 80.0609 164.531 80.0609 164.531C80.1716 164.531 80.2822 164.42 80.3929 164.31L78.733 162.764C78.8437 162.654 78.8437 162.654 78.8437 162.654C78.733 162.764 78.6224 162.764 78.6224 162.875L80.1716 164.42ZM80.3929 164.31L113.147 128.645L111.487 127.099L78.733 162.764L80.3929 164.31ZM112.262 128.976L134.282 132.068L134.614 129.86L112.594 126.768L112.262 128.976ZM134.282 132.068C134.504 132.068 134.725 132.068 134.946 132.068V129.86C134.836 129.86 134.725 129.86 134.614 129.86L134.282 132.068ZM134.836 132.178C135.389 132.178 135.942 132.068 136.385 131.847L135.61 129.749C135.278 129.86 135.057 129.97 134.836 129.97V132.178ZM136.385 131.847C136.606 131.737 136.717 131.626 136.828 131.626L135.832 129.639H135.721C135.721 129.639 135.721 129.639 135.61 129.639L136.385 131.847ZM136.828 131.626C136.828 131.626 136.938 131.626 136.828 131.626C136.938 131.626 136.938 131.626 136.938 131.626C137.049 131.626 137.16 131.516 137.27 131.405L136.053 129.528C136.053 129.528 136.164 129.528 136.053 129.528C136.053 129.528 136.053 129.528 135.942 129.528C135.942 129.528 135.832 129.528 135.832 129.639L136.828 131.626ZM137.381 131.405L157.742 117.934L156.524 116.057L136.164 129.528L137.381 131.405ZM157.742 117.934C157.852 117.824 157.963 117.714 158.074 117.603C158.074 117.603 158.074 117.603 157.963 117.714L156.635 115.947C156.524 116.057 156.414 116.168 156.414 116.168L156.524 116.057L157.742 117.934ZM157.963 117.714C157.963 117.714 158.074 117.603 158.295 117.493L156.746 115.947L156.856 115.837C156.746 115.837 156.746 115.947 156.635 116.057L157.963 117.714ZM158.295 117.493L166.373 109.984L164.824 108.328L156.746 115.837L158.295 117.493ZM166.373 109.984C171.02 105.678 171.574 98.6113 167.811 93.6425L166.041 94.9676C169.139 99.053 168.586 104.905 164.824 108.328L166.373 109.984ZM23.0729 116.057C22.1877 116.499 21.3024 116.609 20.4172 116.278L19.7532 118.376C21.1918 118.818 22.741 118.707 24.1795 117.934L23.0729 116.057ZM20.4172 116.278C19.5319 115.947 18.7573 115.395 18.3147 114.622L16.3229 115.616C16.9868 116.941 18.2041 117.934 19.6426 118.376L20.4172 116.278ZM18.4254 114.622C17.6508 113.187 18.0934 111.309 19.4213 110.316L18.0934 108.549C15.8803 110.205 15.1057 113.187 16.4336 115.616L18.4254 114.622ZM19.2 110.426L27.4992 106.451L26.5033 104.464L18.3147 108.439L19.2 110.426ZM29.3803 112.745L23.0729 116.057L24.0688 118.045L30.3763 114.732L29.3803 112.745ZM45.3148 104.574L35.4664 109.543L36.4623 111.53L46.3108 106.451L45.3148 104.574ZM33.6959 103.47L46.5321 97.1759L45.6468 95.1884L32.8107 101.482L33.6959 103.47ZM44.9829 96.1822L44.7616 105.568L46.9747 105.678L47.196 96.2926L44.9829 96.1822ZM140.59 63.8297C140.59 69.461 139.262 74.7611 136.938 79.509L138.93 80.5028C141.364 75.4236 142.803 69.9027 142.803 63.8297H140.59V63.8297ZM138.377 78.957L111.819 67.0318L110.934 69.0193L137.491 80.9445L138.377 78.957ZM112.483 67.9152C112.151 63.9401 110.159 60.5172 107.061 58.3088L105.844 60.0755C108.389 61.8422 110.159 64.713 110.381 68.0256L112.483 67.9152ZM107.393 59.5234L116.688 28.9376L114.586 28.2751L105.291 58.8609L107.393 59.5234ZM115.25 29.6001C129.856 34.2377 140.479 47.8191 140.479 63.7193H142.692C142.692 46.7149 131.405 32.3606 115.914 27.5022L115.25 29.6001ZM67.9994 63.8297C67.9994 44.0649 84.2658 27.9439 104.295 27.9439V25.7355C83.0486 25.7355 65.7862 42.8503 65.7862 63.8297H67.9994ZM104.295 27.9439C105.844 27.9439 107.393 28.0543 108.832 28.2751L109.053 26.0667C107.504 25.8459 105.844 25.7355 104.184 25.7355V27.9439H104.295ZM107.946 26.8397L98.8725 56.7629L100.975 57.4254L110.049 27.5022L107.946 26.8397ZM99.979 55.99C99.979 55.99 99.7577 55.99 99.5364 55.99V58.1984C99.6471 58.1984 99.7577 58.1984 99.8684 58.1984L99.979 55.99ZM99.5364 55.99C92.3438 55.99 86.5896 61.7318 86.5896 68.9089H88.8027C88.8027 63.0568 93.6716 58.1984 99.5364 58.1984V55.99ZM86.5896 68.7985C86.5896 75.8652 92.4544 81.7174 99.5364 81.7174V79.509C93.561 79.509 88.8027 74.7611 88.8027 68.7985H86.5896V68.7985ZM99.5364 81.7174C104.405 81.7174 108.5 79.0674 110.713 75.2027L108.832 74.0986C106.95 77.3007 103.52 79.509 99.5364 79.509V81.7174V81.7174ZM109.385 75.6444L133.951 86.6862L134.836 84.6987L110.27 73.6569L109.385 75.6444ZM133.397 85.0299C126.758 93.8634 116.135 99.6051 104.184 99.6051V101.813C116.909 101.813 128.086 95.7405 135.168 86.355L133.397 85.0299ZM104.295 99.7155C84.2658 99.7155 67.9994 83.5945 67.9994 63.8297H65.7862C65.7862 84.8091 83.0486 101.924 104.295 101.924V99.7155ZM103.52 68.7985C103.52 71.0069 101.75 72.7735 99.5364 72.7735V74.9819C102.967 74.9819 105.733 72.2215 105.733 68.7985H103.52ZM99.5364 72.7735C97.3233 72.7735 95.5528 71.0069 95.5528 68.7985H93.3397C93.3397 72.2215 96.1061 74.9819 99.5364 74.9819V72.7735ZM95.5528 68.7985C95.5528 66.5901 97.3233 64.8235 99.5364 64.8235V62.6151C96.1061 62.6151 93.3397 65.3755 93.3397 68.7985H95.5528ZM99.5364 64.9339C101.75 64.9339 103.52 66.7006 103.52 68.9089H105.733C105.733 65.486 102.967 62.7255 99.5364 62.7255V64.9339ZM24.9541 162.764C23.8475 163.868 22.1877 163.758 21.0811 162.764L19.5319 164.31C21.4131 166.187 24.6221 166.187 26.5033 164.31L24.9541 162.764ZM21.0811 162.764C20.5278 162.212 20.3065 161.55 20.3065 160.887H18.0934C18.0934 162.212 18.6467 163.427 19.5319 164.31L21.0811 162.764ZM20.3065 160.887C20.3065 160.225 20.5278 159.562 21.0811 159.01L19.5319 157.464C18.6467 158.347 18.0934 159.562 18.0934 160.887H20.3065ZM21.0811 159.01L27.1672 152.937L25.618 151.391L19.5319 157.464L21.0811 159.01ZM25.7287 152.937L31.1508 158.237L32.7 156.691L27.2779 151.391L25.7287 152.937ZM31.0402 156.691L24.9541 162.654L26.5033 164.2L32.5894 158.237L31.0402 156.691ZM45.4255 186.283C44.3189 187.387 42.6591 187.387 41.5525 186.283L40.0033 187.829C41.8845 189.706 45.0935 189.706 46.9747 187.829L45.4255 186.283ZM41.5525 186.283C40.9993 185.731 40.7779 185.069 40.7779 184.406H38.5648C38.5648 185.731 39.1181 186.946 40.0033 187.829L41.5525 186.283ZM40.7779 184.406C40.7779 183.744 40.9993 183.081 41.5525 182.529L40.0033 180.983C39.1181 181.866 38.5648 183.081 38.5648 184.406H40.7779ZM41.5525 182.529L47.6386 176.456L46.0894 174.91L40.0033 180.983L41.5525 182.529ZM51.5116 180.21L45.4255 186.283L46.9747 187.829L53.0608 181.756L51.5116 180.21ZM67.5568 164.31C67.5568 164.31 67.6674 164.2 67.7781 164.2C67.7781 164.2 67.6674 164.31 67.5568 164.31C67.5568 164.42 67.5568 164.31 67.5568 164.31L69.1059 165.966L68.9953 166.077C68.9953 166.077 68.8846 166.077 68.8846 166.187C68.8846 166.187 68.8846 166.187 68.774 166.187C68.8846 166.187 68.8846 166.077 68.9953 166.077L67.5568 164.31ZM67.4461 164.42L56.2698 175.462L57.819 177.008L68.9953 165.966L67.4461 164.42ZM52.3968 171.708L63.5731 160.666L62.0239 159.12L50.8477 170.162L52.3968 171.708ZM63.9051 159.893H61.692H63.9051ZM63.5731 160.666C63.4625 160.777 63.3518 160.777 63.3518 160.887C63.4625 160.777 63.5731 160.777 63.5731 160.666L62.0239 159.01C62.1346 158.9 62.1346 158.9 62.2452 158.9C62.1346 158.9 62.0239 159.01 61.9133 159.12L63.5731 160.666ZM63.6838 160.666C64.1264 160.225 64.3477 159.783 64.4584 159.562L62.4666 158.568C62.3559 158.9 62.2453 159.01 62.1346 159.12L63.6838 160.666ZM64.4584 159.562C64.3477 159.562 64.3477 159.562 64.4584 159.562C64.4584 159.562 64.569 159.452 64.6797 159.231L62.6879 158.347C62.6879 158.237 62.6879 158.237 62.7985 158.237C62.6879 158.347 62.6879 158.458 62.5772 158.568L64.4584 159.562ZM64.569 159.231C64.7903 158.789 64.7903 158.347 64.7903 158.127L62.5772 157.795C62.4666 158.237 62.5772 158.237 62.4666 158.347L64.569 159.231ZM64.901 158.127C64.901 158.016 65.0117 157.795 65.0117 157.575H62.7985C62.7985 157.464 62.7985 157.464 62.7985 157.575C62.7985 157.685 62.6879 157.795 62.6879 157.906L64.901 158.127ZM64.901 157.464C64.901 157.133 64.7903 156.802 64.7903 156.581L62.5772 157.022C62.5772 157.133 62.6879 157.354 62.6879 157.464H64.901V157.464ZM64.7903 156.581C64.7903 156.36 64.7903 156.139 64.569 155.808L62.4666 156.581C62.4666 156.581 62.4666 156.912 62.5772 157.022L64.7903 156.581ZM64.569 155.808C64.3477 155.366 64.0158 154.925 63.7944 154.593L62.1346 156.029C62.3559 156.25 62.4666 156.47 62.5772 156.581L64.569 155.808ZM63.7944 154.593C63.9051 154.704 63.9051 154.814 63.7944 154.593C63.7944 154.593 63.7944 154.483 63.5731 154.262L62.0239 155.808L61.9133 155.697C62.0239 155.808 62.0239 155.918 62.1346 156.029L63.7944 154.593ZM62.7985 154.041V156.25V154.041ZM63.5731 154.262C63.6838 154.372 63.7944 154.593 63.9051 154.704C63.7944 154.593 63.7944 154.483 63.5731 154.262L62.0239 155.808C61.9133 155.697 61.8026 155.587 61.8026 155.366C61.9133 155.477 61.9133 155.697 62.1346 155.808L63.5731 154.262ZM63.5731 154.372L53.3927 144.324L51.8436 145.87L62.0239 155.918L63.5731 154.372ZM53.3927 144.214C53.1714 143.993 53.0608 143.993 52.8395 143.883L51.5116 145.649C51.6223 145.76 51.7329 145.76 51.7329 145.87C51.7329 145.87 51.7329 145.87 51.6223 145.87L53.3927 144.214ZM52.9501 143.883C52.7288 143.772 52.5075 143.551 52.1755 143.441L51.1796 145.429C51.2903 145.429 51.4009 145.539 51.5116 145.649L52.9501 143.883ZM52.1755 143.441C51.8436 143.331 51.6223 143.22 51.4009 143.11L50.8477 145.208C51.069 145.208 51.1796 145.318 51.2903 145.318L52.1755 143.441ZM51.4009 143.11C51.1796 142.999 50.8477 142.999 50.5157 142.999L50.405 145.208C50.5157 145.208 50.6263 145.208 50.8477 145.318L51.4009 143.11ZM50.5157 142.999C50.1837 142.999 49.9624 142.999 49.7411 142.999L49.9624 145.208C50.1837 145.208 50.2944 145.208 50.405 145.208L50.5157 142.999ZM49.7411 142.999C49.5198 142.999 49.1878 143.11 48.8558 143.22L49.5198 145.318C49.6304 145.318 49.7411 145.208 49.9624 145.208L49.7411 142.999ZM48.8558 143.22C48.5239 143.331 48.1919 143.441 48.0813 143.551L49.1878 145.429C49.4091 145.318 49.5198 145.318 49.5198 145.208L48.8558 143.22ZM48.0813 143.551C47.9706 143.551 47.7493 143.662 47.528 143.772L48.8558 145.539C48.7452 145.539 48.7452 145.649 48.7452 145.539C48.7452 145.539 48.7452 145.539 48.8558 145.539C48.9665 145.539 48.9665 145.429 49.0772 145.429L48.0813 143.551ZM47.528 143.883L36.241 152.274L37.5689 154.041L48.8558 145.649L47.528 143.883ZM37.7902 152.274L32.0361 146.643L30.4869 148.189L36.241 153.82L37.7902 152.274ZM32.0361 148.189L47.3067 133.172L45.7575 131.626L30.4869 146.643L32.0361 148.189ZM45.7575 133.172L73.4215 160.225L74.9707 158.679L47.3067 131.626L45.7575 133.172ZM73.4215 158.568L67.5568 164.31L69.1059 165.856L74.9707 160.114L73.4215 158.568ZM111.709 119.922C111.487 119.922 111.377 119.922 111.266 119.922C111.266 119.922 111.266 119.922 111.377 119.922L111.266 122.13C111.377 122.13 111.598 122.13 111.598 122.13H111.487L111.709 119.922ZM111.266 119.922C110.934 119.922 110.602 119.922 110.27 120.032L110.602 122.241C110.823 122.241 110.934 122.241 111.045 122.241L111.266 119.922ZM110.381 119.922C110.159 119.922 109.938 120.032 109.606 120.143L110.381 122.241C110.491 122.241 110.602 122.13 110.713 122.13L110.381 119.922ZM109.606 120.143C109.274 120.253 109.053 120.364 108.832 120.585L109.938 122.462C110.049 122.351 110.27 122.351 110.381 122.241L109.606 120.143ZM108.832 120.474C108.61 120.585 108.389 120.805 108.168 121.026L109.606 122.682C109.717 122.572 109.827 122.462 109.938 122.462L108.832 120.474ZM108.057 121.026C108.168 121.026 108.168 121.026 108.057 121.026C108.168 120.916 108.168 121.026 108.057 121.026C108.168 121.026 108.168 121.026 108.057 121.026C108.057 121.026 107.836 121.137 107.725 121.247L109.385 122.793L109.274 122.903C109.274 122.903 109.274 122.903 109.385 122.903C109.385 122.903 109.495 122.793 109.606 122.793L108.057 121.026ZM107.725 121.247L77.9584 153.71L79.6183 155.256L109.385 122.793L107.725 121.247ZM79.5076 153.71L52.0649 126.878L50.5157 128.424L77.9584 155.256L79.5076 153.71ZM52.0649 128.424L69.9912 110.647L68.442 109.101L50.5157 126.878L52.0649 128.424ZM70.1018 110.647C71.8723 108.88 71.8723 106.12 70.1018 104.353L68.5527 105.899C69.4379 106.782 69.4379 108.218 68.5527 109.101L70.1018 110.647ZM70.1018 104.353C69.2166 103.47 67.9994 103.028 66.8928 103.028V105.236C67.4461 105.236 68.11 105.457 68.5527 105.899L70.1018 104.353ZM67.9994 104.132H65.7862H67.9994ZM66.8928 103.028L52.8395 103.138V105.347L66.8928 105.236V103.028ZM53.8354 104.243L54.0567 94.0842H51.8436L51.6223 104.243H53.8354ZM52.9501 95.1884L72.6469 95.4092V93.2009L52.9501 92.98V95.1884ZM71.8723 95.078C80.0609 103.47 91.5692 108.659 104.295 108.659V106.451C92.2331 106.451 81.2781 101.482 73.4215 93.5321L71.8723 95.078ZM104.295 108.549C107.172 108.549 109.938 108.218 112.594 107.776L112.151 105.568C109.606 106.009 106.95 106.341 104.184 106.341V108.549H104.295ZM111.709 107.555C111.93 107.776 112.262 107.997 112.815 108.218L113.59 106.12C113.479 106.009 113.368 106.009 113.036 105.789L111.709 107.555ZM112.815 108.328L128.086 114.401L128.86 112.303L113.59 106.23L112.815 108.328ZM130.741 122.572L111.709 119.922L111.377 122.13L130.409 124.78L130.741 122.572ZM138.266 121.91L136.274 112.082L134.061 112.524L136.053 122.351L138.266 121.91ZM135.832 113.187L145.016 106.341L143.688 104.574L134.504 111.42L135.832 113.187ZM149.774 112.414L136.606 121.137L137.823 123.014L150.992 114.291L149.774 112.414ZM160.287 103.47L154.975 108.439L156.524 110.095L161.836 105.126L160.287 103.47ZM156.635 108.549L150.66 100.709L148.889 102.034L154.754 109.874L156.635 108.549ZM150.438 102.255L155.75 98.2801L154.422 96.5134L149.11 100.488L150.438 102.255ZM155.75 98.2801C156.524 97.728 157.41 97.5072 158.406 97.6176L158.737 95.4092C157.299 95.1884 155.75 95.6301 154.422 96.5134L155.75 98.2801ZM158.406 97.6176C159.291 97.728 160.176 98.2801 160.729 98.9426L162.5 97.6176C161.615 96.403 160.287 95.6301 158.737 95.4092L158.406 97.6176ZM160.729 98.9426C161.725 100.378 161.615 102.255 160.287 103.47L161.836 105.126C163.938 103.138 164.27 99.9364 162.5 97.728L160.729 98.9426ZM97.2126 121.137L83.6019 107.666L82.0527 109.211L95.6634 122.682L97.2126 121.137ZM83.6019 107.666C81.8314 105.899 79.065 105.899 77.2945 107.666L78.8437 109.211C79.7289 108.328 81.1675 108.328 82.0527 109.211L83.6019 107.666ZM77.2945 107.666L63.6838 121.137L65.233 122.682L78.8437 109.211L77.2945 107.666ZM63.6838 121.137C62.7985 122.02 62.3559 123.124 62.3559 124.339H64.569C64.569 123.787 64.7903 123.124 65.233 122.682L63.6838 121.137ZM62.3559 124.339C62.3559 125.553 62.7985 126.658 63.6838 127.541L65.233 125.995C64.7903 125.553 64.569 125.001 64.569 124.449H62.3559V124.339ZM63.6838 127.43L77.2945 140.901L78.8437 139.356L65.233 125.885L63.6838 127.43ZM77.2945 140.901C78.1798 141.785 79.2863 142.226 80.5035 142.226V140.018C79.9502 140.018 79.2863 139.797 78.8437 139.356L77.2945 140.901ZM80.5035 142.226C81.6101 142.226 82.8273 141.785 83.7126 140.901L82.0527 139.356C81.6101 139.797 81.0568 140.018 80.3929 140.018V142.226H80.5035ZM83.6019 140.901L97.2126 127.43L95.6634 125.885L82.0527 139.356L83.6019 140.901ZM97.2126 127.43C98.0979 126.547 98.5405 125.443 98.5405 124.228H96.3274C96.3274 124.78 96.1061 125.443 95.6634 125.774L97.2126 127.43ZM98.5405 124.339C98.5405 123.124 98.0979 122.02 97.2126 121.137L95.6634 122.682C96.1061 123.124 96.3274 123.676 96.3274 124.228H98.5405V124.339ZM81.2781 132.178L72.4256 123.455L70.8764 125.001L79.7289 133.724L81.2781 132.178ZM72.4256 125.112L81.2781 116.389L79.7289 114.843L70.8764 123.566L72.4256 125.112ZM79.7289 116.389L88.5814 125.112L90.1306 123.566L81.2781 114.843L79.7289 116.389ZM88.4708 123.566L79.6183 132.289L81.1675 133.835L90.02 125.112L88.4708 123.566ZM118.016 36.7773L116.356 43.292L118.459 43.844L120.118 37.3294L118.016 36.7773ZM117.131 44.617C121.336 45.6107 127.643 50.0274 127.311 57.0942H129.524C129.746 48.8128 122.664 43.6232 117.684 42.519L117.131 44.617ZM128.418 58.1984H135.168V55.99H128.418V58.1984ZM136.385 57.0942C136.385 43.6232 125.209 37.4398 119.344 36.0044L118.791 38.1023C124.102 39.4273 134.061 45.1691 134.061 57.0942H136.385ZM128.418 64.9339H135.168V62.7255H128.418V64.9339ZM134.172 63.8297V70.5652H136.385V63.8297H134.172ZM135.278 69.461H128.528V71.6694H135.278V69.461ZM129.524 70.5652V63.8297H127.311V70.5652H129.524ZM51.7329 192.577L73.8642 170.714L72.315 169.168L50.1837 191.031L51.7329 192.577ZM26.0607 105.789L28.9377 114.07L31.0402 113.297L28.1631 105.126L26.0607 105.789ZM37.0156 110.205L34.2492 102.145L32.1468 102.918L34.9132 110.978L37.0156 110.205ZM46.0894 176.456L51.5116 181.756L53.0608 180.21L47.6386 174.91L46.0894 176.456ZM57.819 175.462L52.3968 170.162L50.8477 171.708L56.2698 177.008L57.819 175.462ZM127.422 113.518L129.524 123.897L131.737 123.455L129.635 113.076L127.422 113.518ZM143.467 106.12L149.442 114.07L151.213 112.745L145.237 104.795L143.467 106.12Z" />
<path d="M146.033 196H137.109V189.279H130.388V180.355H137.109V173.634H146.033V180.355H152.754V189.279H146.033V196ZM139.312 193.797H143.83V189.279H139.312V193.797ZM146.033 187.076H150.55V182.558H146.033V187.076ZM139.312 187.076H143.83V182.558H139.312V187.076ZM132.591 187.076H137.109V182.558H132.591V187.076ZM139.312 180.465H143.83V175.948H139.312V180.465ZM105.818 182.669H96.8937V175.948H90.1729V167.023H96.8937V160.413H105.818V167.134H112.539V176.058H105.818V182.669ZM99.0973 180.465H103.615V175.948H99.0973V180.465ZM105.818 173.744H110.335V169.227H105.818V173.744ZM99.0973 173.744H103.615V169.227H99.0973V173.744ZM92.3764 173.744H96.8937V169.227H92.3764V173.744ZM99.0973 167.134H103.615V162.616H99.0973V167.134ZM169.501 159.311H160.577V152.7H153.856V143.776H160.577V137.055H169.501V143.776H176.222V152.7H169.501V159.311ZM162.78 157.107H167.298V152.7H162.78V157.107ZM169.501 150.497H174.018V145.979H169.501V150.497ZM162.78 150.497H167.298V145.979H162.78V150.497ZM156.059 150.497H160.577V145.979H156.059V150.497ZM162.78 143.776H167.298V139.258H162.78V143.776ZM42.0251 69.2954H33.1006V62.5745H26.3798V53.6501H33.1006V46.9292H42.0251V53.6501H48.7459V62.5745H42.0251V69.2954ZM35.4144 67.0918H39.9317V62.5745H35.4144V67.0918ZM42.0251 60.4812H46.5424V55.9639H42.0251V60.4812ZM35.4144 60.4812H39.9317V55.9639H35.4144V60.4812ZM28.6935 60.4812H33.2108V55.9639H28.6935V60.4812ZM35.4144 53.7603H39.9317V49.243H35.4144V53.7603ZM169.721 66.9817C168.84 66.9817 167.848 66.6511 167.077 66.1002C165.645 65.1086 164.984 63.456 165.314 61.8033L167.298 50.4549L159.034 42.4119C157.822 41.2 157.382 39.4371 157.932 37.8946C158.483 36.242 159.805 35.1402 161.568 34.9198L173.027 33.2672L178.095 22.9104C178.756 21.4781 180.299 20.5967 182.061 20.5967C183.824 20.5967 185.367 21.4781 186.028 22.9104L191.096 33.157L202.555 34.8097C204.207 35.03 205.64 36.242 206.19 37.7845C206.741 39.4371 206.301 41.0898 205.089 42.3018L196.825 50.3448L198.808 61.6931C199.139 63.3458 198.368 64.9985 197.046 65.9901C195.723 66.9817 193.85 67.0918 192.308 66.3206L182.061 60.9219L171.815 66.3206C171.154 66.7613 170.493 66.9817 169.721 66.9817ZM182.061 22.8002C181.4 22.8002 180.409 23.1308 180.078 23.902L174.459 35.2504L161.789 37.0132C160.907 37.1234 160.246 37.6743 159.916 38.5557C159.695 39.327 159.916 40.2084 160.467 40.8694L169.611 49.6837L167.408 62.1338C167.298 63.0152 167.628 63.7865 168.289 64.3374C168.95 64.8883 169.942 64.8883 170.713 64.5577L181.951 58.7183L193.189 64.5577C193.961 64.9985 194.842 64.8883 195.613 64.3374C196.274 63.7865 196.605 63.0152 196.495 62.1338L194.291 49.6837L203.436 40.8694C204.097 40.3186 204.317 39.4371 203.987 38.5557C203.767 37.7845 202.995 37.1234 202.224 37.0132L189.664 35.1402L184.045 23.7918C183.714 23.1308 182.722 22.8002 182.061 22.8002ZM191.316 58.3878L183.053 54.0908C182.392 53.7603 181.621 53.7603 180.96 54.0908L172.696 58.3878L174.239 49.243C174.349 48.4717 174.129 47.8107 173.578 47.2598L166.857 40.7593L176.112 39.4371C176.883 39.327 177.434 38.8862 177.764 38.2252L181.951 29.8516L186.138 38.2252C186.469 38.8862 187.13 39.327 187.791 39.4371L197.046 40.7593L190.325 47.2598C189.774 47.8107 189.554 48.4717 189.664 49.243L191.316 58.3878ZM171.705 42.3018L175.23 45.7173C176.332 46.7089 176.773 48.2514 176.553 49.6837L175.781 54.4214L180.078 52.2178C181.4 51.5567 182.943 51.5567 184.265 52.2178L188.562 54.4214L187.791 49.6837C187.57 48.2514 188.011 46.8191 189.113 45.7173L192.639 42.3018L187.791 41.6407C186.358 41.4203 185.036 40.5389 184.485 39.2168L182.282 34.9198L180.078 39.2168C179.417 40.5389 178.205 41.4203 176.773 41.6407L171.705 42.3018Z" fill="#FF6B00"/>
</svg>
