<svg width="228" height="176" viewBox="0 0 228 176" fill="none" xmlns="http://www.w3.org/2000/svg">
<path d="M115.062 82.8544V107.211C115.062 108.592 113.942 109.712 112.56 109.712C111.179 109.712 110.059 108.592 110.059 107.211V82.8544C110.059 81.4731 111.179 80.3533 112.56 80.3533C113.942 80.3533 115.062 81.4731 115.062 82.8544Z" stroke="#FF6B00" stroke-width="2"/>
<path d="M143.071 96.7917V107.211C143.071 108.592 141.951 109.712 140.57 109.712C139.188 109.712 138.069 108.592 138.069 107.211V96.7917C138.069 95.4103 139.188 94.2905 140.57 94.2905C141.951 94.2905 143.071 95.4103 143.071 96.7917Z" stroke="#FF6B00" stroke-width="2"/>
<path d="M84.5512 109.712C83.1729 109.712 82.05 108.594 82.05 107.228C82.05 105.862 83.1729 104.744 84.5512 104.744C85.9295 104.744 87.0524 105.862 87.0524 107.228C87.0524 108.594 85.9295 109.712 84.5512 109.712Z" stroke="#FF6B00" stroke-width="2"/>
<path d="M66.046 103.76V107.211C66.046 108.592 64.9262 109.712 63.5448 109.712C62.1635 109.712 61.0437 108.592 61.0437 107.211V103.76C61.0437 102.379 62.1635 101.259 63.5448 101.259C64.9262 101.259 66.046 102.379 66.046 103.76Z" stroke="#FF6B00" stroke-width="2"/>
<path d="M165.078 64.5312L142.975 85.3674C141.737 86.5329 139.833 86.6417 138.469 85.6243L113.038 66.6596L87.1671 95.6248C86.1157 96.8004 84.401 97.1305 82.9872 96.4261L70.817 90.3489C67.4133 93.6274 62.2248 94.2314 58.1527 91.8257C54.0788 89.42 52.1282 84.6001 53.3882 80.0559C54.6481 75.5116 58.8074 72.371 63.5446 72.3846C69.345 72.3846 74.048 77.0649 74.048 82.8376C74.0309 83.2612 73.9865 83.6831 73.9147 84.1016L83.7189 88.9811L109.945 59.6144C111.155 58.2618 113.205 58.0577 114.662 59.1431L140.307 78.2763L165.078 54.9306M21.5308 166.461H189.586C195.386 166.461 200.089 161.781 200.089 156.008V142.071C200.089 136.299 195.386 131.618 189.586 131.618H186.085V44.726L205.972 25.9773C210.588 28.2418 216.174 26.8671 219.195 22.7176C222.218 18.5697 221.794 12.8584 218.193 9.1971C214.593 5.53584 208.866 4.98971 204.632 7.90409C200.399 10.8202 198.894 16.3478 201.069 20.9907L186.085 35.1271V27.0883C186.085 21.3157 181.382 16.6353 175.581 16.6353H35.5354C29.7349 16.6353 25.0319 21.3157 25.0319 27.0883V131.618H21.5308C15.7303 131.618 11.0273 136.299 11.0273 142.071V156.008C11.0273 161.781 15.7303 166.461 21.5308 166.461ZM210.593 13.151C212.526 13.151 214.094 14.7111 214.094 16.6353C214.094 18.5595 212.526 20.1197 210.593 20.1197C208.659 20.1197 207.092 18.5595 207.092 16.6353C207.092 14.7111 208.659 13.151 210.593 13.151ZM32.0342 27.0883C32.0342 25.1641 33.6019 23.604 35.5354 23.604H175.581C177.515 23.604 179.082 25.1641 179.082 27.0883V41.7215L172.08 48.343V34.057C172.08 32.1328 170.512 30.5726 168.579 30.5726H42.5377C40.6042 30.5726 39.0365 32.1328 39.0365 34.057V121.165C39.0365 123.089 40.6042 124.649 42.5377 124.649H168.579C170.512 124.649 172.08 123.089 172.08 121.165V57.9284L179.082 51.3255V131.618H32.0342V27.0883ZM67.0457 82.8376C67.0457 84.7618 65.4781 86.3219 63.5446 86.3219C61.6111 86.3219 60.0434 84.7618 60.0434 82.8376C60.0434 80.9134 61.6111 79.3532 63.5446 79.3532C65.4781 79.3532 67.0457 80.9134 67.0457 82.8376ZM88.0526 138.587H123.064V142.071C123.064 143.995 121.496 145.555 119.563 145.555H91.5537C89.6202 145.555 88.0526 143.995 88.0526 142.071V138.587ZM18.0296 142.071C18.0296 140.147 19.5973 138.587 21.5308 138.587H81.0503V142.071C81.0503 147.844 85.7533 152.524 91.5537 152.524H119.563C125.363 152.524 130.066 147.844 130.066 142.071V138.587H189.586C191.519 138.587 193.087 140.147 193.087 142.071V156.008C193.087 157.933 191.519 159.493 189.586 159.493H21.5308C19.5973 159.493 18.0296 157.933 18.0296 156.008V142.071Z" stroke="black" stroke-width="2"/>
</svg>
