<svg width="216" height="216" viewBox="0 0 216 216" fill="none" xmlns="http://www.w3.org/2000/svg">
<path d="M104.5 132.7C102.6 132.7 101 131.1 101 129.2V104.8C101 102.9 102.6 101.3 104.5 101.3C106.4 101.3 108 102.9 108 104.8V129.2C108 131.1 106.5 132.7 104.5 132.7ZM104.5 103.3C103.7 103.3 103 104 103 104.8V129.2C103 130 103.7 130.7 104.5 130.7C105.3 130.7 106 130 106 129.2V104.8C106 104 105.4 103.3 104.5 103.3Z" fill="#FF6B00"/>
<path d="M132.5 132.7C130.6 132.7 129 131.1 129 129.2V118.8C129 116.9 130.6 115.3 132.5 115.3C134.4 115.3 136 116.9 136 118.8V129.2C136 131.1 134.5 132.7 132.5 132.7ZM132.5 117.3C131.7 117.3 131 118 131 118.8V129.2C131 130 131.7 130.7 132.5 130.7C133.3 130.7 134 130 134 129.2V118.8C134 117.9 133.4 117.3 132.5 117.3Z" fill="#FF6B00"/>
<path d="M76.5 132.7C74.6 132.7 73 131.1 73 129.2C73 127.3 74.6 125.7 76.5 125.7C78.4 125.7 80 127.3 80 129.2C80 131.1 78.5 132.7 76.5 132.7ZM76.5 127.7C75.7 127.7 75 128.4 75 129.2C75 130 75.7 130.7 76.5 130.7C77.3 130.7 78 130 78 129.2C78 128.4 77.4 127.7 76.5 127.7Z" fill="#FF6B00"/>
<path d="M55.5 132.7C53.6 132.7 52 131.1 52 129.2V125.7C52 123.8 53.6 122.2 55.5 122.2C57.4 122.2 59 123.8 59 125.7V129.2C59 131.1 57.4 132.7 55.5 132.7ZM55.5 124.2C54.7 124.2 54 124.9 54 125.7V129.2C54 130 54.7 130.7 55.5 130.7C56.3 130.7 57 130 57 129.2V125.7C57 124.9 56.3 124.2 55.5 124.2Z" fill="#FF6B00"/>
<path d="M181.6 189.4H13.5C7.2 189.4 2 184.3 2 178V164C2 157.7 7.2 152.5 13.5 152.5H16V49.0999C16 42.7999 21.2 37.5999 27.5 37.5999H167.5C173.8 37.5999 179 42.6999 179 49.0999V54.7999L191.8 42.6999C189.8 37.7999 191.5 32.0999 196 28.9999C200.6 25.7999 206.9 26.3999 210.8 30.3999C214.8 34.3999 215.2 40.6999 211.9 45.1999C208.7 49.5999 203 51.0999 198.1 49.0999L179 67.0999V152.6H181.5C187.8 152.6 193 157.7 193 164.1V178C193.1 184.3 187.9 189.4 181.6 189.4ZM13.5 154.6C8.3 154.6 4 158.8 4 164.1V178C4 183.2 8.3 187.5 13.5 187.5H181.6C186.8 187.5 191.1 183.3 191.1 178V164C191.1 158.8 186.8 154.5 181.6 154.5H177.1V66.2999L197.8 46.7999L198.4 47.0999C202.6 49.1999 207.6 47.8999 210.4 44.0999C213.1 40.2999 212.8 35.1999 209.5 31.8999C206.2 28.5999 201.1 28.0999 197.2 30.6999C193.4 33.2999 192 38.2999 194 42.4999L194.3 43.1999L177.1 59.3999V49.0999C177.1 43.8999 172.8 39.5999 167.6 39.5999H27.6C22.4 39.5999 18.1 43.7999 18.1 49.0999V154.6H13.5ZM181.6 182.5H13.5C11 182.5 9 180.5 9 178V164C9 161.5 11 159.5 13.5 159.5H74V164C74 169.2 78.3 173.5 83.5 173.5H111.5C116.7 173.5 121 169.3 121 164V159.5H181.5C184 159.5 186 161.5 186 164V178C186.1 180.5 184 182.5 181.6 182.5ZM13.5 161.6C12.1 161.6 11 162.7 11 164.1V178C11 179.4 12.1 180.5 13.5 180.5H181.6C183 180.5 184.1 179.4 184.1 178V164C184.1 162.6 183 161.5 181.6 161.5H123V164C123 170.3 117.8 175.5 111.5 175.5H83.5C77.2 175.5 72 170.4 72 164V161.5H13.5V161.6ZM111.5 168.5H83.5C81 168.5 79 166.5 79 164V159.5H116V164C116 166.5 114 168.5 111.5 168.5ZM81 161.6V164.1C81 165.5 82.1 166.6 83.5 166.6H111.5C112.9 166.6 114 165.5 114 164.1V161.6H81ZM172.1 154.6H23V49.0999C23 46.5999 25 44.5999 27.5 44.5999H167.5C170 44.5999 172 46.5999 172 49.0999V64.1999L163 72.6999V55.9999C163 54.5999 161.9 53.4999 160.5 53.4999H34.5C33.1 53.4999 32 54.5999 32 55.9999V143.1C32 144.5 33.1 145.6 34.5 145.6H160.5C161.9 145.6 163 144.5 163 143.1V79.4999L172 70.9999V154.6H172.1ZM25 152.6H170V75.5999L165 80.2999V143.1C165 145.6 163 147.6 160.5 147.6H34.5C32 147.6 30 145.6 30 143.1V55.9999C30 53.4999 32 51.4999 34.5 51.4999H160.5C163 51.4999 165 53.4999 165 55.9999V67.9999L170 63.2999V49.0999C170 47.6999 168.9 46.5999 167.5 46.5999H27.5C26.1 46.5999 25 47.6999 25 49.0999V152.6ZM76.5 119.8C75.8 119.8 75.1 119.6 74.5 119.3L63 113.5C59.3 116.7 53.9 117.1 49.7 114.6C45.3 112 43.1 106.7 44.5 101.7C45.9 96.6999 50.4 93.2999 55.6 93.2999C61.9 93.2999 67.1 98.3999 67.1 104.8C67.1 105 67.1 105.3 67.1 105.5L75.6 109.7L101.3 80.8999C102.9 79.0999 105.5 78.8999 107.4 80.2999L132.4 98.8999L156.6 76.0999L158 77.5999L132.6 101.5L106 81.8999C105 81.0999 103.5 81.2999 102.6 82.1999L75.9 112.2L64.7 106.6L64.8 105.9C64.9 105.5 64.9 105.1 64.9 104.8C64.9 99.5999 60.6 95.3999 55.4 95.3999C51.1 95.3999 47.4 98.1999 46.2 102.3C45.1 106.4 46.8 110.8 50.5 112.9C54.2 115.1 58.9 114.5 62 111.6L62.5 111.1L75.3 117.5C76.3 118 77.5 117.8 78.3 116.9L104.8 87.2999L131 106.8C132 107.5 133.3 107.5 134.2 106.6L156.3 85.7999L157.7 87.2999L135.6 108.1C134 109.6 131.6 109.7 129.8 108.4L105.1 89.9999L79.9 118.3C79 119.2 77.8 119.8 76.5 119.8ZM55.5 109.3C53 109.3 51 107.3 51 104.8C51 102.3 53 100.3 55.5 100.3C58 100.3 60 102.3 60 104.8C60 107.3 58 109.3 55.5 109.3ZM55.5 102.3C54.1 102.3 53 103.4 53 104.8C53 106.2 54.1 107.3 55.5 107.3C56.9 107.3 58 106.2 58 104.8C58 103.4 56.9 102.3 55.5 102.3ZM202.6 43.0999C200.1 43.0999 198.1 41.0999 198.1 38.5999C198.1 36.0999 200.1 34.0999 202.6 34.0999C205.1 34.0999 207.1 36.0999 207.1 38.5999C207.1 41.0999 205 43.0999 202.6 43.0999ZM202.6 36.0999C201.2 36.0999 200.1 37.1999 200.1 38.5999C200.1 39.9999 201.2 41.0999 202.6 41.0999C204 41.0999 205.1 39.9999 205.1 38.5999C205.1 37.1999 203.9 36.0999 202.6 36.0999Z" fill="white"/>
</svg>
