<svg xmlns="http://www.w3.org/2000/svg" aria-hidden="true" style="position:absolute;width:0;height:0;overflow:hidden"><defs><symbol id="icon-astro" viewBox="0 0 32 32"><path fill="#fff" d="m24.529 14.219-.125.093.124-.093zm-1.058-.624-.022.154.021-.154zm-1.194.312zm-1.116.85-.094-.123-.008.006-.007.007.11.11zm0 .001.093.125.009-.007.008-.008-.11-.11zm-1.691 1.256-.057.144.08.032.069-.052-.093-.125zm-1.21-.479-.063-.142-.337.15.343.136.057-.144zm-7.742-2.271-.001.155.29.003-.159-.243-.13.085zm-2.462-.022.001-.155h-.001v.155zm-.025.005.006.155h.004l-.011-.155zm-.139.027-.052-.146-.002.001.054.146zm-.034.012.06.143.003-.001.003-.001-.066-.14zm-.017.005.069.139h.001l-.069-.139zM4.96 14.707l.066.141.001-.001.001-.001-.069-.139zm-.001 0-.066-.141-.001.001.067.14zm-1.687.807.062.143.003-.001.003-.001-.067-.14zm-.056.032.086.13-.086-.129zm-.533 2.035zm.941.788-.046.148.046-.148zm1.228-.114-.073-.137.073.137zm1.237-.654-.071-.138-.002.001.073.137zm2.017-1.037-.001-.155h-.037l-.033.017.071.138zm1.209-.007.109.11.271-.268-.381.002.001.155zm-4.848 4.802-.109-.11-.003.003-.003.003.116.104zm-.002.001-.103-.116-.003.003-.003.003.109.11zm-1.193 1.182zm0 2.089-.109.11.109-.11zm2.103 0 .109.111-.109-.11zm1.171-1.16-.093-.125-.009.007-.008.008.109.11zm1.551-1.153.109-.11-.095-.094-.107.08.093.125zm.802.795.109.11.111-.11-.111-.11-.109.11zM7.33 24.669l-.109-.11-.003.003-.003.004.116.103zm-.002.001-.103-.116-.003.003-.003.003.109.11zm-1.193 1.182zm0 2.089-.109.11.109-.11zm2.103 0 .109.11-.109-.11zm3.103-3.074.109.11-.11-.11zm0-.001-.109-.111-.004.003-.003.004.116.103zm.9-.887.109.111.112-.11-.111-.111-.11.11zm-.003-.003-.11-.11-.111.11.111.11.11-.11zm.019-.014.113.106.001-.001-.114-.105zm4.603-5.016.022-.154-.081-.012-.055.06.114.105zm3.093.438.023-.154h-.001l-.022.154zm.234-.03-.053-.146h-.002l.055.145zm.044-.021-.069-.139-.001.001.071.138zm.051-.024-.086-.13h-.001l.087.129zm2.863-1.891.086.13.002-.001-.087-.129zm.027-.026.094.124.001-.001.001-.001-.096-.122zm.036-.023-.106-.114-.002.001.108.112zm1.132-1.056zM4.406 17.421l-.073-.137.073.137zm-.497.046.047-.148h-.001l-.046.148zm-.38-.318zm.191-.8-.067-.14-.013.006-.011.008.091.125zm1.17-.56.147-.05-.057-.165-.157.075.067.14zm.4 1.164.073.137.117-.062-.043-.126-.147.05zM7.522 15.8l.071.138.082-.042.002-.092-.155-.004zm-1.379.709-.147.05.058.17.16-.082-.071-.138zm-.391-1.137-.069-.139-.123.06.045.13.147-.05zm1.805-.887.155.004.007-.257-.231.113.069.139zM20.442 12.2l-.064.142.137.062.067-.135-.14-.069zm-3.725-1.684-.155.012.007.092.084.038.064-.142zm-.703-1.231-.149-.045-.033.108.093.064.089-.127zm1.305-4.309.047-.148-.15-.047-.046.151.149.045zm-.931-.201.149.045.053-.176-.183-.023-.019.154zM15.112 8.99l-.005.155.119.003.034-.114-.149-.045zm1.391 2.467.064-.142-.128-.058-.07.121.134.078zm3.441 1.556.125.093.116-.155-.176-.08-.064.142zM4.704 23.96l.109.111-.109-.11zm-.761.001-.11.11.001.001.109-.111zm0-.749.109.111-.109-.11zm.857-.849.109-.11-.109-.108-.109.108.109.11zm.759.751.109.11.111-.11-.111-.11-.109.11zm2.009 4.157.109.111-.109-.11zm-.762 0-.11.11.109-.111zm0-.748.109.111-.109-.11zm.858-.851.109-.11-.109-.108-.109.108.109.11zm.759.752.109.11.111-.11-.111-.11-.109.11zm2.247-2.229.103.116.003-.003.003-.003-.109-.111zm-.001.001.109.11-.11-.11zm-1.573 1.56-.109.11.109.108.109-.108-.109-.11zm-.759-.751-.109-.11-.111.11.111.11.109-.11zm1.571-1.556.109.11.046-.046v-.065h-.155zm0-.001-.11-.11-.046.046v.065h.155zm.002-.001.103.116.003-.003.003-.003-.11-.11zm.08-.12.138.072.001-.001.001-.001-.139-.07zm.023-.035.144.059v-.001l-.144-.058zm.023-.114.154.023v-.002l-.154-.02zm-.006-.158-.152.031v.002l.152-.032zm-.017-.085.144-.058v-.001l-.144.059zm-.081-.122.119-.1-.001-.002-.117.102zm-.022-.033.11-.11-.045-.045h-.064v.155zm-.001 0-.103.116.044.039h.059v-.155zm-.001-.002.11-.11-.109.11zm-1.432-1.419-.11.11.109-.11zm-.051-.034-.095.123.001.001.001.001.093-.125zm-.078-.051zm-.083-.029-.042.15h.002l.04-.15zm-.092-.017.012-.155h-.002l-.01.155zm-.085.004-.018-.154h-.001l.018.154zm-.092.018.047.148h.001l-.047-.148zm-.084.04.076.135-.077-.135zm-.055.025-.092-.125.093.125zm-1.58 1.174-.109.11.095.094.107-.08-.093-.125zm-.802-.795-.109-.11-.112.11.111.11.109-.11zm2.137-2.116.109-.111-.109-.107-.109.108.109.11zm3.886 3.802.109.111.113-.111-.113-.111-.109.111zm5.249-5.406.022-.154h-.001l-.021.154zm-.041.002.011-.155h-.002l-.008.155zm-.102.006-.025-.153h-.002l.027.153zm-.079.019.05.147h.001l-.051-.147zm-.086.042.08.133-.08-.133zm-.074.054.102.117.002-.001.001-.001-.105-.115zm-.035.026-.114-.105.114.105zm-4.187 4.563-.109.111.115.112.108-.118-.114-.105zm-3.856-3.774-.109-.11-.112.111.113.11.109-.111zm2.524-2.499.109.11-.109-.11zm.002-.669.11-.11-.11.11zm-.34-.139h-.155v.156l.156-.001-.001-.155zm0 0h.155v-.156l-.156.001.001.155zm-1.977.012-.155-.003-.003.159.159-.001-.001-.155zm.025-1.426.001-.155-.154-.001-.003.154.155.003zm2.766.024.111-.109-.045-.046-.064-.001-.001.155zm5.578 1.754.097-.122-.055-.044-.07.013.028.153zm.116.075-.058.144h.001l.057-.144zm2.147.851.152-.031-.017-.082-.078-.031-.057.144zm.294 1.458-.022.154.218.031-.044-.215-.152.031zm.926-.221-.152.031.046.226.192-.127-.086-.13zm-.279-1.381-.093-.125-.079.059.02.097.152-.031zm1.288-.958.124-.094-.093-.123-.124.092.093.125zm.844 1.114.086.13.138-.091-.1-.132-.124.094zm1.491-1.285zm-.747.696-.124.094.104.137.126-.117-.106-.114zm-.829-1.096-.094-.124-.123.094.093.123.124-.094zm.741-.565.094.123-.094-.123zm.483-.127.022-.154h-.002l-.02.154zm.428.252.124-.093-.124.093zm-9.139 3.325zm-1.91-1.892-.11.11.109-.11zm-.67 0zm-1.909 1.892-.109-.11h-.001l.11.11zm0 .67zm1.909 1.892-.109.11.109-.11zm.67 0-.109-.11.11.11zm1.91-1.892.109.11-.11-.11zm-2.245.889-.109.11.109.108.109-.108-.109-.11zm-1.235-1.224-.109-.11-.111.11.111.11.109-.11zm1.235-1.224.109-.11-.109-.108-.109.108.109.11zm1.236 1.224.109.11.111-.11-.111-.11-.109.11zm4.183-12.281.037-.151-.15-.037-.038.15.151.038zm-.23.918-.151-.038-.038.151.151.037.037-.151zm1.548 1.906h-.155v.155h.155v-.155zm.951 0v.155h.155v-.155h-.155zm-.951.945v-.155h-.155v.155h.155zm.951 0h.155v-.155h-.155v.155zm0 .946v.155h.155v-.155h-.155zm-.951 0h-.155v.155h.155v-.155zm5.534 3.251a1.74 1.74 0 0 0-1.162-.686l-.043.308c.386.054.725.254.956.564l.249-.186zm-1.162-.686a1.749 1.749 0 0 0-1.31.342l.188.247a1.43 1.43 0 0 1 1.078-.282l.044-.308zm-1.309.342-1.115.851.188.247 1.115-.851-.188-.247zm-1.131.864v.001l.219.22v-.001l-.219-.22zm.016-.014-1.691 1.256.185.249 1.691-1.256-.185-.249zm-1.541 1.237-1.21-.479-.114.289 1.21.48.114-.289zm-1.203-.193c2.21-.987 3.757-3.188 3.757-5.745h-.311c0 2.428-1.469 4.522-3.573 5.462l.127.284zm3.757-5.746c0-3.477-2.853-6.303-6.358-6.303v.311c3.336 0 6.047 2.689 6.047 5.992h.311zm-6.358-6.302c-3.505 0-6.358 2.826-6.358 6.303h.311c0-3.302 2.712-5.992 6.047-5.992v-.311zM9.365 9.931c0 1.26.379 2.432 1.023 3.417l.26-.17a5.91 5.91 0 0 1-.973-3.247h-.311zm1.155 3.177-2.463-.021-.003.311 2.463.021.003-.311zm-2.464-.021v.311-.311zm-.004 0a.182.182 0 0 0-.055.009h-.001l.003-.001a.068.068 0 0 1 .022-.003l.022.31a.165.165 0 0 0 .032-.005l.008-.002.002-.001h.001-.002l-.006.002c-.006.001-.015.003-.026.003v-.311zm-.027.004a.626.626 0 0 0-.184.036l.104.293a.351.351 0 0 1 .092-.019l-.012-.31zm-.187.037h-.001l-.008.002a.337.337 0 0 0-.037.014l.133.281-.004.002.004-.001.006-.002.017-.006-.109-.291zm-.04.015.012-.004c.002 0 .003-.001 0 0-.004.001-.02.005-.038.014l.138.278-.016.007-.004.001h-.001.003l.006-.002a.611.611 0 0 0 .02-.007l-.12-.287zm-.025.009-2.881 1.415.137.279 2.881-1.415-.137-.279zm-2.879 1.414h-.001l.132.281h.001l-.132-.281zm-.002.001-1.687.807.134.28 1.687-.807-.134-.28zm-1.681.805a.598.598 0 0 0-.08.044l.172.259a.159.159 0 0 1 .032-.018l-.124-.285zm-.08.044a1.73 1.73 0 0 0-.586 2.236l.276-.142a1.419 1.419 0 0 1 .481-1.835l-.172-.259zm-.586 2.236c.215.417.583.725 1.033.865l.093-.297a1.425 1.425 0 0 1-.849-.711l-.276.142zm1.033.865c.173.054.35.08.526.08v-.311c-.145 0-.291-.022-.434-.066l-.092.297zm.526.081c.284 0 .564-.069.821-.205l-.146-.274a1.443 1.443 0 0 1-.675.169v.311zm.821-.205 1.237-.654-.145-.275-1.237.654.145.275zm1.235-.654 2.017-1.036-.142-.276-2.017 1.036.142.276zm1.947-1.019 1.209-.007-.002-.311-1.209.007.002.311zm1.099-.273-4.849 4.802.219.221 4.849-4.802-.219-.221zm-4.855 4.808.015-.015a.072.072 0 0 1 .015-.011l.017-.01c.001-.001.001 0 0 0l-.002.001-.008.004a.154.154 0 0 0-.027.019l.206.233a.15.15 0 0 1-.026.019l-.007.004-.001.001.018-.01a.15.15 0 0 0 .031-.027l-.232-.207zm.005-.006-1.193 1.182.219.221 1.193-1.182-.219-.221zm-1.193 1.182a1.614 1.614 0 0 0-.483 1.154h.311c0-.353.138-.684.391-.934l-.219-.221zm-.483 1.155c0 .436.172.847.483 1.155l.219-.221a1.306 1.306 0 0 1-.391-.935H2.68zm.483 1.155c.32.317.74.475 1.16.475v-.311c-.342 0-.682-.129-.941-.385l-.219.221zm1.16.476c.42 0 .84-.159 1.161-.475l-.218-.221c-.26.257-.6.386-.943.386v.311zm1.161-.476 1.171-1.16-.219-.221-1.171 1.161.219.221zm1.154-1.146 1.551-1.152-.185-.249-1.551 1.152.185.249zm1.349-1.167.803.796.219-.221-.803-.795-.219.221zm.803.575-1.57 1.555.219.221 1.57-1.555-.219-.221zm-1.576 1.562.015-.015c.005-.005.01-.008.015-.011l.017-.01s.001 0 0 0l-.002.001-.008.004a.154.154 0 0 0-.027.019l.206.233a.15.15 0 0 1-.026.019l-.007.004-.001.001.018-.01a.15.15 0 0 0 .031-.027l-.232-.207zm.005-.006-1.193 1.182.219.221 1.193-1.182-.219-.221zm-1.193 1.182a1.614 1.614 0 0 0-.483 1.154h.311c0-.353.138-.684.391-.934l-.219-.221zm-.483 1.155c0 .436.172.847.483 1.155l.219-.22a1.306 1.306 0 0 1-.391-.935h-.311zm.483 1.155c.32.317.741.475 1.16.475v-.311c-.342 0-.683-.129-.942-.385l-.219.221zm1.161.476c.42 0 .841-.159 1.161-.475l-.218-.221a1.34 1.34 0 0 1-.942.386v.311zm4.263-3.549.012-.013c.004-.004.007-.009.009-.013l.009-.015-.001.002-.004.007-.007.012a.064.064 0 0 1-.01.013l-.232-.207-.011.013c-.004.004-.006.008-.008.012l-.004.008-.001.002c0 .001 0 0 0 0l.002-.005.006-.01.009-.013.011-.013.219.22zm0-.001.9-.887-.218-.221-.9.887.218.221zm.901-1.108-.003-.003-.219.22.003.003.219-.22zm-.004.217a.096.096 0 0 1-.02.016l-.004.003h.001c.002 0 .008-.005.016-.01.008-.006.019-.014.03-.026l-.226-.213a.096.096 0 0 1 .026-.021h.001l-.004.002a.224.224 0 0 0-.038.03l.219.22zm.025-.019 4.603-5.017-.229-.21-4.603 5.017.229.21zm4.466-4.968 3.093.438.044-.308-3.093-.438-.044.308zm3.092.438a.56.56 0 0 0 .09.006v-.311a.304.304 0 0 1-.044-.003l-.046.307zm.09.007a.64.64 0 0 0 .222-.044l-.11-.291a.323.323 0 0 1-.112.024v.311zm.219-.044c.028-.01.053-.024.062-.029l-.141-.277-.012.006-.008.004-.007.003.105.292zm.061-.028.003-.001.005-.002.008-.003c.011-.005.031-.013.052-.027l-.173-.258.002-.001-.005.002-.008.003-.023.01.139.278zm.068-.033 2.863-1.891-.171-.259-2.863 1.892.171.259zm2.865-1.892a.218.218 0 0 0 .044-.041l.001-.001a.056.056 0 0 1-.013.011l-.187-.248c-.012.009-.02.018-.026.024l-.011.013.002-.002c.003-.003.008-.008.016-.013l.174.257zm.035-.033-.01.007c-.001 0 0 0 0 0l.004-.002a.256.256 0 0 0 .053-.037l-.215-.224.016-.012.002-.001-.005.003-.009.005a.196.196 0 0 0-.028.019l.192.244zm.046-.031 1.133-1.056-.212-.227-1.133 1.056.212.227zm1.132-1.056a1.727 1.727 0 0 0 .207-2.301l-.249.186c.434.58.361 1.392-.17 1.887l.212.227zm-20.113.857a.484.484 0 0 1-.378.035l-.093.296a.79.79 0 0 0 .617-.057l-.146-.274zm-.378.034a.482.482 0 0 1-.288-.24l-.276.143c.098.19.266.331.472.394l.092-.297zm-.288-.24a.476.476 0 0 1 .144-.603l-.183-.251a.786.786 0 0 0-.238.997l.276-.143zm.12-.588 1.171-.56-.134-.28-1.171.56.134.28zm1.431.326-.884.468.145.275.884-.468-.145-.275zm2.233-1.154-1.38.709.142.276 1.38-.709-.142-.276zm-1.631-.151 1.806-.887-.137-.279-1.806.887.137.279zm1.582-1.031-.035 1.316.311.008.035-1.316-.311-.008zm13.419-4.55c0 .789-.189 1.534-.518 2.201l.279.137c.348-.707.55-1.498.55-2.338h-.311zm-.315 2.128-3.726-1.684-.128.283 3.726 1.684.128-.283zm-3.634-1.554a1.805 1.805 0 0 0-.768-1.346l-.177.255c.361.251.601.654.636 1.115l.31-.024zm-.709-1.174 1.305-4.309-.297-.09-1.304 4.309.297.09zm1.109-4.206c2.057.651 3.549 2.56 3.549 4.806h.311c0-2.388-1.586-4.412-3.766-5.102l-.094.296zM10.627 9.93c0-2.781 2.285-5.046 5.097-5.046v-.311c-2.98 0-5.408 2.402-5.408 5.357h.311zm5.097-5.046c.217 0 .43.018.645.045l.039-.308a5.436 5.436 0 0 0-.683-.048v.311zm.515-.154-1.276 4.215.297.09 1.276-4.215-.297-.09zm-1.122 4.105-.007-.001c-.008-.001-.027-.004-.048-.004v.311c-.004 0-.006-.001.003.001l.016.002a.176.176 0 0 0 .027.002l.009-.311zm-.056-.006a1.819 1.819 0 0 0-1.824 1.81h.311c0-.826.678-1.5 1.513-1.5v-.311zm-1.824 1.811c0 1 .819 1.81 1.824 1.81v-.311a1.508 1.508 0 0 1-1.513-1.5h-.311zm1.824 1.81a1.82 1.82 0 0 0 1.576-.915l-.269-.156c-.263.453-.748.76-1.308.76v.311zm1.378-.851 3.441 1.556.128-.283-3.441-1.556-.128.283zm3.381 1.321a5.104 5.104 0 0 1-4.096 2.057v.311a5.413 5.413 0 0 0 4.345-2.181l-.249-.186zm-4.096 2.057c-2.812 0-5.097-2.265-5.097-5.046h-.311c0 2.955 2.427 5.357 5.407 5.357v-.311zm-.1-4.337a.56.56 0 0 1-.563.554v.311a.87.87 0 0 0 .873-.865h-.311zm-.563.554a.56.56 0 0 1-.563-.554h-.311a.87.87 0 0 0 .873.865v-.311zm-.563-.554a.56.56 0 0 1 .563-.554v-.311a.87.87 0 0 0-.873.865h.311zm.563-.554a.56.56 0 0 1 .563.554h.311a.87.87 0 0 0-.873-.865v.311zM4.595 23.85a.388.388 0 0 1-.543 0l-.218.221c.27.266.708.267.979-.001l-.218-.221zm-.542.001a.37.37 0 0 1-.111-.265h-.311c0 .183.072.356.203.485l.219-.22zm-.112-.265a.37.37 0 0 1 .11-.263l-.218-.221a.676.676 0 0 0-.203.484h.311zm.111-.263.857-.85-.219-.221-.857.85.219.221zm.639-.85.758.751.219-.221-.758-.751-.219.221zm.758.531-.854.846.219.221.854-.846-.219-.221zm2.01 4.156a.39.39 0 0 1-.544.001l-.218.221a.7.7 0 0 0 .98 0l-.218-.221zm-.543.001a.37.37 0 0 1-.111-.265h-.311c0 .183.072.356.203.485l.219-.22zm-.111-.265c0-.099.039-.192.111-.263l-.218-.221a.676.676 0 0 0-.203.484h.311zm.11-.263.858-.85-.219-.221-.858.85.219.221zm1.398-.32-.855.847.219.221.855-.847-.219-.221zm2.254-2.234.013-.01.011-.007.007-.004.002-.001c.001 0 0 0 0 0l-.015.009-.013.009c-.005.003-.009.008-.013.012l.219.22-.013.011-.013.009-.01.006-.005.002.002-.001.008-.004.012-.008.013-.01-.206-.233zm-.008.007-1.573 1.561.219.221 1.572-1.561-.219-.221zm-2.112 1.029 1.571-1.556-.219-.221-1.571 1.556.219.221zm1.617-1.666h-.311.311zm-.046.109-.013.011-.013.009-.01.006-.005.002.002-.001.008-.004.012-.007.013-.01-.206-.233.013-.01.011-.007.007-.004.002-.001c.001 0 0 0 0 0l-.015.009-.013.009a.049.049 0 0 0-.013.012l.219.22zm.001-.001a.608.608 0 0 0 .108-.158l-.276-.143a.313.313 0 0 1-.052.082l.219.22zm.109-.16c-.003.007-.006.011-.007.011l.003-.004.013-.018c.005-.008.013-.02.019-.035l-.287-.118.009-.017c.002-.002.002-.003 0 0l-.01.013a.19.19 0 0 0-.018.029l.278.14zm.029-.047c.024-.059.03-.13.033-.149l-.307-.046c-.009.057-.008.065-.013.079l.288.117zm.033-.152c0 .002-.001.003 0 0l.004-.014c.003-.012.01-.039.01-.071h-.311c0-.01.002-.015 0-.007l-.002.007-.003.011a.224.224 0 0 0-.006.033l.308.04zm.013-.085a.34.34 0 0 0-.011-.083l-.011-.043-.304.064.007.03.005.02.002.011h.311zm-.021-.124-.005-.035a.381.381 0 0 0-.02-.077l-.288.116.001.007.003.02.005.031.305-.061zm-.025-.112c-.028-.069-.074-.125-.106-.164l-.238.2a.346.346 0 0 1 .056.08l.288-.117zm-.107-.166.009.013-.002-.003a.217.217 0 0 0-.038-.052l-.219.22c-.007-.007-.011-.013-.013-.016l-.002-.003.003.005a.09.09 0 0 0 .005.009c.005.007.011.018.021.029l.235-.203zm-.14-.087h-.001v.311h.001v-.311zm.102.039c.011.009.019.019.025.028l.012.021c.003.005.004.01.005.013l.002.005-.001-.002-.004-.011a.16.16 0 0 0-.034-.049l-.219.22a.156.156 0 0 1-.032-.048l-.004-.01-.001-.002s0-.001 0 0l.002.005.006.013.013.022a.153.153 0 0 0 .025.028l.206-.233zm.006.004-1.432-1.419-.219.221 1.432 1.419.219-.221zm-1.432-1.418a.237.237 0 0 0-.059-.043l-.011-.006.001.001-.186.249a.303.303 0 0 0 .028.018l.009.005.006.003c.007.004 0 .001-.008-.007l.219-.22zm-.066-.047a.585.585 0 0 0-.104-.068l-.137.279a.257.257 0 0 1 .051.035l.19-.246zm-.105-.068a.575.575 0 0 0-.111-.039l-.08.3a.318.318 0 0 1 .055.018l.137-.279zm-.109-.038a.647.647 0 0 0-.122-.023l-.023.31a.294.294 0 0 1 .061.012l.084-.299zm-.124-.023c-.045-.003-.084.002-.113.005l.035.309c.029-.003.044-.005.057-.004l.02-.31zm-.113.005a.702.702 0 0 0-.122.024l.095.296a.372.372 0 0 1 .063-.012l-.037-.308zm-.121.024a.56.56 0 0 0-.114.053l.153.27a.32.32 0 0 1 .054-.027l-.094-.296zm-.114.052.003-.002-.011.004a.235.235 0 0 0-.063.034l.185.25c-.009.007-.017.009-.009.006l.006-.003a.21.21 0 0 0 .041-.019l-.153-.271zm-.07.036-1.58 1.174.185.249 1.58-1.174-.185-.249zm-1.378 1.188-.803-.795-.219.221.803.795.219-.221zm-.803-.574 2.138-2.116-.219-.221-2.138 2.116.219.221zm1.92-2.115 3.885 3.802.217-.222-3.885-3.802-.217.222zm3.885 3.581-.826.815.218.221.826-.815-.218-.221zm5.379-5.45c-.016-.002-.03-.002-.041-.001l-.022.002h-.003.015l-.021.31c.015.001.027 0 .036-.001l.017-.002h-.002l-.021-.001.042-.308zm-.053.001a.607.607 0 0 0-.136.008l.05.307a.28.28 0 0 1 .069-.004l.017-.31zm-.138.008a.66.66 0 0 0-.103.025l.103.293a.279.279 0 0 1 .054-.012l-.053-.306zm-.102.025a.568.568 0 0 0-.116.056l.161.266a.254.254 0 0 1 .056-.027l-.101-.294zm-.116.056a.627.627 0 0 0-.099.073l.21.229a.309.309 0 0 1 .05-.036l-.161-.266zm-.096.07.007-.006-.001.001-.002.001-.003.002c-.007.005-.029.018-.049.04l.228.211c-.005.006-.01.009-.013.012s-.004.003-.002.001l.002-.001.003-.002.008-.005a.275.275 0 0 0 .025-.019l-.204-.235zm-.048.038-4.186 4.562.229.21 4.186-4.562-.229-.21zm-3.963 4.556L8.395 18.8l-.217.222 3.856 3.774.217-.222zm-3.856-3.552 2.524-2.499-.219-.221-2.524 2.499.219.221zm2.525-2.499a.627.627 0 0 0 .002-.889l-.22.22a.317.317 0 0 1-.001.449l.219.221zm.001-.889a.634.634 0 0 0-.45-.184l.001.311c.084 0 .167.031.23.093l.219-.22zm-.294-.029h-.311.311zm-.156-.156-1.977.012.002.311 1.977-.012-.002-.311zm-1.821.17.025-1.425-.311-.005-.025 1.425.311.005zm-.132-1.272 2.766.024.003-.311-2.766-.024-.003.311zm2.657-.023a6.36 6.36 0 0 0 4.549 1.909v-.311a6.05 6.05 0 0 1-4.328-1.816l-.222.218zm4.549 1.909c.4 0 .79-.041 1.168-.111l-.057-.305a6.101 6.101 0 0 1-1.112.106v.311zm1.043-.143c.031.025.084.07.154.098l.116-.288a.327.327 0 0 1-.077-.053l-.193.243zm.155.099 2.147.851.114-.289-2.147-.851-.114.289zm2.521 2.01-2.675-.379-.044.308 2.675.379.044-.308zm1.056-.098-.279-1.381-.304.061.279 1.381.304-.061zm-.339-1.226 1.289-.957-.185-.249-1.289.958.185.249zm1.954-.098-1.853 1.225.171.259 1.853-1.225-.171-.259zm1.471-1.269-.747.696.212.227.747-.696-.212-.227zm-.517.716-.83-1.096-.248.188.83 1.096.248-.188zm-.859-.879.741-.565-.188-.247-.741.565.188.247zm.741-.565a.5.5 0 0 1 .369-.096l.04-.308a.81.81 0 0 0-.598.157l.189.247zm.368-.096a.486.486 0 0 1 .325.191l.249-.186a.799.799 0 0 0-.531-.313l-.043.308zm.325.191a.475.475 0 0 1-.057.633l.212.227a.786.786 0 0 0 .095-1.046l-.249.186zm-8.906 3.121-1.909-1.892-.219.221 1.909 1.892.219-.221zm-1.909-1.891a.633.633 0 0 0-.89 0l.219.221a.321.321 0 0 1 .452 0l.219-.22zm-.89 0-1.909 1.891.219.221 1.909-1.892-.219-.221zm-1.909 1.892a.628.628 0 0 0-.185.445h.311c0-.084.034-.165.094-.225l-.22-.22zm-.185.445c0 .167.066.327.186.446l.219-.221a.315.315 0 0 1-.094-.225h-.311zm.185.446 1.909 1.891.219-.221-1.909-1.892-.219.221zm1.909 1.891a.632.632 0 0 0 .445.183v-.311a.319.319 0 0 1-.226-.093l-.219.221zm.445.183c.16 0 .322-.061.445-.183l-.219-.22a.32.32 0 0 1-.226.092v.311zm.445-.183 1.909-1.891-.219-.221-1.909 1.892.219.221zm1.909-1.892a.63.63 0 0 0 .186-.445h-.311a.319.319 0 0 1-.094.225l.219.22zm.186-.445a.625.625 0 0 0-.186-.445l-.219.221c.06.06.094.141.094.225h.311zm-2.43 1.114-1.236-1.224-.219.221 1.236 1.224.219-.221zm-1.236-1.004 1.236-1.224-.219-.221-1.236 1.224.219.221zm1.017-1.224 1.236 1.224.219-.221-1.236-1.224-.219.221zm1.236 1.004-1.236 1.224.219.221 1.236-1.224-.219-.221zm4.141-12.209-.23.918.301.075.23-.918-.301-.075zm-.116 1.107c.023.006.387.099.742.367.35.265.689.695.689 1.387h.311c0-.813-.404-1.327-.812-1.635a2.576 2.576 0 0 0-.854-.421l-.075.302zm1.585 1.91h.951v-.311h-.951v.311zm1.106-.155c0-1.892-1.57-2.772-2.387-2.974l-.075.302c.752.186 2.151.988 2.151 2.673h.311zm-1.106 1.101h.95v-.311h-.95v.311zm.796-.156v.946h.311V9.93h-.311zm.155.791h-.95v.311h.95v-.311zm-.795.155V9.93h-.311v.946h.311zM8.348 28.051l3.102-3.074-.219-.221-3.102 3.074.219.221zM4.743 15.84l.4 1.164.294-.101-.4-1.164-.294.101zm1.547.619-.391-1.138-.294.101.391 1.138.294-.101zm1.265 9.324.759.751.219-.221-.759-.751-.219.221zm1.65-.137-.759-.751-.219.221.759.751.219-.221zm9.769-8.72.295 1.457.304-.061-.295-1.457-.304.061zm2.258-1.039.843 1.114.248-.188-.843-1.114-.248.188z" style="fill:var(--color1, #fff)"/><path fill="#ff6b00" d="m29.935 6.285.148-.048-.148.049zm-.382-.32.022-.154-.022.154zM27.86 5.72l-.139.069.036.073.081.012.022-.154zm-.758-1.525-.139.069.139-.069zm-.849 0 .139.069-.139-.069zm-.758 1.525.022.154.081-.012.036-.073-.139-.069zm-1.693.245-.022-.154.022.154zm-.383.32-.147-.049v.001l.148.048zm.12.481.108-.112-.108.112zm1.226 1.188.153.026.014-.081-.059-.057-.108.112zm-.289 1.677zm.188.46-.091.126.091-.126zm.498.035-.072-.138.072.138zm1.515-.792.072-.138-.072-.038-.072.038.072.138zm1.515.792.072-.138-.072.138zm.499-.035-.091-.126.091.126zm.188-.46-.153.026.153-.027zm-.29-1.677-.108-.112-.059.057.014.081.153-.026zm1.226-1.188.108.112-.108-.111zm-2.064.688.108.112-.108-.112zm-.135.416.153-.026-.153.027zm.169.982-.072.138.278.145-.053-.309-.153.026zm-.887-.464-.072.138.072-.138zm-.441 0-.072-.138.072.138zm-.887.464-.153-.026-.053.309.278-.145-.072-.138zm.169-.982-.153-.027.153.026zm-.136-.416.108-.111-.108.112zm-.718-.696-.022-.154-.313.045.227.22.108-.112zm.992-.143-.022-.154.022.154zm.356-.257zm.444-.893.139-.069-.139-.28-.139.28.139.069zm.443.893-.139.069.139-.069zm.357.257.022-.154-.022.154zm.992.143.108.112.227-.22-.313-.045-.022.154zm-4.658 13.624v-.155h-.155v.155h.155zm.945 0h.155v-.155h-.155v.155zm0 2.82v.155h.155v-.155h-.155zm-.945 0h-.155v.155h.155v-.155zm1.891-1.88h.155v-.155h-.155v.155zm0 .94v.155h.155v-.155h-.155zm-2.837-.94v-.155h-.155v.155h.155zm0 .94h-.155v.155h.155v-.155zm-2.365 3.29v-.155h-.155v.155h.155zm.946 0h.155v-.155h-.155v.155zm0 2.819v.155h.155v-.155h-.155zm-.946 0h-.155v.155h.155v-.155zm1.892-1.88h.155v-.155h-.155v.155zm0 .94v.155h.155v-.155h-.155zm-2.837-.94v-.155H19.4v.155h.155zm0 .94H19.4v.155h.155v-.155zm-4.729-3.759v-.155h-.155v.155h.155zm.945 0h.155v-.155h-.155v.155zm0 2.819v.155h.155v-.155h-.155zm-.945 0h-.155v.155h.155v-.155zm1.891-1.879h.155v-.155h-.155v.155zm0 .94v.155h.155v-.155h-.155zm-2.837-.94v-.155h-.155v.155h.155zm0 .94h-.155v.155h.155v-.155zM5.841 7.693v-.155h-.155v.155h.155zm.946 0h.155v-.155h-.155v.155zm0 2.82v.155h.155v-.155h-.155zm-.946 0h-.155v.155h.155v-.155zm1.891-1.88h.155v-.155h-.155v.155zm0 .94v.155h.155v-.155h-.155zm-2.837-.94v-.155H4.74v.155h.155zm0 .94H4.74v.155h.155v-.155zm25.187-3.337a.628.628 0 0 0-.507-.425l-.045.307c.12.017.219.101.256.214l.295-.097zm-.506-.425-1.694-.245-.045.307 1.694.245.044-.307zm-1.577-.16-.758-1.526-.278.138.758 1.526.278-.138zm-.758-1.525c-.112-.226-.348-.328-.563-.328s-.451.101-.563.328l.279.138c.047-.095.156-.155.285-.155s.238.06.285.155l.279-.138zm-1.127-.001-.758 1.526.278.138.758-1.526-.278-.138zm-.641 1.441-1.694.245.044.308 1.694-.245-.045-.307zm-1.694.245a.628.628 0 0 0-.507.425l.295.098a.32.32 0 0 1 .257-.215l-.045-.307zm-.507.426a.624.624 0 0 0 .16.642l.216-.224a.313.313 0 0 1-.08-.322l-.295-.096zm.159.641 1.226 1.188.216-.223-1.226-1.188-.216.223zm1.181 1.05-.289 1.677.306.053.289-1.677-.306-.053zm-.289 1.677a.626.626 0 0 0 .25.612l.182-.252a.314.314 0 0 1-.126-.308l-.306-.053zm.25.611c.195.141.45.158.662.047l-.144-.275a.317.317 0 0 1-.335-.024l-.182.252zm.661.048 1.515-.792-.144-.275-1.515.792.144.275zm1.371-.792 1.515.792.144-.275-1.515-.792-.144.275zm1.515.792a.634.634 0 0 0 .293.072v-.311a.32.32 0 0 1-.148-.036l-.144.275zm.293.072c.129 0 .26-.04.369-.119l-.182-.251a.318.318 0 0 1-.187.06v.311zm.369-.12a.624.624 0 0 0 .25-.612l-.306.053a.314.314 0 0 1-.126.307l.182.252zm.25-.612-.289-1.677-.306.053.289 1.677.306-.053zm-.335-1.538 1.226-1.188-.216-.223-1.226 1.188.216.223zm1.227-1.188a.623.623 0 0 0 .159-.641l-.295.096a.314.314 0 0 1-.08.322l.217.223zm-2.281.464a.624.624 0 0 0-.181.554l.306-.053a.311.311 0 0 1 .091-.278l-.216-.223zm-.181.554.169.982.306-.053-.169-.982-.306.053zm.395.818-.887-.463-.144.275.887.463.144-.275zm-.887-.463a.631.631 0 0 0-.293-.072v.311a.32.32 0 0 1 .148.036l.144-.275zm-.293-.072c-.1 0-.2.024-.292.072l.143.276a.316.316 0 0 1 .149-.037v-.311zm-.292.072-.887.463.144.275.887-.463-.144-.275zm-.662.627.169-.982-.306-.053-.169.982.306.053zm.169-.982a.627.627 0 0 0-.18-.554l-.217.223a.312.312 0 0 1 .091.278l.306.053zm-.181-.554-.718-.696-.216.223.718.696.216-.223zm-.804-.43.992-.143-.044-.307-.992.143.044.307zm.992-.143a.626.626 0 0 0 .473-.342l-.278-.138a.317.317 0 0 1-.239.173l.044.308zm.473-.342.444-.893-.278-.138-.444.893.278.138zm.166-.893.444.893.278-.138-.444-.893-.278.138zm.443.893a.63.63 0 0 0 .473.342l.044-.308a.318.318 0 0 1-.239-.173l-.278.139zm.473.342.992.143.044-.307-.992-.143-.044.307zm.906-.122-.717.696.216.223.717-.696-.216-.223zm-4.549 13.89h.946v-.311h-.946v.311zm.79-.155v.94h.311v-.94h-.311zm.155.784h-.946v.311h.946v-.311zm-.79.156v-.94h-.311v.94h.311zm-.155 1.095h.946v-.311h-.946v.311zm.79-.155v.94h.311v-.94h-.311zm.155.784h-.946v.311h.946v-.311zm-.79.156v-.94h-.311v.94h.311zm.79-1.725h.946v-.311h-.946v.311zm.791-.155v.94h.311v-.94h-.311zm.155.784h-.946v.311h.946v-.311zm-.79.156v-.94h-.311v.94h.311zm-2.047-.785h.946v-.311h-.946v.311zm.79-.155v.94h.311v-.94h-.311zm.156.784h-.946v.311h.946v-.311zm-.791.156v-.94h-.311v.94h.311zm-2.52 3.445h.946v-.311H20.5v.311zm.791-.155v.94h.311v-.94h-.311zm.155.784H20.5v.311h.946v-.311zm-.79.155v-.94h-.311v.94h.311zm-.156 1.096h.946v-.311H20.5v.311zm.791-.156v.94h.311v-.94h-.311zm.155.785H20.5v.311h.946v-.311zm-.79.155v-.94h-.311v.94h.311zm.79-1.724h.946v-.311h-.946v.311zm.791-.156v.94h.311v-.94h-.311zm.155.785h-.946v.311h.946v-.311zm-.79.155v-.94h-.311v.94h.311zm-2.047-.784h.946v-.311h-.946v.311zm.79-.156v.94h.311v-.94h-.311zm.155.785h-.946v.311h.946v-.311zm-.79.155v-.94h-.311v.94h.311zm-4.884-3.604h.946v-.311h-.946v.311zm.79-.155v.94h.311v-.94h-.311zm.155.784h-.946v.311h.946v-.311zm-.79.156v-.94h-.311v.94h.311zm-.155 1.095h.946v-.311h-.946v.311zm.79-.155v.94h.311v-.94h-.311zm.155.784h-.946v.311h.946v-.311zm-.79.155v-.94h-.311v.94h.311zm.79-1.724h.946v-.311h-.946v.311zm.791-.155v.94h.311v-.94h-.311zm.155.784h-.946v.311h.946v-.311zm-.79.156v-.94h-.311v.94h.311zm-2.047-.785h.946v-.311h-.946v.311zm.79-.155v.94h.311v-.94h-.311zm.156.784h-.946v.311h.946v-.311zm-.791.156v-.94h-.311v.94h.311zM5.841 7.848h.946v-.311h-.946v.311zm.79-.155v.94h.311v-.94h-.311zm.156.784h-.946v.311h.946v-.311zm-.791.156v-.94h-.311v.94h.311zm-.155 1.095h.946v-.311h-.946v.311zm.79-.155v.94h.311v-.94h-.311zm.156.784h-.946v.311h.946v-.311zm-.791.156v-.94h-.311v.94h.311zm.791-1.725h.946v-.311h-.946v.311zm.79-.155v.94h.311v-.94h-.311zm.155.784h-.946v.311h.946v-.311zm-.79.156v-.94h-.311v.94h.311zm-2.047-.785h.946v-.311h-.946v.311zm.79-.155v.94h.311v-.94h-.311zm.156.784h-.946v.311h.946v-.311zm-.791.156v-.94h-.311v.94h.311z" style="fill:var(--color2, #ff6b00)"/></symbol><symbol id="icon-diagram-statistics" viewBox="0 0 41 32"><path fill="#ff6b00" d="m29.935 6.285.148-.048-.148.049zm-.382-.32.022-.154-.022.154zM27.86 5.72l-.139.069.036.073.081.012.022-.154zm-.758-1.525-.139.069.139-.069zm-.849 0 .139.069-.139-.069zm-.758 1.525.022.154.081-.012.036-.073-.139-.069zm-1.693.245-.022-.154.022.154zm-.383.32-.147-.049v.001l.148.048zm.12.481.108-.112-.108.112zm1.226 1.188.153.026.014-.081-.059-.057-.108.112zm-.289 1.677zm.188.46-.091.126.091-.126zm.498.035-.072-.138.072.138zm1.515-.792.072-.138-.072-.038-.072.038.072.138zm1.515.792.072-.138-.072.138zm.499-.035-.091-.126.091.126zm.188-.46-.153.026.153-.027zm-.29-1.677-.108-.112-.059.057.014.081.153-.026zm1.226-1.188.108.112-.108-.111zm-2.064.688.108.112-.108-.112zm-.135.416.153-.026-.153.027zm.169.982-.072.138.278.145-.053-.309-.153.026zm-.887-.464-.072.138.072-.138zm-.441 0-.072-.138.072.138zm-.887.464-.153-.026-.053.309.278-.145-.072-.138zm.169-.982-.153-.027.153.026zm-.136-.416.108-.111-.108.112zm-.718-.696-.022-.154-.313.045.227.22.108-.112zm.992-.143-.022-.154.022.154zm.356-.257zm.444-.893.139-.069-.139-.28-.139.28.139.069zm.443.893-.139.069.139-.069zm.357.257.022-.154-.022.154zm.992.143.108.112.227-.22-.313-.045-.022.154zm-4.658 13.624v-.155h-.155v.155h.155zm.945 0h.155v-.155h-.155v.155zm0 2.82v.155h.155v-.155h-.155zm-.945 0h-.155v.155h.155v-.155zm1.891-1.88h.155v-.155h-.155v.155zm0 .94v.155h.155v-.155h-.155zm-2.837-.94v-.155h-.155v.155h.155zm0 .94h-.155v.155h.155v-.155zm-2.365 3.29v-.155h-.155v.155h.155zm.946 0h.155v-.155h-.155v.155zm0 2.819v.155h.155v-.155h-.155zm-.946 0h-.155v.155h.155v-.155zm1.892-1.88h.155v-.155h-.155v.155zm0 .94v.155h.155v-.155h-.155zm-2.837-.94v-.155H19.4v.155h.155zm0 .94H19.4v.155h.155v-.155zm-4.729-3.759v-.155h-.155v.155h.155zm.945 0h.155v-.155h-.155v.155zm0 2.819v.155h.155v-.155h-.155zm-.945 0h-.155v.155h.155v-.155zm1.891-1.879h.155v-.155h-.155v.155zm0 .94v.155h.155v-.155h-.155zm-2.837-.94v-.155h-.155v.155h.155zm0 .94h-.155v.155h.155v-.155zM5.841 7.693v-.155h-.155v.155h.155zm.946 0h.155v-.155h-.155v.155zm0 2.82v.155h.155v-.155h-.155zm-.946 0h-.155v.155h.155v-.155zm1.891-1.88h.155v-.155h-.155v.155zm0 .94v.155h.155v-.155h-.155zm-2.837-.94v-.155H4.74v.155h.155zm0 .94H4.74v.155h.155v-.155zm25.187-3.337a.628.628 0 0 0-.507-.425l-.045.307c.12.017.219.101.256.214l.295-.097zm-.506-.425-1.694-.245-.045.307 1.694.245.044-.307zm-1.577-.16-.758-1.526-.278.138.758 1.526.278-.138zm-.758-1.525c-.112-.226-.348-.328-.563-.328s-.451.101-.563.328l.279.138c.047-.095.156-.155.285-.155s.238.06.285.155l.279-.138zm-1.127-.001-.758 1.526.278.138.758-1.526-.278-.138zm-.641 1.441-1.694.245.044.308 1.694-.245-.045-.307zm-1.694.245a.628.628 0 0 0-.507.425l.295.098a.32.32 0 0 1 .257-.215l-.045-.307zm-.507.426a.624.624 0 0 0 .16.642l.216-.224a.313.313 0 0 1-.08-.322l-.295-.096zm.159.641 1.226 1.188.216-.223-1.226-1.188-.216.223zm1.181 1.05-.289 1.677.306.053.289-1.677-.306-.053zm-.289 1.677a.626.626 0 0 0 .25.612l.182-.252a.314.314 0 0 1-.126-.308l-.306-.053zm.25.611c.195.141.45.158.662.047l-.144-.275a.317.317 0 0 1-.335-.024l-.182.252zm.661.048 1.515-.792-.144-.275-1.515.792.144.275zm1.371-.792 1.515.792.144-.275-1.515-.792-.144.275zm1.515.792a.634.634 0 0 0 .293.072v-.311a.32.32 0 0 1-.148-.036l-.144.275zm.293.072c.129 0 .26-.04.369-.119l-.182-.251a.318.318 0 0 1-.187.06v.311zm.369-.12a.624.624 0 0 0 .25-.612l-.306.053a.314.314 0 0 1-.126.307l.182.252zm.25-.612-.289-1.677-.306.053.289 1.677.306-.053zm-.335-1.538 1.226-1.188-.216-.223-1.226 1.188.216.223zm1.227-1.188a.623.623 0 0 0 .159-.641l-.295.096a.314.314 0 0 1-.08.322l.217.223zm-2.281.464a.624.624 0 0 0-.181.554l.306-.053a.311.311 0 0 1 .091-.278l-.216-.223zm-.181.554.169.982.306-.053-.169-.982-.306.053zm.395.818-.887-.463-.144.275.887.463.144-.275zm-.887-.463a.631.631 0 0 0-.293-.072v.311a.32.32 0 0 1 .148.036l.144-.275zm-.293-.072c-.1 0-.2.024-.292.072l.143.276a.316.316 0 0 1 .149-.037v-.311zm-.292.072-.887.463.144.275.887-.463-.144-.275zm-.662.627.169-.982-.306-.053-.169.982.306.053zm.169-.982a.627.627 0 0 0-.18-.554l-.217.223a.312.312 0 0 1 .091.278l.306.053zm-.181-.554-.718-.696-.216.223.718.696.216-.223zm-.804-.43.992-.143-.044-.307-.992.143.044.307zm.992-.143a.626.626 0 0 0 .473-.342l-.278-.138a.317.317 0 0 1-.239.173l.044.308zm.473-.342.444-.893-.278-.138-.444.893.278.138zm.166-.893.444.893.278-.138-.444-.893-.278.138zm.443.893a.63.63 0 0 0 .473.342l.044-.308a.318.318 0 0 1-.239-.173l-.278.139zm.473.342.992.143.044-.307-.992-.143-.044.307zm.906-.122-.717.696.216.223.717-.696-.216-.223zm-4.549 13.89h.946v-.311h-.946v.311zm.79-.155v.94h.311v-.94h-.311zm.155.784h-.946v.311h.946v-.311zm-.79.156v-.94h-.311v.94h.311zm-.155 1.095h.946v-.311h-.946v.311zm.79-.155v.94h.311v-.94h-.311zm.155.784h-.946v.311h.946v-.311zm-.79.156v-.94h-.311v.94h.311zm.79-1.725h.946v-.311h-.946v.311zm.791-.155v.94h.311v-.94h-.311zm.155.784h-.946v.311h.946v-.311zm-.79.156v-.94h-.311v.94h.311zm-2.047-.785h.946v-.311h-.946v.311zm.79-.155v.94h.311v-.94h-.311zm.156.784h-.946v.311h.946v-.311zm-.791.156v-.94h-.311v.94h.311zm-2.52 3.445h.946v-.311H20.5v.311zm.791-.155v.94h.311v-.94h-.311zm.155.784H20.5v.311h.946v-.311zm-.79.155v-.94h-.311v.94h.311zm-.156 1.096h.946v-.311H20.5v.311zm.791-.156v.94h.311v-.94h-.311zm.155.785H20.5v.311h.946v-.311zm-.79.155v-.94h-.311v.94h.311zm.79-1.724h.946v-.311h-.946v.311zm.791-.156v.94h.311v-.94h-.311zm.155.785h-.946v.311h.946v-.311zm-.79.155v-.94h-.311v.94h.311zm-2.047-.784h.946v-.311h-.946v.311zm.79-.156v.94h.311v-.94h-.311zm.155.785h-.946v.311h.946v-.311zm-.79.155v-.94h-.311v.94h.311zm-4.884-3.604h.946v-.311h-.946v.311zm.79-.155v.94h.311v-.94h-.311zm.155.784h-.946v.311h.946v-.311zm-.79.156v-.94h-.311v.94h.311zm-.155 1.095h.946v-.311h-.946v.311zm.79-.155v.94h.311v-.94h-.311zm.155.784h-.946v.311h.946v-.311zm-.79.155v-.94h-.311v.94h.311zm.79-1.724h.946v-.311h-.946v.311zm.791-.155v.94h.311v-.94h-.311zm.155.784h-.946v.311h.946v-.311zm-.79.156v-.94h-.311v.94h.311zm-2.047-.785h.946v-.311h-.946v.311zm.79-.155v.94h.311v-.94h-.311zm.156.784h-.946v.311h.946v-.311zm-.791.156v-.94h-.311v.94h.311zM5.841 7.848h.946v-.311h-.946v.311zm.79-.155v.94h.311v-.94h-.311zm.156.784h-.946v.311h.946v-.311zm-.791.156v-.94h-.311v.94h.311zm-.155 1.095h.946v-.311h-.946v.311zm.79-.155v.94h.311v-.94h-.311zm.156.784h-.946v.311h.946v-.311zm-.791.156v-.94h-.311v.94h.311zm.791-1.725h.946v-.311h-.946v.311zm.79-.155v.94h.311v-.94h-.311zm.155.784h-.946v.311h.946v-.311zm-.79.156v-.94h-.311v.94h.311zm-2.047-.785h.946v-.311h-.946v.311zm.79-.155v.94h.311v-.94h-.311zm.156.784h-.946v.311h.946v-.311zm-.791.156v-.94h-.311v.94h.311z" style="fill:var(--color2, #ff6b00)"/></symbol><symbol id="icon-timer" viewBox="0 0 32 32"><path fill="#ff6b00" d="m29.935 6.285.148-.048-.148.049zm-.382-.32.022-.154-.022.154zM27.86 5.72l-.139.069.036.073.081.012.022-.154zm-.758-1.525-.139.069.139-.069zm-.849 0 .139.069-.139-.069zm-.758 1.525.022.154.081-.012.036-.073-.139-.069zm-1.693.245-.022-.154.022.154zm-.383.32-.147-.049v.001l.148.048zm.12.481.108-.112-.108.112zm1.226 1.188.153.026.014-.081-.059-.057-.108.112zm-.289 1.677zm.188.46-.091.126.091-.126zm.498.035-.072-.138.072.138zm1.515-.792.072-.138-.072-.038-.072.038.072.138zm1.515.792.072-.138-.072.138zm.499-.035-.091-.126.091.126zm.188-.46-.153.026.153-.027zm-.29-1.677-.108-.112-.059.057.014.081.153-.026zm1.226-1.188.108.112-.108-.111zm-2.064.688.108.112-.108-.112zm-.135.416.153-.026-.153.027zm.169.982-.072.138.278.145-.053-.309-.153.026zm-.887-.464-.072.138.072-.138zm-.441 0-.072-.138.072.138zm-.887.464-.153-.026-.053.309.278-.145-.072-.138zm.169-.982-.153-.027.153.026zm-.136-.416.108-.111-.108.112zm-.718-.696-.022-.154-.313.045.227.22.108-.112zm.992-.143-.022-.154.022.154zm.356-.257zm.444-.893.139-.069-.139-.28-.139.28.139.069zm.443.893-.139.069.139-.069zm.357.257.022-.154-.022.154zm.992.143.108.112.227-.22-.313-.045-.022.154zm-4.658 13.624v-.155h-.155v.155h.155zm.945 0h.155v-.155h-.155v.155zm0 2.82v.155h.155v-.155h-.155zm-.945 0h-.155v.155h.155v-.155zm1.891-1.88h.155v-.155h-.155v.155zm0 .94v.155h.155v-.155h-.155zm-2.837-.94v-.155h-.155v.155h.155zm0 .94h-.155v.155h.155v-.155zm-2.365 3.29v-.155h-.155v.155h.155zm.946 0h.155v-.155h-.155v.155zm0 2.819v.155h.155v-.155h-.155zm-.946 0h-.155v.155h.155v-.155zm1.892-1.88h.155v-.155h-.155v.155zm0 .94v.155h.155v-.155h-.155zm-2.837-.94v-.155H19.4v.155h.155zm0 .94H19.4v.155h.155v-.155zm-4.729-3.759v-.155h-.155v.155h.155zm.945 0h.155v-.155h-.155v.155zm0 2.819v.155h.155v-.155h-.155zm-.945 0h-.155v.155h.155v-.155zm1.891-1.879h.155v-.155h-.155v.155zm0 .94v.155h.155v-.155h-.155zm-2.837-.94v-.155h-.155v.155h.155zm0 .94h-.155v.155h.155v-.155zM5.841 7.693v-.155h-.155v.155h.155zm.946 0h.155v-.155h-.155v.155zm0 2.82v.155h.155v-.155h-.155zm-.946 0h-.155v.155h.155v-.155zm1.891-1.88h.155v-.155h-.155v.155zm0 .94v.155h.155v-.155h-.155zm-2.837-.94v-.155H4.74v.155h.155zm0 .94H4.74v.155h.155v-.155zm25.187-3.337a.628.628 0 0 0-.507-.425l-.045.307c.12.017.219.101.256.214l.295-.097zm-.506-.425-1.694-.245-.045.307 1.694.245.044-.307zm-1.577-.16-.758-1.526-.278.138.758 1.526.278-.138zm-.758-1.525c-.112-.226-.348-.328-.563-.328s-.451.101-.563.328l.279.138c.047-.095.156-.155.285-.155s.238.06.285.155l.279-.138zm-1.127-.001-.758 1.526.278.138.758-1.526-.278-.138zm-.641 1.441-1.694.245.044.308 1.694-.245-.045-.307zm-1.694.245a.628.628 0 0 0-.507.425l.295.098a.32.32 0 0 1 .257-.215l-.045-.307zm-.507.426a.624.624 0 0 0 .16.642l.216-.224a.313.313 0 0 1-.08-.322l-.295-.096zm.159.641 1.226 1.188.216-.223-1.226-1.188-.216.223zm1.181 1.05-.289 1.677.306.053.289-1.677-.306-.053zm-.289 1.677a.626.626 0 0 0 .25.612l.182-.252a.314.314 0 0 1-.126-.308l-.306-.053zm.25.611c.195.141.45.158.662.047l-.144-.275a.317.317 0 0 1-.335-.024l-.182.252zm.661.048 1.515-.792-.144-.275-1.515.792.144.275zm1.371-.792 1.515.792.144-.275-1.515-.792-.144.275zm1.515.792a.634.634 0 0 0 .293.072v-.311a.32.32 0 0 1-.148-.036l-.144.275zm.293.072c.129 0 .26-.04.369-.119l-.182-.251a.318.318 0 0 1-.187.06v.311zm.369-.12a.624.624 0 0 0 .25-.612l-.306.053a.314.314 0 0 1-.126.307l.182.252zm.25-.612-.289-1.677-.306.053.289 1.677.306-.053zm-.335-1.538 1.226-1.188-.216-.223-1.226 1.188.216.223zm1.227-1.188a.623.623 0 0 0 .159-.641l-.295.096a.314.314 0 0 1-.08.322l.217.223zm-2.281.464a.624.624 0 0 0-.181.554l.306-.053a.311.311 0 0 1 .091-.278l-.216-.223zm-.181.554.169.982.306-.053-.169-.982-.306.053zm.395.818-.887-.463-.144.275.887.463.144-.275zm-.887-.463a.631.631 0 0 0-.293-.072v.311a.32.32 0 0 1 .148.036l.144-.275zm-.293-.072c-.1 0-.2.024-.292.072l.143.276a.316.316 0 0 1 .149-.037v-.311zm-.292.072-.887.463.144.275.887-.463-.144-.275zm-.662.627.169-.982-.306-.053-.169.982.306.053zm.169-.982a.627.627 0 0 0-.18-.554l-.217.223a.312.312 0 0 1 .091.278l.306.053zm-.181-.554-.718-.696-.216.223.718.696.216-.223zm-.804-.43.992-.143-.044-.307-.992.143.044.307zm.992-.143a.626.626 0 0 0 .473-.342l-.278-.138a.317.317 0 0 1-.239.173l.044.308zm.473-.342.444-.893-.278-.138-.444.893.278.138zm.166-.893.444.893.278-.138-.444-.893-.278.138zm.443.893a.63.63 0 0 0 .473.342l.044-.308a.318.318 0 0 1-.239-.173l-.278.139zm.473.342.992.143.044-.307-.992-.143-.044.307zm.906-.122-.717.696.216.223.717-.696-.216-.223zm-4.549 13.89h.946v-.311h-.946v.311zm.79-.155v.94h.311v-.94h-.311zm.155.784h-.946v.311h.946v-.311zm-.79.156v-.94h-.311v.94h.311zm-.155 1.095h.946v-.311h-.946v.311zm.79-.155v.94h.311v-.94h-.311zm.155.784h-.946v.311h.946v-.311zm-.79.156v-.94h-.311v.94h.311zm.79-1.725h.946v-.311h-.946v.311zm.791-.155v.94h.311v-.94h-.311zm.155.784h-.946v.311h.946v-.311zm-.79.156v-.94h-.311v.94h.311zm-2.047-.785h.946v-.311h-.946v.311zm.79-.155v.94h.311v-.94h-.311zm.156.784h-.946v.311h.946v-.311zm-.791.156v-.94h-.311v.94h.311zm-2.52 3.445h.946v-.311H20.5v.311zm.791-.155v.94h.311v-.94h-.311zm.155.784H20.5v.311h.946v-.311zm-.79.155v-.94h-.311v.94h.311zm-.156 1.096h.946v-.311H20.5v.311zm.791-.156v.94h.311v-.94h-.311zm.155.785H20.5v.311h.946v-.311zm-.79.155v-.94h-.311v.94h.311zm.79-1.724h.946v-.311h-.946v.311zm.791-.156v.94h.311v-.94h-.311zm.155.785h-.946v.311h.946v-.311zm-.79.155v-.94h-.311v.94h.311zm-2.047-.784h.946v-.311h-.946v.311zm.79-.156v.94h.311v-.94h-.311zm.155.785h-.946v.311h.946v-.311zm-.79.155v-.94h-.311v.94h.311zm-4.884-3.604h.946v-.311h-.946v.311zm.79-.155v.94h.311v-.94h-.311zm.155.784h-.946v.311h.946v-.311zm-.79.156v-.94h-.311v.94h.311zm-.155 1.095h.946v-.311h-.946v.311zm.79-.155v.94h.311v-.94h-.311zm.155.784h-.946v.311h.946v-.311zm-.79.155v-.94h-.311v.94h.311zm.79-1.724h.946v-.311h-.946v.311zm.791-.155v.94h.311v-.94h-.311zm.155.784h-.946v.311h.946v-.311zm-.79.156v-.94h-.311v.94h.311zm-2.047-.785h.946v-.311h-.946v.311zm.79-.155v.94h.311v-.94h-.311zm.156.784h-.946v.311h.946v-.311zm-.791.156v-.94h-.311v.94h.311zM5.841 7.848h.946v-.311h-.946v.311zm.79-.155v.94h.311v-.94h-.311zm.156.784h-.946v.311h.946v-.311zm-.791.156v-.94h-.311v.94h.311zm-.155 1.095h.946v-.311h-.946v.311zm.79-.155v.94h.311v-.94h-.311zm.156.784h-.946v.311h.946v-.311zm-.791.156v-.94h-.311v.94h.311zm.791-1.725h.946v-.311h-.946v.311zm.79-.155v.94h.311v-.94h-.311zm.155.784h-.946v.311h.946v-.311zm-.79.156v-.94h-.311v.94h.311zm-2.047-.785h.946v-.311h-.946v.311zm.79-.155v.94h.311v-.94h-.311zm.156.784h-.946v.311h.946v-.311zm-.791.156v-.94h-.311v.94h.311z" style="fill:var(--color2, #ff6b00)"/></symbol></defs></svg>