<svg aria-hidden="true" style="position:absolute;width:0;height:0;overflow:hidden" xmlns="http://www.w3.org/2000/svg"><defs><symbol id="icon-antenna-icon" viewBox="0 0 32 32"><path d="m30.773 22.098-8.443-8.505.937-4.615c.242.094.499.144.758.146h.006a2.159 2.159 0 1 0-2.008-1.435l-4.96.605L8.972.161a.534.534 0 0 0-.377-.16.532.532 0 0 0-.373.155L6.709 1.66a.534.534 0 0 0 0 .754l.814.826a14.943 14.943 0 0 0 2.519 17.663.513.513 0 0 0 .146.098c-.034.18-.051.364-.052.547v6.187h-6.4a2.67 2.67 0 0 0-2.667 2.667v1.067c0 .295.239.533.533.533h24.533a.533.533 0 0 0 .533-.533v-1.067a2.67 2.67 0 0 0-2.667-2.667h-6.4v-2.742a15.09 15.09 0 0 0 3.049.32 14.854 14.854 0 0 0 7.04-1.783l.818.823a.534.534 0 0 0 .377.16.532.532 0 0 0 .373-.155l1.513-1.504a.534.534 0 0 0 0-.754zM23.28 6.233a1.066 1.066 0 1 1 .752 1.822h-.003a1.067 1.067 0 0 1-.747-1.823h-.002zm-1.256 3.505-.598 2.946-1.175-1.182 1.774-1.763zm-.605-.902-1.92 1.909-1.485-1.493 3.405-.415zM24.004 28.8a1.6 1.6 0 0 1 1.6 1.6v.533H2.137V30.4a1.6 1.6 0 0 1 1.6-1.6h20.267zm-7.467-2.133v1.067h-5.333v-1.067h5.333zM11.204 25.6v-4.053c0-1.294 1.196-2.347 2.667-2.347s2.667 1.053 2.667 2.347V25.6h-5.333zm6.4-1.696v-2.357c0-1.882-1.675-3.413-3.733-3.413a3.8 3.8 0 0 0-3.281 1.786A13.87 13.87 0 0 1 8.311 4.033l18.602 18.708a13.818 13.818 0 0 1-9.309 1.163zm11.289-.684L7.836 2.039l.755-.752 7.935 7.98c.004 0 .006.007.01.01l13.115 13.191-.757.752z"/><path fill="#2196f3" d="M13.876 20.267h-.005a1.6 1.6 0 1 0-.004 3.2h.005a1.6 1.6 0 1 0 .004-3.2zm.373 1.978a.534.534 0 0 1-.752-.756.534.534 0 0 1 .373-.155.532.532 0 0 1 .373.911h.005z"/></symbol><symbol id="icon-astronaut-icon" viewBox="0 0 32 32"><path fill="#2196f3" d="M31.974 4.524a.534.534 0 0 0-.43-.363l-1.91-.278-.855-1.731c-.179-.365-.777-.365-.956 0l-.855 1.731-1.91.278a.535.535 0 0 0-.296.91l1.383 1.348-.326 1.903c-.034.2.048.402.212.522a.53.53 0 0 0 .562.04l1.709-.899 1.709.899a.536.536 0 0 0 .775-.563l-.326-1.903 1.383-1.348a.536.536 0 0 0 .135-.547zm-2.463 1.327a.534.534 0 0 0-.153.472l.191 1.114-1-.526a.533.533 0 0 0-.498 0l-1.001.526.191-1.114a.534.534 0 0 0-.153-.472l-.81-.789 1.119-.163a.532.532 0 0 0 .402-.292l.5-1.013.5 1.013a.535.535 0 0 0 .402.292l1.119.163-.809.789zM26.134 20.522h-1.067v1.067h1.067v-1.067zM26.134 22.656h-1.067v1.067h1.067v-1.067zM27.2 21.589h-1.067v1.067H27.2v-1.067zM25.067 21.589H24v1.067h1.067v-1.067zM22.4 26.389h-1.067v1.067H22.4v-1.067zM22.4 28.522h-1.067v1.067H22.4v-1.067zM23.467 27.456H22.4v1.067h1.067v-1.067zM21.333 27.456h-1.067v1.067h1.067v-1.067zM16 24.256h-1.067v1.067H16v-1.067zM16 26.389h-1.067v1.067H16v-1.067zM17.067 25.322H16v1.067h1.067v-1.067zM14.933 25.322h-1.067v1.067h1.067v-1.067zM5.867 6.122H4.8v1.067h1.067V6.122zM5.867 8.255H4.8v1.067h1.067V8.255z"/><path fill="#2196f3" d="M6.933 7.189H5.866v1.067h1.067V7.189zM4.8 7.189H3.733v1.067H4.8V7.189z"/><path d="M24.715 14.159a1.775 1.775 0 0 0-1.188-.705 1.778 1.778 0 0 0-1.34.352l-1.252.96-1.898 1.417-1.358-.541c2.421-1.086 4.114-3.508 4.114-6.32 0-3.823-3.123-6.933-6.961-6.933s-6.961 3.11-6.961 6.933a6.86 6.86 0 0 0 1.12 3.758l-2.764-.024h-.005c-.009 0-.015.004-.023.005a.515.515 0 0 0-.155.031l-.038.013c-.006.003-.013.003-.019.006l-3.233 1.596-.001.001-1.893.911a.397.397 0 0 0-.063.035 1.779 1.779 0 0 0-.598 2.295c.22.429.595.745 1.056.889a1.776 1.776 0 0 0 1.378-.128l1.388-.738 2.264-1.169 1.357-.008L2.2 22.211l-.002.001-1.339 1.333c-.316.315-.49.732-.49 1.178s.174.863.49 1.179c.325.323.752.485 1.179.485s.854-.162 1.18-.485l1.314-1.309 1.741-1.3.901.897-1.762 1.754-.002.001-1.339 1.333c-.316.315-.49.732-.49 1.178s.174.863.49 1.179c.325.323.753.485 1.18.485s.855-.162 1.18-.485l3.482-3.467.001-.002 1.01-1-.004-.004c.006-.006.015-.009.022-.015l5.166-5.658 3.471.494a.52.52 0 0 0 .262-.033c.018-.006.033-.015.05-.023.019-.01.039-.015.058-.027l3.213-2.133c.012-.008.018-.021.029-.029.013-.01.029-.014.041-.026l1.271-1.191c.662-.62.753-1.635.212-2.362zM2.13 17.77a.714.714 0 0 1-.558.052.717.717 0 0 1-.213-1.26l1.314-.632.449 1.313-.992.527zm3.498-1.828-1.548.8-.439-1.283 2.027-1.001-.04 1.484zm15.099-6.62a5.79 5.79 0 0 1-.599 2.559l-4.181-1.899a1.863 1.863 0 0 0-.788-1.388l1.464-4.86c2.378.756 4.105 2.974 4.105 5.588zm-11.789 0c0-3.235 2.644-5.867 5.894-5.867.253 0 .5.021.745.052l-1.432 4.754c-.019-.001-.037-.006-.057-.006-1.033 0-1.873.837-1.873 1.867s.84 1.867 1.873 1.867c.694 0 1.294-.383 1.618-.945l3.862 1.755a5.894 5.894 0 0 1-4.737 2.39c-3.25 0-5.894-2.632-5.894-5.867zm5.956.8c0 .441-.362.8-.806.8s-.806-.359-.806-.8c0-.441.362-.8.806-.8s.806.359.806.8zM2.465 25.146a.608.608 0 0 1-.854.001.592.592 0 0 1 0-.844l.962-.959.851.848-.959.955zm3.214 3.734a.608.608 0 0 1-.855.001.592.592 0 0 1 0-.844l.963-.959.852.848-.96.955zm3.481-3.469-.002.001-1.765 1.76-.852-.848 1.763-1.755.002-.001c.04-.04.065-.088.09-.135.007-.014.02-.026.026-.04.017-.041.019-.085.026-.129.003-.025.014-.047.014-.073 0-.036-.013-.07-.02-.106-.006-.032-.006-.065-.019-.095a.55.55 0 0 0-.091-.138c-.01-.012-.014-.027-.025-.038h-.001l-.001-.002-1.607-1.6c-.017-.017-.039-.024-.058-.038a.507.507 0 0 0-.087-.058.515.515 0 0 0-.093-.033.507.507 0 0 0-.103-.02.5.5 0 0 0-.095.005.53.53 0 0 0-.104.02.477.477 0 0 0-.094.045c-.02.011-.042.015-.061.029L4.23 23.486l-.901-.897 2.399-2.386 4.361 4.289-.928.919zm6.819-7.017c-.015-.002-.03.004-.045.003a.556.556 0 0 0-.3.075.492.492 0 0 0-.083.061c-.013.011-.028.017-.04.029l-4.698 5.146-4.328-4.257 2.833-2.818a.534.534 0 0 0-.379-.911v-.001l-2.219.013.028-1.607 3.104.027a6.947 6.947 0 0 0 4.981 2.101c.437 0 .864-.045 1.279-.123.04.032.079.065.13.085l2.41.96.152.758.178.885-3.003-.427zm4.041.178-.313-1.558 1.446-1.08.947 1.257-2.08 1.381zm3.754-2.831-.838.785-.931-1.236.831-.637a.735.735 0 0 1 .543-.143.718.718 0 0 1 .48.284.713.713 0 0 1-.085.947z"/><path d="m13.602 18.544-2.143-2.133a.534.534 0 0 0-.753 0l-2.142 2.133a.537.537 0 0 0 0 .756l2.142 2.133a.536.536 0 0 0 .753 0l2.143-2.133a.535.535 0 0 0 0-.756zm-2.519 1.759-1.387-1.381 1.387-1.381 1.387 1.381-1.387 1.381zM17.164 5.071l-.258 1.036c.071.018 1.738.452 1.738 2.149h1.067c0-2.017-1.666-2.965-2.547-3.185zM19.711 9.322h-1.067v1.067h1.067V9.322z"/></symbol><symbol id="icon-client-1" viewBox="0 0 59 32"><path d="m24.348 8.596 2.438 2.308-4.524-.003v11.196h11.826v-4.281l2.435 2.305V8.596H24.349zm9.632 8.949-6.911-6.543h6.911v6.543zm-2.146 2.914h-7.702v-7.53h.544v7.02h7.157v.51zm-5.883 3.128-.285.586-.285-.586h-.239l.415.781v.455h.216v-.455l.414-.781h-.238zm.357 1.236.1-.288h.479l.101.288h.224l-.468-1.236h-.193l-.467 1.236h.223zm.34-.974.179.513h-.358l.179-.513zm1.133.483a.325.325 0 0 0 .063.411c.073.065.172.097.294.097s.228-.033.316-.099l.07.082h.239l-.182-.215a.62.62 0 0 0 .107-.375h-.179a.49.49 0 0 1-.052.227l-.239-.282.084-.061c.059-.043.102-.086.128-.129s.039-.091.039-.143c0-.078-.029-.143-.087-.196s-.131-.08-.221-.08c-.1 0-.179.028-.238.085s-.088.132-.088.229c0 .04.009.081.028.123s.053.094.101.155a.726.726 0 0 0-.184.171zm.558.274a.32.32 0 0 1-.195.07c-.062 0-.111-.018-.148-.053s-.055-.082-.055-.139c0-.066.034-.125.102-.177l.026-.019.27.318zm-.222-.548c-.058-.072-.087-.132-.087-.179 0-.041.012-.076.036-.103s.056-.041.096-.041c.037 0 .068.012.093.035s.037.05.037.082a.153.153 0 0 1-.053.12l-.026.021-.094.065zm2.013.672a.445.445 0 0 0 .146-.309h-.214c-.011.088-.038.151-.081.189s-.106.057-.19.057c-.092 0-.162-.035-.211-.105s-.071-.172-.071-.306v-.11c.001-.132.027-.232.076-.3s.122-.103.216-.103c.08 0 .141.02.183.059s.068.103.078.192h.214c-.014-.135-.062-.24-.145-.314s-.193-.111-.329-.111a.465.465 0 0 0-.445.278.73.73 0 0 0-.062.308v.115c.002.114.023.214.064.3s.099.153.173.2a.49.49 0 0 0 .261.07.503.503 0 0 0 .339-.11zm1.262-.173a.76.76 0 0 0 .063-.319v-.069c-.001-.121-.022-.226-.065-.317a.477.477 0 0 0-.448-.282.482.482 0 0 0-.449.285.748.748 0 0 0-.064.319v.07c.001.118.022.223.065.313s.104.16.182.21a.497.497 0 0 0 .268.073c.101 0 .191-.024.268-.073s.138-.119.18-.211zm-.23-.699a.539.539 0 0 1 .078.315v.065c0 .139-.026.245-.077.318s-.124.109-.219.109c-.094 0-.168-.037-.221-.111s-.079-.179-.079-.315v-.071c.001-.133.028-.236.08-.308s.125-.11.218-.11c.095 0 .168.037.22.11z"/></symbol><symbol id="icon-client-2" viewBox="0 0 59 32"><path d="M28.561 8.225h-.047a8.01 8.01 0 0 0-.219-.008h-.158a8.433 8.433 0 0 0-.451.011 9.846 9.846 0 0 0-3.658.933l-.15.073v7.701l.352-.119c.309-.106.638-.202.978-.29a11.952 11.952 0 0 1 2.816-.374v1.012a7.468 7.468 0 0 0-.37.011h-.029c-.731.04-1.457.151-2.166.333-.899.225-1.766.563-2.581 1.006V8.637a10.334 10.334 0 0 1 2.707-1.101 10.367 10.367 0 0 1 2.552-.329h.149c.178.004.351.012.514.025.429.03.854.098 1.271.203v.996a8 8 0 0 0-1.232-.186l-.025-.002c-.086-.007-.172-.015-.252-.015zm1.753 1.018c.221.017.45.025.681.025a10.942 10.942 0 0 0 2.683-.344 11.049 11.049 0 0 0 2.58-1.007v9.701c-.847.493-1.758.864-2.708 1.101-.834.214-1.691.325-2.552.328a7.802 7.802 0 0 1-1.936-.228V9.055c.15.034.304.066.46.093.257.043.528.075.792.095zm4.937.076-.352.118c-.324.109-.65.206-.978.293-.956.246-1.938.371-2.924.375-.23 0-.441-.006-.645-.019l-.281-.019v7.922l.241.021c.224.019.454.029.686.029a9.326 9.326 0 0 0 2.303-.298 9.582 9.582 0 0 0 1.799-.647l.151-.073V9.317zM23.561 21.887a.53.53 0 0 0-.392-.158.585.585 0 0 0-.226.042.519.519 0 0 0-.289.293.582.582 0 0 0-.041.218v1.32a.63.63 0 0 0 .052.271.482.482 0 0 0 .313.271c.064.018.13.027.197.027a.55.55 0 0 0 .546-.555v-.148h-.345v.118a.319.319 0 0 1-.02.118.206.206 0 0 1-.05.074.217.217 0 0 1-.072.038.222.222 0 0 1-.072.012c-.031.004-.062-.001-.09-.014s-.053-.032-.071-.057a.315.315 0 0 1-.046-.177v-1.23a.419.419 0 0 1 .042-.197.174.174 0 0 1 .169-.079.182.182 0 0 1 .154.074.276.276 0 0 1 .057.177v.114h.341v-.134a.63.63 0 0 0-.042-.231.552.552 0 0 0-.115-.186zM25.61 21.872a.605.605 0 0 0-.78 0 .537.537 0 0 0-.134.185.61.61 0 0 0-.05.256v1.266a.62.62 0 0 0 .05.259.516.516 0 0 0 .134.177.534.534 0 0 0 .182.111.605.605 0 0 0 .412 0c.069-.025.132-.063.187-.111s.099-.11.13-.177a.608.608 0 0 0 .05-.259v-1.266a.574.574 0 0 0-.18-.441zm-.161 1.706c.003.034-.002.068-.014.099s-.031.06-.055.084a.254.254 0 0 1-.324 0 .227.227 0 0 1-.069-.183v-1.266c-.003-.034.002-.068.014-.099s.031-.06.055-.084a.254.254 0 0 1 .324 0 .227.227 0 0 1 .069.183v1.266zM28.302 24.143v-2.396h-.332l-.436 1.268h-.006l-.439-1.268h-.328v2.396h.342v-1.458h.006l.335 1.03h.171l.338-1.03h.006v1.458h.342zM30.246 21.915a.478.478 0 0 0-.194-.131.746.746 0 0 0-.248-.037h-.509v2.396h.341v-.936h.176a.629.629 0 0 0 .308-.065.49.49 0 0 0 .187-.183.582.582 0 0 0 .078-.209c.013-.09.02-.181.018-.272a1.403 1.403 0 0 0-.033-.342.506.506 0 0 0-.126-.22zm-.176.731a.29.29 0 0 1-.032.125.193.193 0 0 1-.088.084.345.345 0 0 1-.161.03h-.156v-.815h.176a.327.327 0 0 1 .154.03c.035.02.063.051.08.088a.34.34 0 0 1 .03.134v.159c0 .055.003.113 0 .165h-.003zM31.864 21.747h-.28l-.528 2.396h.341l.1-.515h.465l.1.515h.341l-.541-2.396zm-.315 1.555.168-.869h.006l.167.869h-.341zM34.069 23.191h-.006l-.516-1.443h-.328v2.396h.341v-1.441h.007l.522 1.441h.321v-2.396h-.341v1.443zM36.156 21.747l-.275.953h-.007l-.274-.953h-.362l.469 1.383v1.013h.342V23.13l.469-1.383h-.361zM22.609 24.82h.165v.462h.112v-.462h.164v-.095h-.44v.095zM23.992 24.725l-.216.556h.119l.046-.127h.222l.047.127h.121l-.221-.556h-.119zm-.018.337.076-.206.076.206h-.151zM25.359 25.077h.128v.072a.213.213 0 0 1-.132.047.14.14 0 0 1-.118-.053.232.232 0 0 1-.041-.145c0-.124.054-.186.16-.186a.118.118 0 0 1 .126.089l.11-.021c-.024-.109-.102-.164-.236-.164a.277.277 0 0 0-.194.072.278.278 0 0 0-.081.214.305.305 0 0 0 .071.209.265.265 0 0 0 .211.081.337.337 0 0 0 .236-.088v-.219h-.241v.094zM26.756 24.725h-.113v.556h.39v-.095h-.277v-.462zM27.937 24.725h-.113v.556h.113v-.556zM29.091 25.097l-.228-.371h-.109v.556h.105v-.364l.224.364h.112v-.556h-.103v.371zM30.135 25.037h.277v-.095h-.277v-.122h.298v-.095h-.411v.556h.422v-.095h-.31v-.15zM32.665 24.945h-.219v-.219h-.112v.556h.112v-.243h.219v.243h.112v-.556h-.112v.219zM33.715 25.037h.278v-.095h-.278v-.122h.299v-.095h-.411v.556h.421v-.095h-.31v-.15zM35.138 25.037c.097-.015.146-.066.146-.155a.129.129 0 0 0-.054-.123.315.315 0 0 0-.163-.033h-.236v.556h.112v-.233h.022a.167.167 0 0 1 .07.012.12.12 0 0 1 .04.041l.121.177h.134l-.068-.109a.395.395 0 0 0-.123-.134zm-.112-.077h-.082v-.14h.088a.288.288 0 0 1 .113.013c.008.007.015.016.019.026s.006.021.006.032a.068.068 0 0 1-.029.055.313.313 0 0 1-.114.013zM36.212 25.037h.277v-.095h-.277v-.122h.299v-.095h-.412v.556h.422v-.095h-.31v-.15z"/></symbol><symbol id="icon-client-3" viewBox="0 0 59 32"><path d="M23.794 22.644c.006 0 .011.001.016.003l.013.008.076.073a.627.627 0 0 1-.213.138.817.817 0 0 1-.303.049.811.811 0 0 1-.285-.046.579.579 0 0 1-.352-.331.675.675 0 0 1-.048-.258.596.596 0 0 1 .199-.46.687.687 0 0 1 .228-.131.903.903 0 0 1 .293-.046.778.778 0 0 1 .272.042.745.745 0 0 1 .204.116l-.064.077a.073.073 0 0 1-.016.014.053.053 0 0 1-.053-.002l-.034-.021-.047-.026c-.02-.01-.042-.018-.064-.026a.634.634 0 0 0-.409.006.45.45 0 0 0-.272.252.518.518 0 0 0-.039.204.534.534 0 0 0 .039.208.454.454 0 0 0 .105.154.426.426 0 0 0 .157.096.559.559 0 0 0 .195.033.753.753 0 0 0 .116-.007.472.472 0 0 0 .25-.106.059.059 0 0 1 .036-.013zM25.984 22.28a.633.633 0 0 1-.051.256c-.031.074-.08.142-.143.199s-.14.101-.224.131a.918.918 0 0 1-.577 0 .664.664 0 0 1-.223-.131.587.587 0 0 1-.144-.201.67.67 0 0 1 0-.513.6.6 0 0 1 .144-.202.662.662 0 0 1 .223-.126.904.904 0 0 1 .577 0c.084.03.16.074.224.131s.111.125.143.199c.035.082.053.17.051.258zm-.199 0a.54.54 0 0 0-.036-.206.43.43 0 0 0-.261-.251.667.667 0 0 0-.419 0 .455.455 0 0 0-.16.097.411.411 0 0 0-.102.154.607.607 0 0 0 0 .412.411.411 0 0 0 .262.25.682.682 0 0 0 .419 0 .439.439 0 0 0 .16-.096.43.43 0 0 0 .101-.154.54.54 0 0 0 .036-.206zM27.479 22.496l.02.046.022-.046c.008-.015.015-.031.025-.045l.485-.765c.009-.013.018-.021.027-.024a.133.133 0 0 1 .04-.004h.143v1.245h-.17V21.906l-.487.776c-.006.012-.016.021-.029.028s-.027.01-.042.01h-.027c-.015 0-.029-.003-.042-.01s-.022-.017-.028-.028l-.502-.781v.999h-.164v-1.242h.143a.136.136 0 0 1 .04.004.058.058 0 0 1 .027.024l.495.766c.01.014.018.029.025.044zM29.302 22.434v.466h-.19v-1.243h.423a.934.934 0 0 1 .236.027.49.49 0 0 1 .167.077.32.32 0 0 1 .095.122.383.383 0 0 1 .032.159.351.351 0 0 1-.137.283.479.479 0 0 1-.168.082.8.8 0 0 1-.229.029l-.23-.003zm0-.134h.23a.52.52 0 0 0 .147-.019.313.313 0 0 0 .106-.054.209.209 0 0 0 .064-.082.255.255 0 0 0 .023-.105c.002-.035-.004-.069-.019-.101s-.037-.061-.066-.085a.408.408 0 0 0-.255-.067h-.23v.512zM31.852 22.902h-.15a.076.076 0 0 1-.042-.012.086.086 0 0 1-.025-.029l-.129-.301h-.648l-.134.301a.07.07 0 0 1-.067.04h-.15l.569-1.245h.197l.577 1.245zm-.939-.463h.535l-.226-.507a.82.82 0 0 1-.043-.117l-.022.065a.586.586 0 0 1-.021.053l-.224.506zM32.671 21.662a.076.076 0 0 1 .028.022l.83.939v-.967h.17v1.245h-.095c-.013 0-.027-.002-.039-.007s-.022-.014-.03-.023l-.829-.938v.968h-.17v-1.245h.101c.012 0 .023.002.034.006zM35.097 22.407v.494h-.19v-.494l-.525-.75h.17a.065.065 0 0 1 .041.011c.01.008.019.017.026.028l.328.484c.013.021.025.04.034.058s.017.035.024.053l.025-.054a.397.397 0 0 1 .032-.057l.323-.487a.103.103 0 0 1 .025-.026.059.059 0 0 1 .041-.012h.172l-.526.753zM27.385 19.567c.082.009.166.017.25.023 1.28-.497 2.362-1.311 3.112-2.34s1.134-2.227 1.105-3.445l-1.41-1.225c.287 1.296.153 2.637-.387 3.871s-1.465 2.313-2.67 3.117z"/><path d="m26.881 19.51.038.007c1.288-.801 2.271-1.919 2.82-3.209s.64-2.695.261-4.031l-2.009-1.745c.812 1.434 1.139 3.04.943 4.629s-.908 3.098-2.053 4.35zM33.693 15.244c-.341 1.338-1.17 2.545-2.363 3.441a7.477 7.477 0 0 1-1.123.7c.972-.248 1.865-.687 2.61-1.282s1.324-1.332 1.69-2.152l-.815-.707z"/><path d="m33.374 15.047-1.16-1.008c-.022 1.149-.398 2.272-1.089 3.252s-1.671 1.781-2.838 2.321h.006c.26 0 .52-.014.779-.04 1.091-.387 2.055-1.003 2.806-1.792s1.265-1.728 1.497-2.732zM27.049 9.795l-1.384-1.204c-1.237.415-2.301 1.145-3.052 2.095s-1.156 2.074-1.159 3.226c.005 1.273.498 2.508 1.401 3.511s2.166 1.714 3.588 2.022c1.269-1.343 2.012-3.003 2.121-4.739s-.422-3.456-1.515-4.911zM36.57 14.862c-.005-1.51-.698-2.958-1.927-4.026s-2.895-1.67-4.634-1.674a7.353 7.353 0 0 0-2.349.38l8.471 7.36c.29-.651.439-1.342.438-2.04z"/></symbol><symbol id="icon-client-4" viewBox="0 0 59 32"><path d="M19.529 12.905h-.001c-.834 0-1.51.601-1.51 1.342v.001c0 .741.676 1.342 1.51 1.342h.001c.834 0 1.51-.601 1.51-1.342v-.001c0-.741-.676-1.342-1.51-1.342zM30.677 12.476c-.002-1.03-.464-2.016-1.283-2.744s-1.929-1.138-3.088-1.141c-1.159.002-2.27.412-3.089 1.14s-1.281 1.715-1.283 2.745v5.678s8.742-.865 8.743-5.677v-.001zM14.957 20.017c.002.716.323 1.403.893 1.91s1.342.792 2.148.794c.806-.002 1.578-.288 2.148-.794s.891-1.193.893-1.909v-3.951s-6.083.603-6.083 3.95zm3.041.708c-.158 0-.311-.041-.442-.119s-.233-.188-.293-.318c-.06-.129-.076-.272-.045-.409s.107-.263.218-.362c.111-.099.253-.166.408-.194s.315-.013.46.04c.146.054.27.144.357.261s.134.253.134.393c0 .093-.02.186-.06.272s-.098.165-.172.23c-.074.066-.162.118-.259.154s-.201.054-.305.054v-.003zM24.145 20.335h-.587v.606h-.306v-1.484h.966v.248h-.66v.383h.587v.247zm1.47-.102c0 .146-.026.274-.077.384a.583.583 0 0 1-.552.345.589.589 0 0 1-.553-.342.876.876 0 0 1-.081-.379v-.073c0-.146.026-.274.078-.385a.583.583 0 0 1 .553-.346c.123 0 .233.03.329.09.096.059.171.144.223.256s.079.239.079.384v.066zm-.31-.067c0-.156-.028-.274-.084-.355s-.135-.121-.238-.121c-.103 0-.182.04-.237.12s-.084.196-.085.351v.072c0 .151.028.269.084.353s.136.125.241.125c.103 0 .181-.04.236-.12s.083-.198.084-.353v-.072zm1.301.386c0-.058-.02-.102-.061-.133s-.114-.064-.22-.098a1.662 1.662 0 0 1-.252-.102c-.168-.091-.253-.214-.253-.368 0-.08.022-.151.067-.214s.11-.112.195-.148c.085-.035.18-.053.285-.053s.2.019.283.058c.083.038.147.092.193.162s.069.149.069.238h-.306c0-.068-.021-.121-.064-.158s-.103-.057-.18-.057c-.075 0-.133.016-.174.048s-.062.073-.062.124c0 .048.024.089.072.121s.121.063.215.092c.174.052.301.117.38.195s.119.174.119.289c0 .128-.049.229-.146.303s-.228.109-.392.109c-.114 0-.218-.021-.312-.062s-.165-.099-.215-.172a.442.442 0 0 1-.073-.253h.307c0 .164.098.246.293.246.073 0 .129-.015.17-.044s.061-.071.061-.124zm1.632-.847h-.454v1.236h-.306v-1.236h-.448v-.248h1.209v.248zm1.068.594h-.587v.397h.689v.246h-.995v-1.484h.993v.248h-.687v.354h.587v.239zm.83.099h-.244v.543h-.306v-1.484h.551c.175 0 .31.039.406.117s.143.189.143.331c0 .101-.022.186-.066.254s-.11.121-.199.161l.321.606v.014h-.328l-.278-.543zm-.243-.247h.247c.077 0 .136-.019.178-.058s.063-.093.063-.162c0-.07-.02-.125-.06-.165s-.1-.06-.182-.06h-.246v.445zm1.852.268v.523h-.306v-1.484h.579c.111 0 .209.02.294.061a.456.456 0 0 1 .264.43c0 .145-.05.26-.15.344s-.237.125-.413.125h-.268zm0-.248h.273c.081 0 .142-.019.184-.057s.064-.092.064-.163c0-.073-.021-.131-.064-.176s-.102-.068-.177-.069h-.28v.466zm1.934.128h-.587v.397h.689v.246h-.995v-1.484h.993v.248h-.687v.354h.587v.239zm1.419-.594h-.455v1.236h-.306v-1.236h-.448v-.248h1.209v.248zm1.068.594h-.587v.397h.689v.246h-.994v-1.484h.992v.248h-.687v.354h.587v.239zm.83.099h-.243v.543h-.306v-1.484h.551c.175 0 .31.039.406.117s.143.189.143.331c0 .101-.022.186-.066.254s-.11.121-.199.161l.321.606v.014h-.328l-.278-.543zm-.243-.247H37c.077 0 .136-.019.178-.058s.063-.093.063-.162c0-.07-.02-.125-.06-.165s-.1-.06-.182-.06h-.246v.445zm1.796.401c0-.058-.021-.102-.061-.133s-.114-.064-.22-.098a1.602 1.602 0 0 1-.251-.102c-.169-.091-.253-.214-.253-.368 0-.08.022-.151.067-.214s.111-.112.195-.148a.742.742 0 0 1 .285-.053c.106 0 .2.019.283.058s.147.092.192.162c.046.07.07.149.07.238h-.306c0-.068-.022-.121-.064-.158s-.103-.057-.18-.057c-.075 0-.133.016-.174.048s-.062.073-.062.124c0 .048.024.089.072.121s.121.063.215.092c.174.052.301.117.38.195s.119.174.119.289c0 .128-.049.229-.146.303s-.228.109-.392.109c-.114 0-.218-.021-.312-.062s-.165-.099-.215-.172a.442.442 0 0 1-.073-.253h.307c0 .164.098.246.294.246.073 0 .129-.015.17-.044s.061-.071.061-.124z"/></symbol><symbol id="icon-client-5" viewBox="0 0 59 32"><path d="M20.437 21.125c.085.096.13.216.128.34.004.081-.011.161-.045.235s-.086.141-.152.194a.92.92 0 0 1-.575.157h-1.01v-2.154h.989a.904.904 0 0 1 .548.143c.064.049.114.111.148.181s.048.146.044.222a.468.468 0 0 1-.115.329.542.542 0 0 1-.301.168.586.586 0 0 1 .341.184zm-1.184-.325h.423a.43.43 0 0 0 .269-.072.251.251 0 0 0 .091-.211c.003-.039-.003-.078-.019-.114s-.04-.069-.071-.096a.44.44 0 0 0-.277-.073h-.416v.565zm.733.826c.034-.027.061-.061.078-.099s.025-.079.022-.12c.003-.042-.005-.083-.023-.121s-.045-.072-.079-.1a.465.465 0 0 0-.287-.078h-.444v.592h.449a.478.478 0 0 0 .284-.075zM22.459 22.051l-.55-.842h-.207v.842h-.473v-2.154h.896a.942.942 0 0 1 .624.183c.125.117.201.271.213.434s-.04.325-.146.457a.753.753 0 0 1-.427.219l.586.861h-.515zm-.757-1.135h.387c.269 0 .403-.109.403-.326a.304.304 0 0 0-.099-.242.443.443 0 0 0-.305-.087h-.392l.005.655zM25.047 21.618h-.943l-.167.433h-.496l.866-2.129h.537l.863 2.129h-.496l-.163-.433zm-.126-.327-.345-.909-.345.909h.689zM28.286 22.051h-.47l-1.054-1.464v1.464h-.469v-2.154h.469l1.054 1.473v-1.473h.47v2.154zM30.968 21.536a.976.976 0 0 1-.425.38 1.496 1.496 0 0 1-.661.136h-.837v-2.154h.837c.229-.005.455.04.661.133.18.083.328.214.425.376a1.164 1.164 0 0 1 0 1.13zm-.538-.052c.134-.143.208-.325.208-.514s-.074-.371-.208-.514a.865.865 0 0 0-.588-.183h-.326v1.394h.326a.864.864 0 0 0 .588-.183zM25.341 7.919s6.066 2.097 5.937 5.131v5.132s-6.061-2.098-5.935-5.132l-.002-5.131zM36.682 16.98a8.793 8.793 0 0 1 3.854-1.3v-1.607c-1.594.562-2.946 1.582-3.854 2.907z"/><path d="M35.994 17.464c.937-1.729 2.563-3.063 4.542-3.727V9.108s-8.638 2.987-8.456 7.308v7.306s.385-.134.99-.384c0-.234 0-.469.028-.706.179-2.006 1.22-3.865 2.896-5.168z"/><path d="M35.172 20.178a6.919 6.919 0 0 1 .302-1.496c-1.043 1.125-1.675 2.522-1.806 3.993a5.81 5.81 0 0 0-.023.421 25.701 25.701 0 0 0 1.661-.802 6.936 6.936 0 0 1-.134-2.116zM35.515 20.205a6.629 6.629 0 0 0 .107 1.916c2.36-1.293 5.012-3.291 4.91-5.705v-.21c-1.686.173-3.264.848-4.49 1.921a6.711 6.711 0 0 0-.526 2.079z"/></symbol><symbol id="icon-client-6" viewBox="0 0 59 32"><path d="M29.713 15.098a1.024 1.024 0 0 1-.21-.692v-1.003c0-.307.07-.541.209-.701s.379-.239.718-.239c.319 0 .546.068.679.204a.833.833 0 0 1 .201.6v.236h-.571v-.239a1.153 1.153 0 0 0-.017-.234.224.224 0 0 0-.082-.139.33.33 0 0 0-.207-.054.346.346 0 0 0-.217.057.27.27 0 0 0-.095.153 1.15 1.15 0 0 0-.022.248v1.217a.624.624 0 0 0 .073.342c.028.036.068.065.114.083s.097.025.147.019a.314.314 0 0 0 .202-.055.245.245 0 0 0 .085-.148c.013-.081.019-.162.018-.244v-.247h.571v.225a.916.916 0 0 1-.197.63c-.131.149-.355.223-.683.223s-.577-.08-.717-.245zM32.089 15.109c-.144-.156-.216-.384-.216-.685v-1.055c0-.298.072-.523.216-.676s.385-.229.723-.229c.336 0 .575.076.72.229s.217.379.217.676v1.055c0 .298-.073.526-.22.684s-.385.236-.717.236c-.332 0-.578-.08-.723-.235zm.989-.253a.592.592 0 0 0 .069-.312v-1.292a.579.579 0 0 0-.067-.306c-.029-.037-.069-.066-.117-.084s-.099-.024-.151-.018c-.051-.006-.103 0-.151.018s-.088.047-.117.084a.569.569 0 0 0-.069.306v1.298a.572.572 0 0 0 .069.312c.033.033.074.059.12.077a.404.404 0 0 0 .414-.077v-.006zM34.436 12.495h.614l.462 1.946.473-1.946h.598l.061 2.809h-.442l-.047-1.952-.456 1.952h-.354l-.473-1.96-.044 1.96h-.447l.056-2.809zM37.332 12.495h.957c.551 0 .827.266.827.798 0 .509-.29.764-.871.763h-.326v1.249h-.591l.003-2.809zm.818 1.201a.464.464 0 0 0 .325-.089.451.451 0 0 0 .085-.317.88.88 0 0 0-.029-.255c-.008-.028-.023-.054-.043-.077s-.046-.042-.074-.057a.62.62 0 0 0-.264-.045h-.229v.839h.229zM39.968 12.495h.635l.651 2.809h-.551l-.129-.648h-.566l-.133.648h-.559l.651-2.809zm.543 1.836-.221-1.179-.221 1.179h.442zM41.78 12.495h.414l.792 1.603v-1.603h.49v2.809h-.393l-.797-1.673v1.673h-.507l.001-2.809zM44.624 14.233l-.658-1.734h.554l.402 1.114.377-1.114h.543l-.65 1.734v1.071h-.567v-1.071zM30.625 16.533v.147h-.482v1.142h-.202V16.68h-.484v-.147h1.169zM32.137 17.821h-.156a.068.068 0 0 1-.044-.012.063.063 0 0 1-.026-.03l-.139-.306h-.669l-.139.306a.084.084 0 0 1-.021.035.067.067 0 0 1-.044.012h-.156l.591-1.288h.206l.598 1.283zm-.979-.478h.558l-.236-.524a1.097 1.097 0 0 1-.044-.121l-.022.068-.021.054-.234.523zM33.155 17.695a.752.752 0 0 0 .37-.07v-.29h-.236c-.006 0-.012 0-.017-.002s-.011-.004-.015-.008c-.004-.003-.007-.006-.009-.011s-.003-.008-.003-.013v-.099h.458v.494a.822.822 0 0 1-.249.105 1.206 1.206 0 0 1-.32.035.882.882 0 0 1-.298-.048.734.734 0 0 1-.236-.135.609.609 0 0 1-.206-.471.6.6 0 0 1 .205-.473.721.721 0 0 1 .236-.134.995.995 0 0 1 .317-.048c.055 0 .11.004.164.011a.85.85 0 0 1 .259.084.961.961 0 0 1 .103.067l-.057.08a.055.055 0 0 1-.046.025.079.079 0 0 1-.037-.01.48.48 0 0 1-.058-.031.558.558 0 0 0-.188-.064.842.842 0 0 0-.378.025.455.455 0 0 0-.284.262.601.601 0 0 0 0 .43.499.499 0 0 0 .291.264.683.683 0 0 0 .234.026zM35.039 17.674h.645v.147h-.842v-1.288h.202l-.005 1.142zM36.355 17.821h-.202v-1.288h.202v1.288zM37.106 16.539a.104.104 0 0 1 .031.023l.864.971a.353.353 0 0 1 0-.046V16.527h.176v1.294h-.102a.095.095 0 0 1-.044-.007.128.128 0 0 1-.032-.024l-.863-.97v1.002h-.169v-1.289h.105c.011 0 .023.002.033.006zM39.665 16.533v.142h-.716v.425h.58v.137h-.58v.44h.716v.142h-.924v-1.285h.924zM18.491 8.576l8.972 2.199v7.707l-8.972-2.198V8.576zm-.575-.657v8.739l10.122 2.482v-8.738L17.916 7.919z"/><path d="m23.34 23.197-10.123-2.484v-8.739l10.123 2.483v8.74z"/><path d="m18.083 8.477 8.855 2.172-3.766 3.252-8.856-2.173 3.767-3.251zm-.167-.558-4.698 4.056 10.123 2.483 4.697-4.056-10.122-2.483zM23.91 22.706l4.127-3.564-4.127-1.013v4.577z"/></symbol><symbol id="icon-clock-icon" viewBox="0 0 32 32"><path d="M31.297 15.301C31.295 6.849 24.442-.002 15.989 0S.686 6.855.688 15.308a15.304 15.304 0 0 0 10.649 14.576.662.662 0 0 0 .529-.065.637.637 0 0 0 .283-.356l3.865-12.25a1.912 1.912 0 1 0-.84-3.635l-5.106-5.107a.637.637 0 0 0-.902.902l5.103 5.109a1.876 1.876 0 0 0 .536 2.309l-3.683 11.673C3.844 25.783.118 17.71 2.799 10.432S13.553-.572 20.831 2.109s11.004 10.754 8.323 18.032a14.042 14.042 0 0 1-7.462 7.973l-.398-1.874a.638.638 0 0 0-1.048-.344l-3.837 3.426a.637.637 0 0 0 .231 1.084l4.899 1.563a.638.638 0 0 0 .819-.74l-.391-1.839a15.255 15.255 0 0 0 9.329-14.089zm-15.305-.637a.638.638 0 1 1 0 1.277.638.638 0 0 1 0-1.277zm2.101 14.864 2.184-1.948.603 2.84-2.787-.892z"/><path fill="#2196f3" d="M15.354 3.185V4.46a.638.638 0 1 0 1.276 0V3.185a.638.638 0 0 0-1.276 0zM3.876 14.664a.638.638 0 0 0 0 1.276h1.275a.638.638 0 1 0 0-1.276H3.876zM28.108 15.939a.638.638 0 1 0 0-1.276h-1.275a.638.638 0 0 0 0 1.276h1.275z"/></symbol><symbol id="icon-diagram-icon" viewBox="0 0 32 32"><path fill="#2196f3" d="M14.926 14.965h1.066v4.798h-1.066v-4.797zM19.19 17.097h1.066v2.665H19.19v-2.665zM10.661 18.696h1.066v1.066h-1.066v-1.066zM7.463 18.163h1.066v1.599H7.463v-1.599z"/><path d="M1.599 28.291h25.587a1.6 1.6 0 0 0 1.599-1.599V24.56a1.6 1.6 0 0 0-1.599-1.599h-.533V9.668L29.681 6.8a1.608 1.608 0 1 0-.746-.763L26.654 8.2V6.97a1.6 1.6 0 0 0-1.599-1.599H3.733A1.6 1.6 0 0 0 2.134 6.97v15.992h-.533a1.6 1.6 0 0 0-1.599 1.599v2.132a1.6 1.6 0 0 0 1.599 1.599zM30.384 4.837a.533.533 0 1 1 0 1.067.533.533 0 0 1 0-1.067zM3.198 6.969c0-.294.239-.533.533-.533h21.322c.294 0 .533.239.533.533v2.239l-1.066 1.013V8.035a.533.533 0 0 0-.533-.533H4.797a.533.533 0 0 0-.533.533v13.326c0 .294.239.533.533.533h19.19a.533.533 0 0 0 .533-.533v-9.674l1.066-1.01v12.284H3.198V6.969zm4.798 6.93a1.598 1.598 0 1 0 1.107 2.749l1.853.93a.532.532 0 0 0 .636-.123l3.939-4.431 3.872 2.901a.533.533 0 0 0 .686-.039l3.365-3.188v8.131H5.33V8.569h18.124v2.66l-3.771 3.572-3.904-2.927a.533.533 0 0 0-.718.072l-3.993 4.493-1.493-.746c.011-.064.018-.129.02-.193a1.6 1.6 0 0 0-1.599-1.599zm.533 1.599a.533.533 0 1 1-1.067 0 .533.533 0 0 1 1.067 0zm3.198 8.528h5.331v.533a.533.533 0 0 1-.533.533h-4.264a.533.533 0 0 1-.533-.533v-.533zm-10.661.534c0-.294.239-.533.533-.533h9.062v.533a1.6 1.6 0 0 0 1.599 1.599h4.264a1.6 1.6 0 0 0 1.599-1.599v-.533h9.062c.294 0 .533.239.533.533v2.132a.533.533 0 0 1-.533.533H1.598a.533.533 0 0 1-.533-.533V24.56z"/></symbol><symbol id="icon-envelope-icon" viewBox="0 0 43 32"><path d="M38.667 0H4C1.794 0 0 1.794 0 4v24c0 2.206 1.794 4 4 4h34.667c2.206 0 4-1.794 4-4V4c0-2.206-1.794-4-4-4zm0 2.667c.181 0 .353.038.511.103L21.334 18.236 3.49 2.77a1.32 1.32 0 0 1 .511-.103h34.667zm0 26.666H4A1.334 1.334 0 0 1 2.667 28V5.587L20.46 21.008a1.335 1.335 0 0 0 1.748 0L40.001 5.587V28c0 .736-.598 1.333-1.333 1.333z"/></symbol><symbol id="icon-facebook-icon" viewBox="0 0 32 32"><path d="M21.329 5.313h2.921V.225C23.746.156 22.013 0 19.994 0c-4.212 0-7.097 2.649-7.097 7.519V12H8.249v5.688h4.648V32h5.699V17.689h4.46l.708-5.688h-5.169V8.082c.001-1.644.444-2.769 2.735-2.769z"/></symbol><symbol id="icon-instagram-icon" viewBox="0 0 32 32"><path d="M31.969 9.408c-.075-1.7-.35-2.869-.744-3.882a7.806 7.806 0 0 0-1.851-2.838A7.867 7.867 0 0 0 26.542.844C25.523.45 24.36.175 22.66.1 20.947.019 20.403 0 16.059 0s-4.888.019-6.595.094c-1.7.075-2.869.35-3.882.744a7.803 7.803 0 0 0-2.838 1.85A7.867 7.867 0 0 0 .9 5.52C.506 6.539.231 7.702.156 9.402c-.081 1.713-.1 2.257-.1 6.601s.019 4.888.094 6.595c.075 1.7.35 2.869.744 3.882a7.895 7.895 0 0 0 1.85 2.838 7.867 7.867 0 0 0 2.832 1.844c1.019.394 2.182.669 3.882.744 1.706.075 2.25.094 6.595.094s4.888-.019 6.595-.094c1.7-.075 2.869-.35 3.882-.744a8.184 8.184 0 0 0 4.682-4.682c.394-1.019.669-2.182.744-3.882.075-1.707.094-2.251.094-6.595s-.006-4.888-.081-6.595zm-2.882 13.065c-.069 1.563-.331 2.407-.55 2.969a5.31 5.31 0 0 1-3.038 3.038c-.563.219-1.413.481-2.969.55-1.688.075-2.194.094-6.464.094s-4.782-.019-6.464-.094c-1.563-.069-2.407-.331-2.969-.55a4.926 4.926 0 0 1-1.838-1.194 4.974 4.974 0 0 1-1.194-1.838c-.219-.563-.481-1.413-.55-2.969-.075-1.688-.094-2.194-.094-6.464s.019-4.782.094-6.464c.069-1.563.331-2.407.55-2.969a4.868 4.868 0 0 1 1.2-1.838A4.974 4.974 0 0 1 6.639 3.55c.563-.219 1.413-.481 2.969-.55 1.688-.075 2.194-.094 6.464-.094 4.276 0 4.782.019 6.464.094 1.563.069 2.407.331 2.969.55a4.914 4.914 0 0 1 1.838 1.194 4.974 4.974 0 0 1 1.194 1.838c.219.563.481 1.413.55 2.969.075 1.688.094 2.194.094 6.464s-.019 4.77-.094 6.458z"/><path d="M16.059 7.783c-4.538 0-8.22 3.682-8.22 8.22s3.682 8.22 8.22 8.22c4.539 0 8.22-3.682 8.22-8.22s-3.682-8.22-8.22-8.22zm0 13.552a5.333 5.333 0 0 1 0-10.664 5.333 5.333 0 0 1 0 10.664zM26.524 7.458a1.919 1.919 0 1 1-3.838 0 1.919 1.919 0 0 1 3.838 0z"/></symbol><symbol id="icon-linkedin-icon" viewBox="0 0 32 32"><path d="M31.992 32v-.001H32V20.263c0-5.741-1.236-10.164-7.948-10.164-3.227 0-5.392 1.771-6.276 3.449h-.093v-2.913h-6.364v21.364h6.627V21.42c0-2.785.528-5.479 3.977-5.479 3.399 0 3.449 3.179 3.449 5.657v10.401h6.62zM.528 10.636h6.635V32H.528V10.636zM3.843 0C1.722 0 0 1.721 0 3.843s1.721 3.879 3.843 3.879c2.121 0 3.843-1.757 3.843-3.879A3.846 3.846 0 0 0 3.843 0z"/></symbol><symbol id="icon-smartphone-icon" viewBox="0 0 20 32"><path d="M17 0H3C1.346 0 0 1.346 0 3v26c0 1.654 1.346 3 3 3h14c1.654 0 3-1.346 3-3V3c0-1.654-1.346-3-3-3zM3 2h14a1 1 0 0 1 1 1v21H2V3a1 1 0 0 1 1-1zm14 28H3a1 1 0 0 1-1-1v-3h16v3a1 1 0 0 1-1 1z"/><path d="M4.707 27.478c.391.365.391.956 0 1.321s-1.024.365-1.414 0c-.391-.365-.391-.956 0-1.321s1.024-.365 1.414 0z"/></symbol><symbol id="icon-twitter-icon" viewBox="0 0 32 32"><path d="M32 6.078c-1.19.522-2.458.868-3.78 1.036a6.523 6.523 0 0 0 2.886-3.626 13.11 13.11 0 0 1-4.16 1.588A6.574 6.574 0 0 0 22.154 3c-3.632 0-6.556 2.948-6.556 6.562 0 .52.044 1.02.152 1.496-5.454-.266-10.28-2.88-13.522-6.862a6.605 6.605 0 0 0-.898 3.316 6.57 6.57 0 0 0 2.914 5.452 6.479 6.479 0 0 1-2.964-.808v.072c0 3.188 2.274 5.836 5.256 6.446a6.548 6.548 0 0 1-1.72.216 5.8 5.8 0 0 1-1.242-.112c.85 2.598 3.262 4.508 6.13 4.57a13.182 13.182 0 0 1-8.134 2.798c-.538 0-1.054-.024-1.57-.09A18.469 18.469 0 0 0 10.064 29c12.072 0 18.672-10 18.672-18.668 0-.29-.01-.57-.024-.848A13.087 13.087 0 0 0 32 6.078z"/></symbol><symbol id="icon-x-close-modal-icon" viewBox="0 0 18 18"><path d="M15 4.10786L13.8921 3L9.5 7.39214L5.10786 3L4 4.10786L8.39214 8.5L4 12.8921L5.10786 14L9.5 9.60786L13.8921 14L15 12.8921L10.6079 8.5L15 4.10786Z"/><symbol id="icon-astro" viewBox="0 0 32 32"><path fill="#fff" d="m24.529 14.219-.125.093.124-.093zm-1.058-.624-.022.154.021-.154zm-1.194.312zm-1.116.85-.094-.123-.008.006-.007.007.11.11zm0 .001.093.125.009-.007.008-.008-.11-.11zm-1.691 1.256-.057.144.08.032.069-.052-.093-.125zm-1.21-.479-.063-.142-.337.15.343.136.057-.144zm-7.742-2.271-.001.155.29.003-.159-.243-.13.085zm-2.462-.022.001-.155h-.001v.155zm-.025.005.006.155h.004l-.011-.155zm-.139.027-.052-.146-.002.001.054.146zm-.034.012.06.143.003-.001.003-.001-.066-.14zm-.017.005.069.139h.001l-.069-.139zM4.96 14.707l.066.141.001-.001.001-.001-.069-.139zm-.001 0-.066-.141-.001.001.067.14zm-1.687.807.062.143.003-.001.003-.001-.067-.14zm-.056.032.086.13-.086-.129zm-.533 2.035zm.941.788-.046.148.046-.148zm1.228-.114-.073-.137.073.137zm1.237-.654-.071-.138-.002.001.073.137zm2.017-1.037-.001-.155h-.037l-.033.017.071.138zm1.209-.007.109.11.271-.268-.381.002.001.155zm-4.848 4.802-.109-.11-.003.003-.003.003.116.104zm-.002.001-.103-.116-.003.003-.003.003.109.11zm-1.193 1.182zm0 2.089-.109.11.109-.11zm2.103 0 .109.111-.109-.11zm1.171-1.16-.093-.125-.009.007-.008.008.109.11zm1.551-1.153.109-.11-.095-.094-.107.08.093.125zm.802.795.109.11.111-.11-.111-.11-.109.11zM7.33 24.669l-.109-.11-.003.003-.003.004.116.103zm-.002.001-.103-.116-.003.003-.003.003.109.11zm-1.193 1.182zm0 2.089-.109.11.109-.11zm2.103 0 .109.11-.109-.11zm3.103-3.074.109.11-.11-.11zm0-.001-.109-.111-.004.003-.003.004.116.103zm.9-.887.109.111.112-.11-.111-.111-.11.11zm-.003-.003-.11-.11-.111.11.111.11.11-.11zm.019-.014.113.106.001-.001-.114-.105zm4.603-5.016.022-.154-.081-.012-.055.06.114.105zm3.093.438.023-.154h-.001l-.022.154zm.234-.03-.053-.146h-.002l.055.145zm.044-.021-.069-.139-.001.001.071.138zm.051-.024-.086-.13h-.001l.087.129zm2.863-1.891.086.13.002-.001-.087-.129zm.027-.026.094.124.001-.001.001-.001-.096-.122zm.036-.023-.106-.114-.002.001.108.112zm1.132-1.056zM4.406 17.421l-.073-.137.073.137zm-.497.046.047-.148h-.001l-.046.148zm-.38-.318zm.191-.8-.067-.14-.013.006-.011.008.091.125zm1.17-.56.147-.05-.057-.165-.157.075.067.14zm.4 1.164.073.137.117-.062-.043-.126-.147.05zM7.522 15.8l.071.138.082-.042.002-.092-.155-.004zm-1.379.709-.147.05.058.17.16-.082-.071-.138zm-.391-1.137-.069-.139-.123.06.045.13.147-.05zm1.805-.887.155.004.007-.257-.231.113.069.139zM20.442 12.2l-.064.142.137.062.067-.135-.14-.069zm-3.725-1.684-.155.012.007.092.084.038.064-.142zm-.703-1.231-.149-.045-.033.108.093.064.089-.127zm1.305-4.309.047-.148-.15-.047-.046.151.149.045zm-.931-.201.149.045.053-.176-.183-.023-.019.154zM15.112 8.99l-.005.155.119.003.034-.114-.149-.045zm1.391 2.467.064-.142-.128-.058-.07.121.134.078zm3.441 1.556.125.093.116-.155-.176-.08-.064.142zM4.704 23.96l.109.111-.109-.11zm-.761.001-.11.11.001.001.109-.111zm0-.749.109.111-.109-.11zm.857-.849.109-.11-.109-.108-.109.108.109.11zm.759.751.109.11.111-.11-.111-.11-.109.11zm2.009 4.157.109.111-.109-.11zm-.762 0-.11.11.109-.111zm0-.748.109.111-.109-.11zm.858-.851.109-.11-.109-.108-.109.108.109.11zm.759.752.109.11.111-.11-.111-.11-.109.11zm2.247-2.229.103.116.003-.003.003-.003-.109-.111zm-.001.001.109.11-.11-.11zm-1.573 1.56-.109.11.109.108.109-.108-.109-.11zm-.759-.751-.109-.11-.111.11.111.11.109-.11zm1.571-1.556.109.11.046-.046v-.065h-.155zm0-.001-.11-.11-.046.046v.065h.155zm.002-.001.103.116.003-.003.003-.003-.11-.11zm.08-.12.138.072.001-.001.001-.001-.139-.07zm.023-.035.144.059v-.001l-.144-.058zm.023-.114.154.023v-.002l-.154-.02zm-.006-.158-.152.031v.002l.152-.032zm-.017-.085.144-.058v-.001l-.144.059zm-.081-.122.119-.1-.001-.002-.117.102zm-.022-.033.11-.11-.045-.045h-.064v.155zm-.001 0-.103.116.044.039h.059v-.155zm-.001-.002.11-.11-.109.11zm-1.432-1.419-.11.11.109-.11zm-.051-.034-.095.123.001.001.001.001.093-.125zm-.078-.051zm-.083-.029-.042.15h.002l.04-.15zm-.092-.017.012-.155h-.002l-.01.155zm-.085.004-.018-.154h-.001l.018.154zm-.092.018.047.148h.001l-.047-.148zm-.084.04.076.135-.077-.135zm-.055.025-.092-.125.093.125zm-1.58 1.174-.109.11.095.094.107-.08-.093-.125zm-.802-.795-.109-.11-.112.11.111.11.109-.11zm2.137-2.116.109-.111-.109-.107-.109.108.109.11zm3.886 3.802.109.111.113-.111-.113-.111-.109.111zm5.249-5.406.022-.154h-.001l-.021.154zm-.041.002.011-.155h-.002l-.008.155zm-.102.006-.025-.153h-.002l.027.153zm-.079.019.05.147h.001l-.051-.147zm-.086.042.08.133-.08-.133zm-.074.054.102.117.002-.001.001-.001-.105-.115zm-.035.026-.114-.105.114.105zm-4.187 4.563-.109.111.115.112.108-.118-.114-.105zm-3.856-3.774-.109-.11-.112.111.113.11.109-.111zm2.524-2.499.109.11-.109-.11zm.002-.669.11-.11-.11.11zm-.34-.139h-.155v.156l.156-.001-.001-.155zm0 0h.155v-.156l-.156.001.001.155zm-1.977.012-.155-.003-.003.159.159-.001-.001-.155zm.025-1.426.001-.155-.154-.001-.003.154.155.003zm2.766.024.111-.109-.045-.046-.064-.001-.001.155zm5.578 1.754.097-.122-.055-.044-.07.013.028.153zm.116.075-.058.144h.001l.057-.144zm2.147.851.152-.031-.017-.082-.078-.031-.057.144zm.294 1.458-.022.154.218.031-.044-.215-.152.031zm.926-.221-.152.031.046.226.192-.127-.086-.13zm-.279-1.381-.093-.125-.079.059.02.097.152-.031zm1.288-.958.124-.094-.093-.123-.124.092.093.125zm.844 1.114.086.13.138-.091-.1-.132-.124.094zm1.491-1.285zm-.747.696-.124.094.104.137.126-.117-.106-.114zm-.829-1.096-.094-.124-.123.094.093.123.124-.094zm.741-.565.094.123-.094-.123zm.483-.127.022-.154h-.002l-.02.154zm.428.252.124-.093-.124.093zm-9.139 3.325zm-1.91-1.892-.11.11.109-.11zm-.67 0zm-1.909 1.892-.109-.11h-.001l.11.11zm0 .67zm1.909 1.892-.109.11.109-.11zm.67 0-.109-.11.11.11zm1.91-1.892.109.11-.11-.11zm-2.245.889-.109.11.109.108.109-.108-.109-.11zm-1.235-1.224-.109-.11-.111.11.111.11.109-.11zm1.235-1.224.109-.11-.109-.108-.109.108.109.11zm1.236 1.224.109.11.111-.11-.111-.11-.109.11zm4.183-12.281.037-.151-.15-.037-.038.15.151.038zm-.23.918-.151-.038-.038.151.151.037.037-.151zm1.548 1.906h-.155v.155h.155v-.155zm.951 0v.155h.155v-.155h-.155zm-.951.945v-.155h-.155v.155h.155zm.951 0h.155v-.155h-.155v.155zm0 .946v.155h.155v-.155h-.155zm-.951 0h-.155v.155h.155v-.155zm5.534 3.251a1.74 1.74 0 0 0-1.162-.686l-.043.308c.386.054.725.254.956.564l.249-.186zm-1.162-.686a1.749 1.749 0 0 0-1.31.342l.188.247a1.43 1.43 0 0 1 1.078-.282l.044-.308zm-1.309.342-1.115.851.188.247 1.115-.851-.188-.247zm-1.131.864v.001l.219.22v-.001l-.219-.22zm.016-.014-1.691 1.256.185.249 1.691-1.256-.185-.249zm-1.541 1.237-1.21-.479-.114.289 1.21.48.114-.289zm-1.203-.193c2.21-.987 3.757-3.188 3.757-5.745h-.311c0 2.428-1.469 4.522-3.573 5.462l.127.284zm3.757-5.746c0-3.477-2.853-6.303-6.358-6.303v.311c3.336 0 6.047 2.689 6.047 5.992h.311zm-6.358-6.302c-3.505 0-6.358 2.826-6.358 6.303h.311c0-3.302 2.712-5.992 6.047-5.992v-.311zM9.365 9.931c0 1.26.379 2.432 1.023 3.417l.26-.17a5.91 5.91 0 0 1-.973-3.247h-.311zm1.155 3.177-2.463-.021-.003.311 2.463.021.003-.311zm-2.464-.021v.311-.311zm-.004 0a.182.182 0 0 0-.055.009h-.001l.003-.001a.068.068 0 0 1 .022-.003l.022.31a.165.165 0 0 0 .032-.005l.008-.002.002-.001h.001-.002l-.006.002c-.006.001-.015.003-.026.003v-.311zm-.027.004a.626.626 0 0 0-.184.036l.104.293a.351.351 0 0 1 .092-.019l-.012-.31zm-.187.037h-.001l-.008.002a.337.337 0 0 0-.037.014l.133.281-.004.002.004-.001.006-.002.017-.006-.109-.291zm-.04.015.012-.004c.002 0 .003-.001 0 0-.004.001-.02.005-.038.014l.138.278-.016.007-.004.001h-.001.003l.006-.002a.611.611 0 0 0 .02-.007l-.12-.287zm-.025.009-2.881 1.415.137.279 2.881-1.415-.137-.279zm-2.879 1.414h-.001l.132.281h.001l-.132-.281zm-.002.001-1.687.807.134.28 1.687-.807-.134-.28zm-1.681.805a.598.598 0 0 0-.08.044l.172.259a.159.159 0 0 1 .032-.018l-.124-.285zm-.08.044a1.73 1.73 0 0 0-.586 2.236l.276-.142a1.419 1.419 0 0 1 .481-1.835l-.172-.259zm-.586 2.236c.215.417.583.725 1.033.865l.093-.297a1.425 1.425 0 0 1-.849-.711l-.276.142zm1.033.865c.173.054.35.08.526.08v-.311c-.145 0-.291-.022-.434-.066l-.092.297zm.526.081c.284 0 .564-.069.821-.205l-.146-.274a1.443 1.443 0 0 1-.675.169v.311zm.821-.205 1.237-.654-.145-.275-1.237.654.145.275zm1.235-.654 2.017-1.036-.142-.276-2.017 1.036.142.276zm1.947-1.019 1.209-.007-.002-.311-1.209.007.002.311zm1.099-.273-4.849 4.802.219.221 4.849-4.802-.219-.221zm-4.855 4.808.015-.015a.072.072 0 0 1 .015-.011l.017-.01c.001-.001.001 0 0 0l-.002.001-.008.004a.154.154 0 0 0-.027.019l.206.233a.15.15 0 0 1-.026.019l-.007.004-.001.001.018-.01a.15.15 0 0 0 .031-.027l-.232-.207zm.005-.006-1.193 1.182.219.221 1.193-1.182-.219-.221zm-1.193 1.182a1.614 1.614 0 0 0-.483 1.154h.311c0-.353.138-.684.391-.934l-.219-.221zm-.483 1.155c0 .436.172.847.483 1.155l.219-.221a1.306 1.306 0 0 1-.391-.935H2.68zm.483 1.155c.32.317.74.475 1.16.475v-.311c-.342 0-.682-.129-.941-.385l-.219.221zm1.16.476c.42 0 .84-.159 1.161-.475l-.218-.221c-.26.257-.6.386-.943.386v.311zm1.161-.476 1.171-1.16-.219-.221-1.171 1.161.219.221zm1.154-1.146 1.551-1.152-.185-.249-1.551 1.152.185.249zm1.349-1.167.803.796.219-.221-.803-.795-.219.221zm.803.575-1.57 1.555.219.221 1.57-1.555-.219-.221zm-1.576 1.562.015-.015c.005-.005.01-.008.015-.011l.017-.01s.001 0 0 0l-.002.001-.008.004a.154.154 0 0 0-.027.019l.206.233a.15.15 0 0 1-.026.019l-.007.004-.001.001.018-.01a.15.15 0 0 0 .031-.027l-.232-.207zm.005-.006-1.193 1.182.219.221 1.193-1.182-.219-.221zm-1.193 1.182a1.614 1.614 0 0 0-.483 1.154h.311c0-.353.138-.684.391-.934l-.219-.221zm-.483 1.155c0 .436.172.847.483 1.155l.219-.22a1.306 1.306 0 0 1-.391-.935h-.311zm.483 1.155c.32.317.741.475 1.16.475v-.311c-.342 0-.683-.129-.942-.385l-.219.221zm1.161.476c.42 0 .841-.159 1.161-.475l-.218-.221a1.34 1.34 0 0 1-.942.386v.311zm4.263-3.549.012-.013c.004-.004.007-.009.009-.013l.009-.015-.001.002-.004.007-.007.012a.064.064 0 0 1-.01.013l-.232-.207-.011.013c-.004.004-.006.008-.008.012l-.004.008-.001.002c0 .001 0 0 0 0l.002-.005.006-.01.009-.013.011-.013.219.22zm0-.001.9-.887-.218-.221-.9.887.218.221zm.901-1.108-.003-.003-.219.22.003.003.219-.22zm-.004.217a.096.096 0 0 1-.02.016l-.004.003h.001c.002 0 .008-.005.016-.01.008-.006.019-.014.03-.026l-.226-.213a.096.096 0 0 1 .026-.021h.001l-.004.002a.224.224 0 0 0-.038.03l.219.22zm.025-.019 4.603-5.017-.229-.21-4.603 5.017.229.21zm4.466-4.968 3.093.438.044-.308-3.093-.438-.044.308zm3.092.438a.56.56 0 0 0 .09.006v-.311a.304.304 0 0 1-.044-.003l-.046.307zm.09.007a.64.64 0 0 0 .222-.044l-.11-.291a.323.323 0 0 1-.112.024v.311zm.219-.044c.028-.01.053-.024.062-.029l-.141-.277-.012.006-.008.004-.007.003.105.292zm.061-.028.003-.001.005-.002.008-.003c.011-.005.031-.013.052-.027l-.173-.258.002-.001-.005.002-.008.003-.023.01.139.278zm.068-.033 2.863-1.891-.171-.259-2.863 1.892.171.259zm2.865-1.892a.218.218 0 0 0 .044-.041l.001-.001a.056.056 0 0 1-.013.011l-.187-.248c-.012.009-.02.018-.026.024l-.011.013.002-.002c.003-.003.008-.008.016-.013l.174.257zm.035-.033-.01.007c-.001 0 0 0 0 0l.004-.002a.256.256 0 0 0 .053-.037l-.215-.224.016-.012.002-.001-.005.003-.009.005a.196.196 0 0 0-.028.019l.192.244zm.046-.031 1.133-1.056-.212-.227-1.133 1.056.212.227zm1.132-1.056a1.727 1.727 0 0 0 .207-2.301l-.249.186c.434.58.361 1.392-.17 1.887l.212.227zm-20.113.857a.484.484 0 0 1-.378.035l-.093.296a.79.79 0 0 0 .617-.057l-.146-.274zm-.378.034a.482.482 0 0 1-.288-.24l-.276.143c.098.19.266.331.472.394l.092-.297zm-.288-.24a.476.476 0 0 1 .144-.603l-.183-.251a.786.786 0 0 0-.238.997l.276-.143zm.12-.588 1.171-.56-.134-.28-1.171.56.134.28zm1.431.326-.884.468.145.275.884-.468-.145-.275zm2.233-1.154-1.38.709.142.276 1.38-.709-.142-.276zm-1.631-.151 1.806-.887-.137-.279-1.806.887.137.279zm1.582-1.031-.035 1.316.311.008.035-1.316-.311-.008zm13.419-4.55c0 .789-.189 1.534-.518 2.201l.279.137c.348-.707.55-1.498.55-2.338h-.311zm-.315 2.128-3.726-1.684-.128.283 3.726 1.684.128-.283zm-3.634-1.554a1.805 1.805 0 0 0-.768-1.346l-.177.255c.361.251.601.654.636 1.115l.31-.024zm-.709-1.174 1.305-4.309-.297-.09-1.304 4.309.297.09zm1.109-4.206c2.057.651 3.549 2.56 3.549 4.806h.311c0-2.388-1.586-4.412-3.766-5.102l-.094.296zM10.627 9.93c0-2.781 2.285-5.046 5.097-5.046v-.311c-2.98 0-5.408 2.402-5.408 5.357h.311zm5.097-5.046c.217 0 .43.018.645.045l.039-.308a5.436 5.436 0 0 0-.683-.048v.311zm.515-.154-1.276 4.215.297.09 1.276-4.215-.297-.09zm-1.122 4.105-.007-.001c-.008-.001-.027-.004-.048-.004v.311c-.004 0-.006-.001.003.001l.016.002a.176.176 0 0 0 .027.002l.009-.311zm-.056-.006a1.819 1.819 0 0 0-1.824 1.81h.311c0-.826.678-1.5 1.513-1.5v-.311zm-1.824 1.811c0 1 .819 1.81 1.824 1.81v-.311a1.508 1.508 0 0 1-1.513-1.5h-.311zm1.824 1.81a1.82 1.82 0 0 0 1.576-.915l-.269-.156c-.263.453-.748.76-1.308.76v.311zm1.378-.851 3.441 1.556.128-.283-3.441-1.556-.128.283zm3.381 1.321a5.104 5.104 0 0 1-4.096 2.057v.311a5.413 5.413 0 0 0 4.345-2.181l-.249-.186zm-4.096 2.057c-2.812 0-5.097-2.265-5.097-5.046h-.311c0 2.955 2.427 5.357 5.407 5.357v-.311zm-.1-4.337a.56.56 0 0 1-.563.554v.311a.87.87 0 0 0 .873-.865h-.311zm-.563.554a.56.56 0 0 1-.563-.554h-.311a.87.87 0 0 0 .873.865v-.311zm-.563-.554a.56.56 0 0 1 .563-.554v-.311a.87.87 0 0 0-.873.865h.311zm.563-.554a.56.56 0 0 1 .563.554h.311a.87.87 0 0 0-.873-.865v.311zM4.595 23.85a.388.388 0 0 1-.543 0l-.218.221c.27.266.708.267.979-.001l-.218-.221zm-.542.001a.37.37 0 0 1-.111-.265h-.311c0 .183.072.356.203.485l.219-.22zm-.112-.265a.37.37 0 0 1 .11-.263l-.218-.221a.676.676 0 0 0-.203.484h.311zm.111-.263.857-.85-.219-.221-.857.85.219.221zm.639-.85.758.751.219-.221-.758-.751-.219.221zm.758.531-.854.846.219.221.854-.846-.219-.221zm2.01 4.156a.39.39 0 0 1-.544.001l-.218.221a.7.7 0 0 0 .98 0l-.218-.221zm-.543.001a.37.37 0 0 1-.111-.265h-.311c0 .183.072.356.203.485l.219-.22zm-.111-.265c0-.099.039-.192.111-.263l-.218-.221a.676.676 0 0 0-.203.484h.311zm.11-.263.858-.85-.219-.221-.858.85.219.221zm1.398-.32-.855.847.219.221.855-.847-.219-.221zm2.254-2.234.013-.01.011-.007.007-.004.002-.001c.001 0 0 0 0 0l-.015.009-.013.009c-.005.003-.009.008-.013.012l.219.22-.013.011-.013.009-.01.006-.005.002.002-.001.008-.004.012-.008.013-.01-.206-.233zm-.008.007-1.573 1.561.219.221 1.572-1.561-.219-.221zm-2.112 1.029 1.571-1.556-.219-.221-1.571 1.556.219.221zm1.617-1.666h-.311.311zm-.046.109-.013.011-.013.009-.01.006-.005.002.002-.001.008-.004.012-.007.013-.01-.206-.233.013-.01.011-.007.007-.004.002-.001c.001 0 0 0 0 0l-.015.009-.013.009a.049.049 0 0 0-.013.012l.219.22zm.001-.001a.608.608 0 0 0 .108-.158l-.276-.143a.313.313 0 0 1-.052.082l.219.22zm.109-.16c-.003.007-.006.011-.007.011l.003-.004.013-.018c.005-.008.013-.02.019-.035l-.287-.118.009-.017c.002-.002.002-.003 0 0l-.01.013a.19.19 0 0 0-.018.029l.278.14zm.029-.047c.024-.059.03-.13.033-.149l-.307-.046c-.009.057-.008.065-.013.079l.288.117zm.033-.152c0 .002-.001.003 0 0l.004-.014c.003-.012.01-.039.01-.071h-.311c0-.01.002-.015 0-.007l-.002.007-.003.011a.224.224 0 0 0-.006.033l.308.04zm.013-.085a.34.34 0 0 0-.011-.083l-.011-.043-.304.064.007.03.005.02.002.011h.311zm-.021-.124-.005-.035a.381.381 0 0 0-.02-.077l-.288.116.001.007.003.02.005.031.305-.061zm-.025-.112c-.028-.069-.074-.125-.106-.164l-.238.2a.346.346 0 0 1 .056.08l.288-.117zm-.107-.166.009.013-.002-.003a.217.217 0 0 0-.038-.052l-.219.22c-.007-.007-.011-.013-.013-.016l-.002-.003.003.005a.09.09 0 0 0 .005.009c.005.007.011.018.021.029l.235-.203zm-.14-.087h-.001v.311h.001v-.311zm.102.039c.011.009.019.019.025.028l.012.021c.003.005.004.01.005.013l.002.005-.001-.002-.004-.011a.16.16 0 0 0-.034-.049l-.219.22a.156.156 0 0 1-.032-.048l-.004-.01-.001-.002s0-.001 0 0l.002.005.006.013.013.022a.153.153 0 0 0 .025.028l.206-.233zm.006.004-1.432-1.419-.219.221 1.432 1.419.219-.221zm-1.432-1.418a.237.237 0 0 0-.059-.043l-.011-.006.001.001-.186.249a.303.303 0 0 0 .028.018l.009.005.006.003c.007.004 0 .001-.008-.007l.219-.22zm-.066-.047a.585.585 0 0 0-.104-.068l-.137.279a.257.257 0 0 1 .051.035l.19-.246zm-.105-.068a.575.575 0 0 0-.111-.039l-.08.3a.318.318 0 0 1 .055.018l.137-.279zm-.109-.038a.647.647 0 0 0-.122-.023l-.023.31a.294.294 0 0 1 .061.012l.084-.299zm-.124-.023c-.045-.003-.084.002-.113.005l.035.309c.029-.003.044-.005.057-.004l.02-.31zm-.113.005a.702.702 0 0 0-.122.024l.095.296a.372.372 0 0 1 .063-.012l-.037-.308zm-.121.024a.56.56 0 0 0-.114.053l.153.27a.32.32 0 0 1 .054-.027l-.094-.296zm-.114.052.003-.002-.011.004a.235.235 0 0 0-.063.034l.185.25c-.009.007-.017.009-.009.006l.006-.003a.21.21 0 0 0 .041-.019l-.153-.271zm-.07.036-1.58 1.174.185.249 1.58-1.174-.185-.249zm-1.378 1.188-.803-.795-.219.221.803.795.219-.221zm-.803-.574 2.138-2.116-.219-.221-2.138 2.116.219.221zm1.92-2.115 3.885 3.802.217-.222-3.885-3.802-.217.222zm3.885 3.581-.826.815.218.221.826-.815-.218-.221zm5.379-5.45c-.016-.002-.03-.002-.041-.001l-.022.002h-.003.015l-.021.31c.015.001.027 0 .036-.001l.017-.002h-.002l-.021-.001.042-.308zm-.053.001a.607.607 0 0 0-.136.008l.05.307a.28.28 0 0 1 .069-.004l.017-.31zm-.138.008a.66.66 0 0 0-.103.025l.103.293a.279.279 0 0 1 .054-.012l-.053-.306zm-.102.025a.568.568 0 0 0-.116.056l.161.266a.254.254 0 0 1 .056-.027l-.101-.294zm-.116.056a.627.627 0 0 0-.099.073l.21.229a.309.309 0 0 1 .05-.036l-.161-.266zm-.096.07.007-.006-.001.001-.002.001-.003.002c-.007.005-.029.018-.049.04l.228.211c-.005.006-.01.009-.013.012s-.004.003-.002.001l.002-.001.003-.002.008-.005a.275.275 0 0 0 .025-.019l-.204-.235zm-.048.038-4.186 4.562.229.21 4.186-4.562-.229-.21zm-3.963 4.556L8.395 18.8l-.217.222 3.856 3.774.217-.222zm-3.856-3.552 2.524-2.499-.219-.221-2.524 2.499.219.221zm2.525-2.499a.627.627 0 0 0 .002-.889l-.22.22a.317.317 0 0 1-.001.449l.219.221zm.001-.889a.634.634 0 0 0-.45-.184l.001.311c.084 0 .167.031.23.093l.219-.22zm-.294-.029h-.311.311zm-.156-.156-1.977.012.002.311 1.977-.012-.002-.311zm-1.821.17.025-1.425-.311-.005-.025 1.425.311.005zm-.132-1.272 2.766.024.003-.311-2.766-.024-.003.311zm2.657-.023a6.36 6.36 0 0 0 4.549 1.909v-.311a6.05 6.05 0 0 1-4.328-1.816l-.222.218zm4.549 1.909c.4 0 .79-.041 1.168-.111l-.057-.305a6.101 6.101 0 0 1-1.112.106v.311zm1.043-.143c.031.025.084.07.154.098l.116-.288a.327.327 0 0 1-.077-.053l-.193.243zm.155.099 2.147.851.114-.289-2.147-.851-.114.289zm2.521 2.01-2.675-.379-.044.308 2.675.379.044-.308zm1.056-.098-.279-1.381-.304.061.279 1.381.304-.061zm-.339-1.226 1.289-.957-.185-.249-1.289.958.185.249zm1.954-.098-1.853 1.225.171.259 1.853-1.225-.171-.259zm1.471-1.269-.747.696.212.227.747-.696-.212-.227zm-.517.716-.83-1.096-.248.188.83 1.096.248-.188zm-.859-.879.741-.565-.188-.247-.741.565.188.247zm.741-.565a.5.5 0 0 1 .369-.096l.04-.308a.81.81 0 0 0-.598.157l.189.247zm.368-.096a.486.486 0 0 1 .325.191l.249-.186a.799.799 0 0 0-.531-.313l-.043.308zm.325.191a.475.475 0 0 1-.057.633l.212.227a.786.786 0 0 0 .095-1.046l-.249.186zm-8.906 3.121-1.909-1.892-.219.221 1.909 1.892.219-.221zm-1.909-1.891a.633.633 0 0 0-.89 0l.219.221a.321.321 0 0 1 .452 0l.219-.22zm-.89 0-1.909 1.891.219.221 1.909-1.892-.219-.221zm-1.909 1.892a.628.628 0 0 0-.185.445h.311c0-.084.034-.165.094-.225l-.22-.22zm-.185.445c0 .167.066.327.186.446l.219-.221a.315.315 0 0 1-.094-.225h-.311zm.185.446 1.909 1.891.219-.221-1.909-1.892-.219.221zm1.909 1.891a.632.632 0 0 0 .445.183v-.311a.319.319 0 0 1-.226-.093l-.219.221zm.445.183c.16 0 .322-.061.445-.183l-.219-.22a.32.32 0 0 1-.226.092v.311zm.445-.183 1.909-1.891-.219-.221-1.909 1.892.219.221zm1.909-1.892a.63.63 0 0 0 .186-.445h-.311a.319.319 0 0 1-.094.225l.219.22zm.186-.445a.625.625 0 0 0-.186-.445l-.219.221c.06.06.094.141.094.225h.311zm-2.43 1.114-1.236-1.224-.219.221 1.236 1.224.219-.221zm-1.236-1.004 1.236-1.224-.219-.221-1.236 1.224.219.221zm1.017-1.224 1.236 1.224.219-.221-1.236-1.224-.219.221zm1.236 1.004-1.236 1.224.219.221 1.236-1.224-.219-.221zm4.141-12.209-.23.918.301.075.23-.918-.301-.075zm-.116 1.107c.023.006.387.099.742.367.35.265.689.695.689 1.387h.311c0-.813-.404-1.327-.812-1.635a2.576 2.576 0 0 0-.854-.421l-.075.302zm1.585 1.91h.951v-.311h-.951v.311zm1.106-.155c0-1.892-1.57-2.772-2.387-2.974l-.075.302c.752.186 2.151.988 2.151 2.673h.311zm-1.106 1.101h.95v-.311h-.95v.311zm.796-.156v.946h.311V9.93h-.311zm.155.791h-.95v.311h.95v-.311zm-.795.155V9.93h-.311v.946h.311zM8.348 28.051l3.102-3.074-.219-.221-3.102 3.074.219.221zM4.743 15.84l.4 1.164.294-.101-.4-1.164-.294.101zm1.547.619-.391-1.138-.294.101.391 1.138.294-.101zm1.265 9.324.759.751.219-.221-.759-.751-.219.221zm1.65-.137-.759-.751-.219.221.759.751.219-.221zm9.769-8.72.295 1.457.304-.061-.295-1.457-.304.061zm2.258-1.039.843 1.114.248-.188-.843-1.114-.248.188z" style="fill:var(--color1, #fff)"/><path fill="#ff6b00" d="m29.935 6.285.148-.048-.148.049zm-.382-.32.022-.154-.022.154zM27.86 5.72l-.139.069.036.073.081.012.022-.154zm-.758-1.525-.139.069.139-.069zm-.849 0 .139.069-.139-.069zm-.758 1.525.022.154.081-.012.036-.073-.139-.069zm-1.693.245-.022-.154.022.154zm-.383.32-.147-.049v.001l.148.048zm.12.481.108-.112-.108.112zm1.226 1.188.153.026.014-.081-.059-.057-.108.112zm-.289 1.677zm.188.46-.091.126.091-.126zm.498.035-.072-.138.072.138zm1.515-.792.072-.138-.072-.038-.072.038.072.138zm1.515.792.072-.138-.072.138zm.499-.035-.091-.126.091.126zm.188-.46-.153.026.153-.027zm-.29-1.677-.108-.112-.059.057.014.081.153-.026zm1.226-1.188.108.112-.108-.111zm-2.064.688.108.112-.108-.112zm-.135.416.153-.026-.153.027zm.169.982-.072.138.278.145-.053-.309-.153.026zm-.887-.464-.072.138.072-.138zm-.441 0-.072-.138.072.138zm-.887.464-.153-.026-.053.309.278-.145-.072-.138zm.169-.982-.153-.027.153.026zm-.136-.416.108-.111-.108.112zm-.718-.696-.022-.154-.313.045.227.22.108-.112zm.992-.143-.022-.154.022.154zm.356-.257zm.444-.893.139-.069-.139-.28-.139.28.139.069zm.443.893-.139.069.139-.069zm.357.257.022-.154-.022.154zm.992.143.108.112.227-.22-.313-.045-.022.154zm-4.658 13.624v-.155h-.155v.155h.155zm.945 0h.155v-.155h-.155v.155zm0 2.82v.155h.155v-.155h-.155zm-.945 0h-.155v.155h.155v-.155zm1.891-1.88h.155v-.155h-.155v.155zm0 .94v.155h.155v-.155h-.155zm-2.837-.94v-.155h-.155v.155h.155zm0 .94h-.155v.155h.155v-.155zm-2.365 3.29v-.155h-.155v.155h.155zm.946 0h.155v-.155h-.155v.155zm0 2.819v.155h.155v-.155h-.155zm-.946 0h-.155v.155h.155v-.155zm1.892-1.88h.155v-.155h-.155v.155zm0 .94v.155h.155v-.155h-.155zm-2.837-.94v-.155H19.4v.155h.155zm0 .94H19.4v.155h.155v-.155zm-4.729-3.759v-.155h-.155v.155h.155zm.945 0h.155v-.155h-.155v.155zm0 2.819v.155h.155v-.155h-.155zm-.945 0h-.155v.155h.155v-.155zm1.891-1.879h.155v-.155h-.155v.155zm0 .94v.155h.155v-.155h-.155zm-2.837-.94v-.155h-.155v.155h.155zm0 .94h-.155v.155h.155v-.155zM5.841 7.693v-.155h-.155v.155h.155zm.946 0h.155v-.155h-.155v.155zm0 2.82v.155h.155v-.155h-.155zm-.946 0h-.155v.155h.155v-.155zm1.891-1.88h.155v-.155h-.155v.155zm0 .94v.155h.155v-.155h-.155zm-2.837-.94v-.155H4.74v.155h.155zm0 .94H4.74v.155h.155v-.155zm25.187-3.337a.628.628 0 0 0-.507-.425l-.045.307c.12.017.219.101.256.214l.295-.097zm-.506-.425-1.694-.245-.045.307 1.694.245.044-.307zm-1.577-.16-.758-1.526-.278.138.758 1.526.278-.138zm-.758-1.525c-.112-.226-.348-.328-.563-.328s-.451.101-.563.328l.279.138c.047-.095.156-.155.285-.155s.238.06.285.155l.279-.138zm-1.127-.001-.758 1.526.278.138.758-1.526-.278-.138zm-.641 1.441-1.694.245.044.308 1.694-.245-.045-.307zm-1.694.245a.628.628 0 0 0-.507.425l.295.098a.32.32 0 0 1 .257-.215l-.045-.307zm-.507.426a.624.624 0 0 0 .16.642l.216-.224a.313.313 0 0 1-.08-.322l-.295-.096zm.159.641 1.226 1.188.216-.223-1.226-1.188-.216.223zm1.181 1.05-.289 1.677.306.053.289-1.677-.306-.053zm-.289 1.677a.626.626 0 0 0 .25.612l.182-.252a.314.314 0 0 1-.126-.308l-.306-.053zm.25.611c.195.141.45.158.662.047l-.144-.275a.317.317 0 0 1-.335-.024l-.182.252zm.661.048 1.515-.792-.144-.275-1.515.792.144.275zm1.371-.792 1.515.792.144-.275-1.515-.792-.144.275zm1.515.792a.634.634 0 0 0 .293.072v-.311a.32.32 0 0 1-.148-.036l-.144.275zm.293.072c.129 0 .26-.04.369-.119l-.182-.251a.318.318 0 0 1-.187.06v.311zm.369-.12a.624.624 0 0 0 .25-.612l-.306.053a.314.314 0 0 1-.126.307l.182.252zm.25-.612-.289-1.677-.306.053.289 1.677.306-.053zm-.335-1.538 1.226-1.188-.216-.223-1.226 1.188.216.223zm1.227-1.188a.623.623 0 0 0 .159-.641l-.295.096a.314.314 0 0 1-.08.322l.217.223zm-2.281.464a.624.624 0 0 0-.181.554l.306-.053a.311.311 0 0 1 .091-.278l-.216-.223zm-.181.554.169.982.306-.053-.169-.982-.306.053zm.395.818-.887-.463-.144.275.887.463.144-.275zm-.887-.463a.631.631 0 0 0-.293-.072v.311a.32.32 0 0 1 .148.036l.144-.275zm-.293-.072c-.1 0-.2.024-.292.072l.143.276a.316.316 0 0 1 .149-.037v-.311zm-.292.072-.887.463.144.275.887-.463-.144-.275zm-.662.627.169-.982-.306-.053-.169.982.306.053zm.169-.982a.627.627 0 0 0-.18-.554l-.217.223a.312.312 0 0 1 .091.278l.306.053zm-.181-.554-.718-.696-.216.223.718.696.216-.223zm-.804-.43.992-.143-.044-.307-.992.143.044.307zm.992-.143a.626.626 0 0 0 .473-.342l-.278-.138a.317.317 0 0 1-.239.173l.044.308zm.473-.342.444-.893-.278-.138-.444.893.278.138zm.166-.893.444.893.278-.138-.444-.893-.278.138zm.443.893a.63.63 0 0 0 .473.342l.044-.308a.318.318 0 0 1-.239-.173l-.278.139zm.473.342.992.143.044-.307-.992-.143-.044.307zm.906-.122-.717.696.216.223.717-.696-.216-.223zm-4.549 13.89h.946v-.311h-.946v.311zm.79-.155v.94h.311v-.94h-.311zm.155.784h-.946v.311h.946v-.311zm-.79.156v-.94h-.311v.94h.311zm-.155 1.095h.946v-.311h-.946v.311zm.79-.155v.94h.311v-.94h-.311zm.155.784h-.946v.311h.946v-.311zm-.79.156v-.94h-.311v.94h.311zm.79-1.725h.946v-.311h-.946v.311zm.791-.155v.94h.311v-.94h-.311zm.155.784h-.946v.311h.946v-.311zm-.79.156v-.94h-.311v.94h.311zm-2.047-.785h.946v-.311h-.946v.311zm.79-.155v.94h.311v-.94h-.311zm.156.784h-.946v.311h.946v-.311zm-.791.156v-.94h-.311v.94h.311zm-2.52 3.445h.946v-.311H20.5v.311zm.791-.155v.94h.311v-.94h-.311zm.155.784H20.5v.311h.946v-.311zm-.79.155v-.94h-.311v.94h.311zm-.156 1.096h.946v-.311H20.5v.311zm.791-.156v.94h.311v-.94h-.311zm.155.785H20.5v.311h.946v-.311zm-.79.155v-.94h-.311v.94h.311zm.79-1.724h.946v-.311h-.946v.311zm.791-.156v.94h.311v-.94h-.311zm.155.785h-.946v.311h.946v-.311zm-.79.155v-.94h-.311v.94h.311zm-2.047-.784h.946v-.311h-.946v.311zm.79-.156v.94h.311v-.94h-.311zm.155.785h-.946v.311h.946v-.311zm-.79.155v-.94h-.311v.94h.311zm-4.884-3.604h.946v-.311h-.946v.311zm.79-.155v.94h.311v-.94h-.311zm.155.784h-.946v.311h.946v-.311zm-.79.156v-.94h-.311v.94h.311zm-.155 1.095h.946v-.311h-.946v.311zm.79-.155v.94h.311v-.94h-.311zm.155.784h-.946v.311h.946v-.311zm-.79.155v-.94h-.311v.94h.311zm.79-1.724h.946v-.311h-.946v.311zm.791-.155v.94h.311v-.94h-.311zm.155.784h-.946v.311h.946v-.311zm-.79.156v-.94h-.311v.94h.311zm-2.047-.785h.946v-.311h-.946v.311zm.79-.155v.94h.311v-.94h-.311zm.156.784h-.946v.311h.946v-.311zm-.791.156v-.94h-.311v.94h.311zM5.841 7.848h.946v-.311h-.946v.311zm.79-.155v.94h.311v-.94h-.311zm.156.784h-.946v.311h.946v-.311zm-.791.156v-.94h-.311v.94h.311zm-.155 1.095h.946v-.311h-.946v.311zm.79-.155v.94h.311v-.94h-.311zm.156.784h-.946v.311h.946v-.311zm-.791.156v-.94h-.311v.94h.311zm.791-1.725h.946v-.311h-.946v.311zm.79-.155v.94h.311v-.94h-.311zm.155.784h-.946v.311h.946v-.311zm-.79.156v-.94h-.311v.94h.311zm-2.047-.785h.946v-.311h-.946v.311zm.79-.155v.94h.311v-.94h-.311zm.156.784h-.946v.311h.946v-.311zm-.791.156v-.94h-.311v.94h.311z" style="fill:var(--color2, #ff6b00)"/></symbol><symbol id="icon-diagram-statistics" viewBox="0 0 41 32"><path fill="#ff6b00" d="m29.935 6.285.148-.048-.148.049zm-.382-.32.022-.154-.022.154zM27.86 5.72l-.139.069.036.073.081.012.022-.154zm-.758-1.525-.139.069.139-.069zm-.849 0 .139.069-.139-.069zm-.758 1.525.022.154.081-.012.036-.073-.139-.069zm-1.693.245-.022-.154.022.154zm-.383.32-.147-.049v.001l.148.048zm.12.481.108-.112-.108.112zm1.226 1.188.153.026.014-.081-.059-.057-.108.112zm-.289 1.677zm.188.46-.091.126.091-.126zm.498.035-.072-.138.072.138zm1.515-.792.072-.138-.072-.038-.072.038.072.138zm1.515.792.072-.138-.072.138zm.499-.035-.091-.126.091.126zm.188-.46-.153.026.153-.027zm-.29-1.677-.108-.112-.059.057.014.081.153-.026zm1.226-1.188.108.112-.108-.111zm-2.064.688.108.112-.108-.112zm-.135.416.153-.026-.153.027zm.169.982-.072.138.278.145-.053-.309-.153.026zm-.887-.464-.072.138.072-.138zm-.441 0-.072-.138.072.138zm-.887.464-.153-.026-.053.309.278-.145-.072-.138zm.169-.982-.153-.027.153.026zm-.136-.416.108-.111-.108.112zm-.718-.696-.022-.154-.313.045.227.22.108-.112zm.992-.143-.022-.154.022.154zm.356-.257zm.444-.893.139-.069-.139-.28-.139.28.139.069zm.443.893-.139.069.139-.069zm.357.257.022-.154-.022.154zm.992.143.108.112.227-.22-.313-.045-.022.154zm-4.658 13.624v-.155h-.155v.155h.155zm.945 0h.155v-.155h-.155v.155zm0 2.82v.155h.155v-.155h-.155zm-.945 0h-.155v.155h.155v-.155zm1.891-1.88h.155v-.155h-.155v.155zm0 .94v.155h.155v-.155h-.155zm-2.837-.94v-.155h-.155v.155h.155zm0 .94h-.155v.155h.155v-.155zm-2.365 3.29v-.155h-.155v.155h.155zm.946 0h.155v-.155h-.155v.155zm0 2.819v.155h.155v-.155h-.155zm-.946 0h-.155v.155h.155v-.155zm1.892-1.88h.155v-.155h-.155v.155zm0 .94v.155h.155v-.155h-.155zm-2.837-.94v-.155H19.4v.155h.155zm0 .94H19.4v.155h.155v-.155zm-4.729-3.759v-.155h-.155v.155h.155zm.945 0h.155v-.155h-.155v.155zm0 2.819v.155h.155v-.155h-.155zm-.945 0h-.155v.155h.155v-.155zm1.891-1.879h.155v-.155h-.155v.155zm0 .94v.155h.155v-.155h-.155zm-2.837-.94v-.155h-.155v.155h.155zm0 .94h-.155v.155h.155v-.155zM5.841 7.693v-.155h-.155v.155h.155zm.946 0h.155v-.155h-.155v.155zm0 2.82v.155h.155v-.155h-.155zm-.946 0h-.155v.155h.155v-.155zm1.891-1.88h.155v-.155h-.155v.155zm0 .94v.155h.155v-.155h-.155zm-2.837-.94v-.155H4.74v.155h.155zm0 .94H4.74v.155h.155v-.155zm25.187-3.337a.628.628 0 0 0-.507-.425l-.045.307c.12.017.219.101.256.214l.295-.097zm-.506-.425-1.694-.245-.045.307 1.694.245.044-.307zm-1.577-.16-.758-1.526-.278.138.758 1.526.278-.138zm-.758-1.525c-.112-.226-.348-.328-.563-.328s-.451.101-.563.328l.279.138c.047-.095.156-.155.285-.155s.238.06.285.155l.279-.138zm-1.127-.001-.758 1.526.278.138.758-1.526-.278-.138zm-.641 1.441-1.694.245.044.308 1.694-.245-.045-.307zm-1.694.245a.628.628 0 0 0-.507.425l.295.098a.32.32 0 0 1 .257-.215l-.045-.307zm-.507.426a.624.624 0 0 0 .16.642l.216-.224a.313.313 0 0 1-.08-.322l-.295-.096zm.159.641 1.226 1.188.216-.223-1.226-1.188-.216.223zm1.181 1.05-.289 1.677.306.053.289-1.677-.306-.053zm-.289 1.677a.626.626 0 0 0 .25.612l.182-.252a.314.314 0 0 1-.126-.308l-.306-.053zm.25.611c.195.141.45.158.662.047l-.144-.275a.317.317 0 0 1-.335-.024l-.182.252zm.661.048 1.515-.792-.144-.275-1.515.792.144.275zm1.371-.792 1.515.792.144-.275-1.515-.792-.144.275zm1.515.792a.634.634 0 0 0 .293.072v-.311a.32.32 0 0 1-.148-.036l-.144.275zm.293.072c.129 0 .26-.04.369-.119l-.182-.251a.318.318 0 0 1-.187.06v.311zm.369-.12a.624.624 0 0 0 .25-.612l-.306.053a.314.314 0 0 1-.126.307l.182.252zm.25-.612-.289-1.677-.306.053.289 1.677.306-.053zm-.335-1.538 1.226-1.188-.216-.223-1.226 1.188.216.223zm1.227-1.188a.623.623 0 0 0 .159-.641l-.295.096a.314.314 0 0 1-.08.322l.217.223zm-2.281.464a.624.624 0 0 0-.181.554l.306-.053a.311.311 0 0 1 .091-.278l-.216-.223zm-.181.554.169.982.306-.053-.169-.982-.306.053zm.395.818-.887-.463-.144.275.887.463.144-.275zm-.887-.463a.631.631 0 0 0-.293-.072v.311a.32.32 0 0 1 .148.036l.144-.275zm-.293-.072c-.1 0-.2.024-.292.072l.143.276a.316.316 0 0 1 .149-.037v-.311zm-.292.072-.887.463.144.275.887-.463-.144-.275zm-.662.627.169-.982-.306-.053-.169.982.306.053zm.169-.982a.627.627 0 0 0-.18-.554l-.217.223a.312.312 0 0 1 .091.278l.306.053zm-.181-.554-.718-.696-.216.223.718.696.216-.223zm-.804-.43.992-.143-.044-.307-.992.143.044.307zm.992-.143a.626.626 0 0 0 .473-.342l-.278-.138a.317.317 0 0 1-.239.173l.044.308zm.473-.342.444-.893-.278-.138-.444.893.278.138zm.166-.893.444.893.278-.138-.444-.893-.278.138zm.443.893a.63.63 0 0 0 .473.342l.044-.308a.318.318 0 0 1-.239-.173l-.278.139zm.473.342.992.143.044-.307-.992-.143-.044.307zm.906-.122-.717.696.216.223.717-.696-.216-.223zm-4.549 13.89h.946v-.311h-.946v.311zm.79-.155v.94h.311v-.94h-.311zm.155.784h-.946v.311h.946v-.311zm-.79.156v-.94h-.311v.94h.311zm-.155 1.095h.946v-.311h-.946v.311zm.79-.155v.94h.311v-.94h-.311zm.155.784h-.946v.311h.946v-.311zm-.79.156v-.94h-.311v.94h.311zm.79-1.725h.946v-.311h-.946v.311zm.791-.155v.94h.311v-.94h-.311zm.155.784h-.946v.311h.946v-.311zm-.79.156v-.94h-.311v.94h.311zm-2.047-.785h.946v-.311h-.946v.311zm.79-.155v.94h.311v-.94h-.311zm.156.784h-.946v.311h.946v-.311zm-.791.156v-.94h-.311v.94h.311zm-2.52 3.445h.946v-.311H20.5v.311zm.791-.155v.94h.311v-.94h-.311zm.155.784H20.5v.311h.946v-.311zm-.79.155v-.94h-.311v.94h.311zm-.156 1.096h.946v-.311H20.5v.311zm.791-.156v.94h.311v-.94h-.311zm.155.785H20.5v.311h.946v-.311zm-.79.155v-.94h-.311v.94h.311zm.79-1.724h.946v-.311h-.946v.311zm.791-.156v.94h.311v-.94h-.311zm.155.785h-.946v.311h.946v-.311zm-.79.155v-.94h-.311v.94h.311zm-2.047-.784h.946v-.311h-.946v.311zm.79-.156v.94h.311v-.94h-.311zm.155.785h-.946v.311h.946v-.311zm-.79.155v-.94h-.311v.94h.311zm-4.884-3.604h.946v-.311h-.946v.311zm.79-.155v.94h.311v-.94h-.311zm.155.784h-.946v.311h.946v-.311zm-.79.156v-.94h-.311v.94h.311zm-.155 1.095h.946v-.311h-.946v.311zm.79-.155v.94h.311v-.94h-.311zm.155.784h-.946v.311h.946v-.311zm-.79.155v-.94h-.311v.94h.311zm.79-1.724h.946v-.311h-.946v.311zm.791-.155v.94h.311v-.94h-.311zm.155.784h-.946v.311h.946v-.311zm-.79.156v-.94h-.311v.94h.311zm-2.047-.785h.946v-.311h-.946v.311zm.79-.155v.94h.311v-.94h-.311zm.156.784h-.946v.311h.946v-.311zm-.791.156v-.94h-.311v.94h.311zM5.841 7.848h.946v-.311h-.946v.311zm.79-.155v.94h.311v-.94h-.311zm.156.784h-.946v.311h.946v-.311zm-.791.156v-.94h-.311v.94h.311zm-.155 1.095h.946v-.311h-.946v.311zm.79-.155v.94h.311v-.94h-.311zm.156.784h-.946v.311h.946v-.311zm-.791.156v-.94h-.311v.94h.311zm.791-1.725h.946v-.311h-.946v.311zm.79-.155v.94h.311v-.94h-.311zm.155.784h-.946v.311h.946v-.311zm-.79.156v-.94h-.311v.94h.311zm-2.047-.785h.946v-.311h-.946v.311zm.79-.155v.94h.311v-.94h-.311zm.156.784h-.946v.311h.946v-.311zm-.791.156v-.94h-.311v.94h.311z" style="fill:var(--color2, #ff6b00)"/></symbol><symbol id="icon-timer" viewBox="0 0 32 32"><path fill="#ff6b00" d="m29.935 6.285.148-.048-.148.049zm-.382-.32.022-.154-.022.154zM27.86 5.72l-.139.069.036.073.081.012.022-.154zm-.758-1.525-.139.069.139-.069zm-.849 0 .139.069-.139-.069zm-.758 1.525.022.154.081-.012.036-.073-.139-.069zm-1.693.245-.022-.154.022.154zm-.383.32-.147-.049v.001l.148.048zm.12.481.108-.112-.108.112zm1.226 1.188.153.026.014-.081-.059-.057-.108.112zm-.289 1.677zm.188.46-.091.126.091-.126zm.498.035-.072-.138.072.138zm1.515-.792.072-.138-.072-.038-.072.038.072.138zm1.515.792.072-.138-.072.138zm.499-.035-.091-.126.091.126zm.188-.46-.153.026.153-.027zm-.29-1.677-.108-.112-.059.057.014.081.153-.026zm1.226-1.188.108.112-.108-.111zm-2.064.688.108.112-.108-.112zm-.135.416.153-.026-.153.027zm.169.982-.072.138.278.145-.053-.309-.153.026zm-.887-.464-.072.138.072-.138zm-.441 0-.072-.138.072.138zm-.887.464-.153-.026-.053.309.278-.145-.072-.138zm.169-.982-.153-.027.153.026zm-.136-.416.108-.111-.108.112zm-.718-.696-.022-.154-.313.045.227.22.108-.112zm.992-.143-.022-.154.022.154zm.356-.257zm.444-.893.139-.069-.139-.28-.139.28.139.069zm.443.893-.139.069.139-.069zm.357.257.022-.154-.022.154zm.992.143.108.112.227-.22-.313-.045-.022.154zm-4.658 13.624v-.155h-.155v.155h.155zm.945 0h.155v-.155h-.155v.155zm0 2.82v.155h.155v-.155h-.155zm-.945 0h-.155v.155h.155v-.155zm1.891-1.88h.155v-.155h-.155v.155zm0 .94v.155h.155v-.155h-.155zm-2.837-.94v-.155h-.155v.155h.155zm0 .94h-.155v.155h.155v-.155zm-2.365 3.29v-.155h-.155v.155h.155zm.946 0h.155v-.155h-.155v.155zm0 2.819v.155h.155v-.155h-.155zm-.946 0h-.155v.155h.155v-.155zm1.892-1.88h.155v-.155h-.155v.155zm0 .94v.155h.155v-.155h-.155zm-2.837-.94v-.155H19.4v.155h.155zm0 .94H19.4v.155h.155v-.155zm-4.729-3.759v-.155h-.155v.155h.155zm.945 0h.155v-.155h-.155v.155zm0 2.819v.155h.155v-.155h-.155zm-.945 0h-.155v.155h.155v-.155zm1.891-1.879h.155v-.155h-.155v.155zm0 .94v.155h.155v-.155h-.155zm-2.837-.94v-.155h-.155v.155h.155zm0 .94h-.155v.155h.155v-.155zM5.841 7.693v-.155h-.155v.155h.155zm.946 0h.155v-.155h-.155v.155zm0 2.82v.155h.155v-.155h-.155zm-.946 0h-.155v.155h.155v-.155zm1.891-1.88h.155v-.155h-.155v.155zm0 .94v.155h.155v-.155h-.155zm-2.837-.94v-.155H4.74v.155h.155zm0 .94H4.74v.155h.155v-.155zm25.187-3.337a.628.628 0 0 0-.507-.425l-.045.307c.12.017.219.101.256.214l.295-.097zm-.506-.425-1.694-.245-.045.307 1.694.245.044-.307zm-1.577-.16-.758-1.526-.278.138.758 1.526.278-.138zm-.758-1.525c-.112-.226-.348-.328-.563-.328s-.451.101-.563.328l.279.138c.047-.095.156-.155.285-.155s.238.06.285.155l.279-.138zm-1.127-.001-.758 1.526.278.138.758-1.526-.278-.138zm-.641 1.441-1.694.245.044.308 1.694-.245-.045-.307zm-1.694.245a.628.628 0 0 0-.507.425l.295.098a.32.32 0 0 1 .257-.215l-.045-.307zm-.507.426a.624.624 0 0 0 .16.642l.216-.224a.313.313 0 0 1-.08-.322l-.295-.096zm.159.641 1.226 1.188.216-.223-1.226-1.188-.216.223zm1.181 1.05-.289 1.677.306.053.289-1.677-.306-.053zm-.289 1.677a.626.626 0 0 0 .25.612l.182-.252a.314.314 0 0 1-.126-.308l-.306-.053zm.25.611c.195.141.45.158.662.047l-.144-.275a.317.317 0 0 1-.335-.024l-.182.252zm.661.048 1.515-.792-.144-.275-1.515.792.144.275zm1.371-.792 1.515.792.144-.275-1.515-.792-.144.275zm1.515.792a.634.634 0 0 0 .293.072v-.311a.32.32 0 0 1-.148-.036l-.144.275zm.293.072c.129 0 .26-.04.369-.119l-.182-.251a.318.318 0 0 1-.187.06v.311zm.369-.12a.624.624 0 0 0 .25-.612l-.306.053a.314.314 0 0 1-.126.307l.182.252zm.25-.612-.289-1.677-.306.053.289 1.677.306-.053zm-.335-1.538 1.226-1.188-.216-.223-1.226 1.188.216.223zm1.227-1.188a.623.623 0 0 0 .159-.641l-.295.096a.314.314 0 0 1-.08.322l.217.223zm-2.281.464a.624.624 0 0 0-.181.554l.306-.053a.311.311 0 0 1 .091-.278l-.216-.223zm-.181.554.169.982.306-.053-.169-.982-.306.053zm.395.818-.887-.463-.144.275.887.463.144-.275zm-.887-.463a.631.631 0 0 0-.293-.072v.311a.32.32 0 0 1 .148.036l.144-.275zm-.293-.072c-.1 0-.2.024-.292.072l.143.276a.316.316 0 0 1 .149-.037v-.311zm-.292.072-.887.463.144.275.887-.463-.144-.275zm-.662.627.169-.982-.306-.053-.169.982.306.053zm.169-.982a.627.627 0 0 0-.18-.554l-.217.223a.312.312 0 0 1 .091.278l.306.053zm-.181-.554-.718-.696-.216.223.718.696.216-.223zm-.804-.43.992-.143-.044-.307-.992.143.044.307zm.992-.143a.626.626 0 0 0 .473-.342l-.278-.138a.317.317 0 0 1-.239.173l.044.308zm.473-.342.444-.893-.278-.138-.444.893.278.138zm.166-.893.444.893.278-.138-.444-.893-.278.138zm.443.893a.63.63 0 0 0 .473.342l.044-.308a.318.318 0 0 1-.239-.173l-.278.139zm.473.342.992.143.044-.307-.992-.143-.044.307zm.906-.122-.717.696.216.223.717-.696-.216-.223zm-4.549 13.89h.946v-.311h-.946v.311zm.79-.155v.94h.311v-.94h-.311zm.155.784h-.946v.311h.946v-.311zm-.79.156v-.94h-.311v.94h.311zm-.155 1.095h.946v-.311h-.946v.311zm.79-.155v.94h.311v-.94h-.311zm.155.784h-.946v.311h.946v-.311zm-.79.156v-.94h-.311v.94h.311zm.79-1.725h.946v-.311h-.946v.311zm.791-.155v.94h.311v-.94h-.311zm.155.784h-.946v.311h.946v-.311zm-.79.156v-.94h-.311v.94h.311zm-2.047-.785h.946v-.311h-.946v.311zm.79-.155v.94h.311v-.94h-.311zm.156.784h-.946v.311h.946v-.311zm-.791.156v-.94h-.311v.94h.311zm-2.52 3.445h.946v-.311H20.5v.311zm.791-.155v.94h.311v-.94h-.311zm.155.784H20.5v.311h.946v-.311zm-.79.155v-.94h-.311v.94h.311zm-.156 1.096h.946v-.311H20.5v.311zm.791-.156v.94h.311v-.94h-.311zm.155.785H20.5v.311h.946v-.311zm-.79.155v-.94h-.311v.94h.311zm.79-1.724h.946v-.311h-.946v.311zm.791-.156v.94h.311v-.94h-.311zm.155.785h-.946v.311h.946v-.311zm-.79.155v-.94h-.311v.94h.311zm-2.047-.784h.946v-.311h-.946v.311zm.79-.156v.94h.311v-.94h-.311zm.155.785h-.946v.311h.946v-.311zm-.79.155v-.94h-.311v.94h.311zm-4.884-3.604h.946v-.311h-.946v.311zm.79-.155v.94h.311v-.94h-.311zm.155.784h-.946v.311h.946v-.311zm-.79.156v-.94h-.311v.94h.311zm-.155 1.095h.946v-.311h-.946v.311zm.79-.155v.94h.311v-.94h-.311zm.155.784h-.946v.311h.946v-.311zm-.79.155v-.94h-.311v.94h.311zm.79-1.724h.946v-.311h-.946v.311zm.791-.155v.94h.311v-.94h-.311zm.155.784h-.946v.311h.946v-.311zm-.79.156v-.94h-.311v.94h.311zm-2.047-.785h.946v-.311h-.946v.311zm.79-.155v.94h.311v-.94h-.311zm.156.784h-.946v.311h.946v-.311zm-.791.156v-.94h-.311v.94h.311zM5.841 7.848h.946v-.311h-.946v.311zm.79-.155v.94h.311v-.94h-.311zm.156.784h-.946v.311h.946v-.311zm-.791.156v-.94h-.311v.94h.311zm-.155 1.095h.946v-.311h-.946v.311zm.79-.155v.94h.311v-.94h-.311zm.156.784h-.946v.311h.946v-.311zm-.791.156v-.94h-.311v.94h.311zm.791-1.725h.946v-.311h-.946v.311zm.79-.155v.94h.311v-.94h-.311zm.155.784h-.946v.311h.946v-.311zm-.79.156v-.94h-.311v.94h.311zm-2.047-.785h.946v-.311h-.946v.311zm.79-.155v.94h.311v-.94h-.311zm.156.784h-.946v.311h.946v-.311zm-.791.156v-.94h-.311v.94h.311z" style="fill:var(--color2, #ff6b00)"/></symbol>
</defs></svg>