<svg width="216" height="216" viewBox="0 0 216 216" fill="none" xmlns="http://www.w3.org/2000/svg">
<path d="M141.5 203.5C141 203.5 140.5 203.4 140 203.3L111 194.1C110.2 193.8 109.5 193.4 108.9 192.7C108.1 191.8 107.6 190.5 107.7 189.3C107.8 188 108.3 186.9 109.3 186L132 165.8C132.6 165.3 133.4 164.9 134.2 164.7C136.8 164.2 139.3 165.8 139.9 168.4L142 178.2C161.6 169.2 177 152.5 184.5 132.3C192.1 111.9 191.2 89.7 182.1 69.9C172.9 50 156.5 34.9 135.9 27.4C93.3 11.8 46.1 33.5 30.4 75.8C22.8 96.2 23.7 118.4 32.8 138.2C41.8 157.8 57.9 172.7 78 180.4L99.3 113.3C95.4 109.9 94.1 104.3 96.1 99.6L66.4 69.9C64.6 68 64.6 65.1 66.4 63.3C68.2 61.4 71.3 61.4 73.1 63.2L102.8 92.8C104.3 92.2 105.8 91.9 107.4 91.9C107.4 91.9 107.4 91.9 107.5 91.9C114.3 91.9 119.8 97.4 119.8 104.1C119.8 107.4 118.6 110.5 116.2 112.8C114.1 115 111.3 116.2 108.2 116.4L85.6 187.9C85.2 189 84.5 190 83.5 190.6C82.7 191.1 81.9 191.3 80.9 191.3C80.4 191.3 80 191.2 79.5 191.1C41.6 178.9 16 144 16 104.2C16 79.8 25.5 57 42.8 39.7C60.1 22.5 83 13 107.5 13C131.9 13 154.9 22.5 172.2 39.7C189.5 56.9 199 79.8 199 104.1C199.1 140.5 177.5 173.3 144 187.7L146.1 197.7C146.3 198.5 146.2 199.4 146 200.1C145.4 202.2 143.5 203.5 141.5 203.5ZM135.2 166.6C135 166.6 134.8 166.6 134.6 166.7C134.1 166.8 133.7 167 133.3 167.3L110.6 187.5C110 188 109.7 188.7 109.7 189.4C109.7 190.1 109.9 190.8 110.4 191.4C110.7 191.8 111.2 192 111.6 192.2L140.6 201.4C142.1 201.9 143.6 201.1 144.1 199.6C144.2 199.1 144.3 198.7 144.2 198.2L141.7 186.6L142.5 186.3C175.7 172.3 197.1 140.1 197.1 104.2C197.1 80.4 187.8 58 170.9 41.2C153.9 24.3 131.4 15 107.5 15C83.6 15 61.1 24.3 44.2 41.1C27.3 58 18 80.4 18 104.2C18 143.1 43 177.3 80.3 189.1C80.6 189.2 80.8 189.2 81.1 189.2C81.6 189.2 82.2 189.1 82.6 188.8C83.2 188.5 83.6 187.9 83.8 187.3L106.9 114.4H107.6C110.4 114.4 112.9 113.3 114.9 111.4C116.8 109.4 117.9 106.9 117.9 104.1C117.9 98.4 113.2 93.8 107.5 93.9C106 93.9 104.5 94.3 103.1 94.9L102.5 95.2L71.8 64.6C70.7 63.6 69 63.6 67.9 64.7C66.9 65.8 66.9 67.5 67.9 68.5L98.6 99.1L98.3 99.7C96.2 104 97.4 109.2 101.2 112.1L101.8 112.5L79.4 183L78.4 182.6C57.3 174.9 40.5 159.4 31.1 139C21.7 118.7 20.8 96 28.6 75.1C44.6 31.8 93 9.5 136.5 25.5C157.6 33.2 174.4 48.7 183.8 69.1C193.2 89.4 194.1 112.1 186.3 133C178.5 154.1 162.2 171.4 141.6 180.5L140.5 181L137.9 168.8C137.6 167.5 136.5 166.6 135.2 166.6ZM137.7 194.7L117.9 188.4L133.4 174.6L137.7 194.7ZM121.9 187.5L135.1 191.7L132.3 178.3L121.9 187.5ZM107.5 108.9C104.9 108.9 102.7 106.8 102.7 104.1C102.7 101.4 104.8 99.3 107.5 99.3C110.1 99.3 112.3 101.4 112.3 104.1C112.3 106.8 110.1 108.9 107.5 108.9ZM107.5 101.4C106 101.4 104.7 102.6 104.7 104.2C104.7 105.8 105.9 107 107.5 107C109.1 107 110.3 105.8 110.3 104.2C110.3 102.6 109 101.4 107.5 101.4Z" fill="white"/>
<path d="M107.5 43.9999C105.4 43.9999 103.7 42.2999 103.7 40.1999V32.6999C103.7 30.5999 105.4 28.8999 107.5 28.8999C109.6 28.8999 111.3 30.5999 111.3 32.6999V40.1999C111.3 42.2999 109.6 43.9999 107.5 43.9999ZM107.5 30.9999C106.5 30.9999 105.7 31.7999 105.7 32.7999V40.2999C105.7 41.2999 106.5 42.0999 107.5 42.0999C108.5 42.0999 109.3 41.2999 109.3 40.2999V32.7999C109.3 31.7999 108.5 30.9999 107.5 30.9999Z" fill="#FF6B00"/>
<path d="M43.4001 107.9H35.9001C33.8001 107.9 32.1001 106.2 32.1001 104.1C32.1001 102 33.8001 100.3 35.9001 100.3H43.4001C45.5001 100.3 47.2001 102 47.2001 104.1C47.2001 106.2 45.5001 107.9 43.4001 107.9ZM35.9001 102.4C34.9001 102.4 34.1001 103.2 34.1001 104.2C34.1001 105.2 34.9001 106 35.9001 106H43.4001C44.4001 106 45.2001 105.2 45.2001 104.2C45.2001 103.2 44.4001 102.4 43.4001 102.4H35.9001Z" fill="#FF6B00"/>
<path d="M179.1 107.9H171.6C169.5 107.9 167.8 106.2 167.8 104.1C167.8 102 169.5 100.3 171.6 100.3H179.1C181.2 100.3 182.9 102 182.9 104.1C182.9 106.2 181.2 107.9 179.1 107.9ZM171.6 102.4C170.6 102.4 169.8 103.2 169.8 104.2C169.8 105.2 170.6 106 171.6 106H179.1C180.1 106 180.9 105.2 180.9 104.2C180.9 103.2 180.1 102.4 179.1 102.4H171.6Z" fill="#FF6B00"/>
</svg>
