<svg width="206" height="206" viewBox="0 0 206 206" fill="none" xmlns="http://www.w3.org/2000/svg">
<path d="M193.115 100.542C193.105 50.7454 152.577 10.3857 102.594 10.3958C52.6114 10.4058 12.1012 50.7842 12.1113 100.581C12.12 139.806 37.5796 174.524 75.0854 186.455C75.4434 186.567 75.8159 186.625 76.1898 186.623C76.903 186.622 77.6018 186.432 78.2153 186.071C79.0137 185.601 79.6099 184.853 79.89 183.971L102.745 111.801C108.993 111.77 114.032 106.697 113.999 100.473C113.967 94.2478 108.877 89.228 102.628 89.2597C100.948 89.2668 99.289 89.6523 97.7789 90.3873L67.5854 60.3017C66.0868 58.8604 63.7004 58.9022 62.2538 60.3937C60.8419 61.8507 60.8419 64.1578 62.2538 65.6149L92.4314 95.7149C90.1157 100.424 91.4396 106.108 95.6032 109.319L73.8265 178.088C30.7899 162.294 8.75329 114.733 24.6065 71.8558C40.4598 28.979 88.1985 7.0243 131.235 22.8187C174.272 38.613 196.308 86.1759 180.455 129.051C172.71 149.999 156.796 166.94 136.328 176.026L133.975 164.984C133.545 162.954 131.543 161.657 129.506 162.087C128.863 162.224 128.267 162.524 127.776 162.96L105.087 183.141C103.531 184.521 103.392 186.895 104.778 188.446C105.228 188.949 105.806 189.323 106.453 189.529L135.42 198.74C137.403 199.374 139.526 198.288 140.163 196.312C140.365 195.688 140.398 195.023 140.263 194.382L137.95 183.547C171.445 169.478 193.193 136.756 193.115 100.542V100.542ZM102.614 96.785C104.696 96.785 106.385 98.4679 106.385 100.542C106.385 102.617 104.696 104.299 102.614 104.299C100.531 104.299 98.8429 102.617 98.8429 100.542C98.8429 98.4679 100.531 96.785 102.614 96.785ZM115.034 184.355L127.949 172.877L131.514 189.611L115.034 184.355Z" stroke="white" stroke-width="2"/>
<path d="M99.8418 36.6741V29.1603C99.8418 27.6417 101.079 26.4033 102.613 26.4033C104.146 26.4033 105.384 27.642 105.384 29.1603V36.6741C105.384 38.1936 104.146 39.431 102.613 39.431C101.078 39.431 99.8418 38.1938 99.8418 36.6741Z" stroke="#FF6B00" stroke-width="2"/>
<path d="M28.1938 100.542C28.1938 99.0233 29.4306 97.7849 30.9648 97.7849H38.5067C40.0409 97.7849 41.2776 99.0233 41.2776 100.542C41.2776 102.062 40.0411 103.299 38.5067 103.299H30.9648C29.4303 103.299 28.1938 102.062 28.1938 100.542Z" stroke="#FF6B00" stroke-width="2"/>
<path d="M177.03 100.542C177.03 102.062 175.794 103.299 174.259 103.299H166.717C165.184 103.299 163.947 102.061 163.947 100.542C163.947 99.0236 165.184 97.7849 166.717 97.7849H174.259C175.794 97.7849 177.03 99.0233 177.03 100.542Z" stroke="#FF6B00" stroke-width="2"/>
</svg>
